SplineFontDB: 2.0
FontName: aloba
FullName: aloba
FamilyName: aloba
Weight: Medium
Copyright: Glyphs by DMS Electronics for The Sri Lanka Tipitaka Project \nand were placed in the public domain.\n\nAll modifications - Copyright (C) 2007 Harshula Jayasuriya\n\nThe font is free software: you can redistribute it and/or modify\nit under the terms of the GNU General Public License as published by\nthe Free Software Foundation, either version 3 of the License, or\nany later version.\n\nThis program is distributed in the hope that it will be useful,\nbut WITHOUT ANY WARRANTY; without even the implied warranty of\nMERCHANTABILITY or FITNESS FOR A PARTICULAR PURPOSE.  See the \nGNU General Public License for more details.\n\nYou should have received a copy of the GNU General Public License\nalong with this program.  If not, see <http://www.gnu.org/licenses/>.
Comments: 2007-8-8: Created.
Version: 001.000
ItalicAngle: 0
UnderlinePosition: -204
UnderlineWidth: 102
Ascent: 1638
Descent: 410
XUID: [1021 4 8163871 4844252]
FSType: 8
OS2Version: 0
OS2_WeightWidthSlopeOnly: 0
OS2_UseTypoMetrics: 1
CreationTime: 1186506155
ModificationTime: 1193560960
PfmFamily: 17
TTFWeight: 500
TTFWidth: 5
LineGap: 377
VLineGap: 0
OS2TypoAscent: 0
OS2TypoAOffset: 1
OS2TypoDescent: 0
OS2TypoDOffset: 1
OS2TypoLinegap: 377
OS2WinAscent: 0
OS2WinAOffset: 1
OS2WinDescent: 0
OS2WinDOffset: 1
HheadAscent: 0
HheadAOffset: 1
HheadDescent: 0
HheadDOffset: 1
OS2Vendor: 'PfEd'
LangName: 1033 
Encoding: UnicodeBmp
UnicodeInterp: none
NameList: Adobe Glyph List
DisplaySize: -36
AntiAlias: 1
FitToEm: 1
WinInfo: 3280 16 18
TeXData: 1 0 0 346030 173015 115343 0 1048576 115343 783286 444596 497025 792723 393216 433062 380633 303038 157286 324010 404750 52429 2506097 1059062 262144
BeginChars: 65536 84
StartChar: uni0D91
Encoding: 3473 3473 0
Width: 1225
VWidth: 2047
Flags: HW
Fore
620.228 1138.06 m 1
 607.062 1154.15 l 1
 599.748 1180.48 l 1
 680.689 1162.93 756.268 1125.87 826.482 1069.31 c 0
 871.342 1032.25 929.365 967.398 1000.56 874.754 c 0
 1011.28 860.126 1021.77 843.06 1032.01 823.557 c 128
 1042.25 804.053 1052.73 781.622 1063.46 756.268 c 0
 1087.84 686.053 1100.03 629.004 1100.03 585.12 c 0
 1100.03 380.328 1053.22 227.221 959.597 125.801 c 0
 874.754 38.0332 747.004 -5.85156 576.343 -5.85156 c 0
 431.039 -5.85156 312.552 24.3799 220.883 84.8428 c 0
 109.71 155.057 54.124 253.552 54.124 380.328 c 0
 54.124 435.914 65.8262 484.187 89.2305 525.146 c 128
 112.636 566.104 149.692 601.698 200.403 631.93 c 1
 103.858 631.93 l 2
 88.2559 631.93 80.4541 639.73 80.4541 655.334 c 0
 80.4541 661.186 82.8916 666.793 87.7676 672.156 c 128
 92.6436 677.521 97.5205 680.202 102.396 680.202 c 2
 498.814 680.202 l 1
 498.814 706.532 491.501 731.4 476.873 754.805 c 128
 462.245 778.21 439.327 794.787 408.121 804.54 c 1
 387.642 806.003 l 2
 372.038 806.003 339.369 788.937 289.635 754.805 c 0
 261.354 739.201 238.437 731.4 220.883 731.4 c 0
 204.305 731.4 191.14 732.863 181.387 735.788 c 128
 171.635 738.714 162.371 748.953 153.594 766.507 c 1
 149.206 782.598 l 1
 147.743 800.151 l 2
 147.743 825.506 163.834 846.961 196.016 864.515 c 128
 228.197 882.068 265.742 890.846 308.65 890.846 c 0
 349.609 890.846 384.717 883.531 413.973 868.903 c 0
 443.229 857.201 468.583 837.697 490.038 810.392 c 0
 521.244 769.433 540.261 712.384 547.087 639.243 c 1
 513.442 640.706 l 1
 465.17 642.169 l 1
 387.642 637.781 l 2
 352.535 637.781 319.378 632.417 288.172 621.69 c 128
 256.966 610.963 228.197 595.847 201.866 576.343 c 0
 150.182 538.311 124.338 486.625 124.338 421.286 c 2
 125.801 399.345 l 2
 137.503 312.552 191.627 253.064 288.172 220.883 c 0
 340.832 206.255 437.377 198.94 577.806 198.94 c 0
 709.458 198.94 817.705 228.197 902.548 286.709 c 0
 997.143 352.048 1044.44 443.716 1044.44 561.715 c 0
 1044.44 619.252 1041.03 663.136 1034.2 693.367 c 0
 1028.35 732.376 1014.21 768.945 991.778 803.077 c 1
 970.323 784.548 940.094 766.994 901.085 750.416 c 128
 862.076 733.839 825.506 725.549 791.375 725.549 c 0
 764.068 725.549 738.958 730.182 716.041 739.445 c 128
 693.123 748.709 671.425 765.531 650.946 789.912 c 0
 633.393 814.293 618.765 839.647 607.062 865.978 c 0
 598.285 891.332 593.896 915.226 593.896 937.655 c 0
 593.896 963.01 601.211 994.217 615.839 1031.27 c 0
 626.565 1054.68 642.656 1081.01 664.111 1110.27 c 1
 642.169 1123.43 l 1
 620.228 1138.06 l 1
705.069 857.201 m 0
 746.028 813.316 787.962 791.375 830.87 791.375 c 0
 870.854 791.375 912.3 809.904 955.208 846.961 c 1
 901.572 926.928 868.903 972.275 857.201 983.002 c 0
 816.242 1026.89 762.605 1063.94 696.293 1094.17 c 1
 670.938 1061.02 658.26 1022.98 658.26 980.076 c 0
 658.26 932.291 673.863 891.332 705.069 857.201 c 0
EndSplineSet
EndChar
StartChar: uni0D94
Encoding: 3476 3476 1
Width: 1258
VWidth: 2047
Flags: HW
Fore
688.979 697.756 m 0
 688.979 718.234 679.958 738.227 661.917 757.73 c 128
 643.876 777.234 622.666 786.986 598.285 786.986 c 0
 575.856 786.986 555.864 778.696 538.311 762.119 c 128
 520.757 745.541 511.98 725.549 511.98 702.145 c 0
 511.98 682.641 520.757 661.186 538.311 637.781 c 1
 556.84 619.252 578.293 609.987 602.674 609.987 c 256
 627.054 609.987 647.533 618.277 664.111 634.855 c 128
 680.689 651.434 688.979 672.4 688.979 697.756 c 0
833.796 0 m 0
 788.937 0 752.366 5.85156 724.086 17.5537 c 128
 695.806 29.2559 666.062 54.6113 634.855 93.6191 c 0
 629.004 101.421 624.615 110.197 621.69 119.949 c 2
 611.45 160.908 l 1
 601.211 125.801 l 2
 598.285 116.049 591.947 105.81 582.194 95.082 c 0
 555.864 59.9746 523.195 35.3506 484.187 21.2109 c 128
 445.179 7.07031 401.783 0 353.998 0 c 0
 257.453 0 179.925 48.2725 121.412 144.817 c 0
 71.6768 229.659 46.8096 331.08 46.8096 449.08 c 0
 46.8096 534.897 59 605.112 83.3799 659.723 c 0
 112.636 724.086 160.421 771.383 226.734 801.614 c 2
 277.932 823.557 l 1
 327.667 833.796 l 1
 338.394 833.796 348.146 831.846 356.923 827.945 c 0
 389.104 816.242 411.047 791.375 422.749 753.342 c 2
 425.675 737.251 l 1
 425.675 725.549 419.823 710.921 408.121 693.367 c 0
 381.791 656.311 368.626 627.541 368.626 607.062 c 0
 368.626 570.005 393.493 540.261 443.229 517.831 c 0
 481.261 503.203 530.996 495.89 592.434 495.89 c 0
 656.797 495.89 707.508 505.153 744.565 523.683 c 0
 792.351 549.037 816.242 593.41 816.242 656.797 c 0
 816.242 669.476 807.466 688.979 789.912 715.31 c 128
 772.358 741.64 746.516 760.656 712.384 772.358 c 1
 724.086 744.565 l 2
 728.962 731.887 731.4 715.796 731.4 696.293 c 0
 731.4 665.087 719.941 636.074 697.024 609.256 c 128
 674.106 582.438 647.045 569.029 615.839 569.029 c 0
 574.881 569.029 539.042 581.219 508.323 605.6 c 128
 477.604 629.979 462.245 660.698 462.245 697.756 c 0
 462.245 735.788 477.36 767.238 507.592 792.106 c 128
 537.823 816.974 573.418 829.407 614.376 829.407 c 0
 671.912 829.407 726.036 809.904 776.747 770.896 c 0
 832.333 727.987 860.126 676.789 860.126 617.302 c 0
 860.126 562.69 833.309 514.905 779.673 473.947 c 0
 727.012 440.79 668.5 424.212 604.137 424.212 c 0
 529.047 424.212 464.684 440.79 411.047 473.947 c 0
 350.585 511.004 320.354 561.715 320.354 626.078 c 0
 320.354 640.706 330.837 661.43 351.804 688.247 c 128
 372.77 715.064 383.254 732.376 383.254 740.177 c 0
 383.254 746.028 380.328 753.342 374.477 762.119 c 0
 362.774 776.747 347.171 784.061 327.667 784.061 c 0
 311.089 784.061 297.924 781.622 288.172 776.747 c 1
 247.213 765.045 l 2
 193.577 750.416 154.569 707.02 130.189 634.855 c 0
 117.512 581.219 111.173 516.368 111.173 440.303 c 0
 111.173 376.915 136.284 322.061 186.507 275.738 c 128
 236.729 229.415 295.973 206.255 364.237 206.255 c 2
 392.03 206.255 l 2
 427.138 206.255 456.394 209.181 479.799 215.031 c 128
 503.203 220.883 530.51 234.535 561.715 255.99 c 0
 573.418 263.791 583.413 274.762 591.703 288.903 c 128
 599.992 303.044 605.112 316.452 607.062 329.13 c 1
 607.062 321.329 611.45 309.138 620.228 292.56 c 1
 646.558 263.304 l 2
 654.358 256.478 663.136 249.651 672.888 242.825 c 0
 678.739 238.924 688.979 233.072 703.606 225.271 c 1
 735.788 219.42 l 1
 792.838 217.957 l 2
 857.201 217.957 906.205 228.684 939.849 250.139 c 128
 973.493 271.594 1011.28 316.452 1053.22 384.717 c 1
 1066.38 416.898 l 1
 1078.08 459.319 l 1
 1111.73 459.319 l 1
 1136.6 457.856 l 1
 1132.21 408.121 l 2
 1118.55 306.701 1088.81 214.056 1042.98 130.189 c 0
 1019.57 86.3057 991.291 53.6357 958.134 32.1816 c 0
 945.456 24.3799 928.146 17.0664 906.205 10.2393 c 128
 884.263 3.41309 860.126 0 833.796 0 c 0
1034.2 365.7 m 1
 1048.83 389.104 1057.6 414.46 1060.53 441.766 c 2
 1066.38 550.013 l 1
 1066.38 583.657 l 1
 1066.38 602.674 l 1
 1066.38 618.765 l 1
 1066.38 669.963 l 1
 1060.53 712.384 l 2
 1060.53 732.863 1058.09 749.44 1053.22 762.119 c 2
 1051.27 771.871 1043.95 788.937 1031.27 813.316 c 0
 993.241 894.258 957.646 951.796 924.489 985.928 c 0
 910.837 1002.5 888.896 1020.55 858.664 1040.05 c 0
 836.234 1054.68 802.59 1074.18 757.73 1098.56 c 0
 731.4 1110.27 688.492 1125.87 629.004 1145.37 c 2
 567.566 1157.08 l 1
 500.277 1161.46 l 1
 441.766 1158.54 l 1
 406.658 1157.08 l 2
 393.98 1157.08 380.328 1155.12 365.7 1151.22 c 2
 299.387 1143.42 254.527 1135.13 231.122 1126.36 c 2
 201.866 1120.5 162.371 1102.95 112.636 1073.7 c 1
 84.8428 1113.19 l 1
 174.073 1157.08 l 2
 203.329 1169.75 235.023 1180.48 269.155 1189.26 c 2
 307.188 1196.57 l 1
 358.386 1205.35 l 1
 432.989 1208.27 l 1
 488.575 1208.27 l 2
 568.542 1208.27 635.343 1200.47 688.979 1184.87 c 0
 721.16 1177.07 748.953 1166.34 772.358 1152.69 c 0
 796.739 1140.98 828.432 1121.48 867.44 1094.17 c 0
 921.077 1058.09 962.035 1023.96 990.315 991.778 c 0
 1003.97 978.126 1017.86 960.572 1032.01 939.117 c 128
 1046.15 917.663 1061.02 892.795 1076.62 864.515 c 0
 1101.98 813.804 1119.53 764.558 1129.28 716.772 c 0
 1133.18 695.317 1136.6 669.718 1139.52 639.975 c 128
 1142.45 610.231 1143.91 579.269 1143.91 547.087 c 0
 1143.91 467.12 1133.18 402.757 1111.73 353.998 c 2
 1053.22 236.974 l 1
 1041.51 294.022 l 1
 1034.2 334.981 l 1
 1034.2 365.7 l 1
EndSplineSet
EndChar
StartChar: uni0D9A
Encoding: 3482 3482 2
Width: 1423
VWidth: 2047
Flags: HW
Fore
367.163 185.775 m 2
 403.732 185.775 l 1
 430.063 191.627 l 1
 462.245 204.792 l 1
 490.038 226.734 l 2
 506.616 242.338 522.22 263.791 536.848 291.098 c 1
 547.087 330.593 l 1
 551.476 373.014 l 1
 551.476 342.782 554.889 318.891 561.715 301.337 c 0
 569.517 286.709 581.219 269.155 596.822 248.676 c 0
 610.475 233.072 629.004 220.396 652.409 210.644 c 0
 672.888 204.792 698.731 201.866 729.938 201.866 c 0
 779.673 201.866 819.655 222.833 849.887 264.767 c 128
 880.118 306.701 895.233 356.437 895.233 413.973 c 0
 895.233 468.583 865.49 516.855 806.003 558.79 c 0
 784.548 574.394 757.243 589.021 724.086 602.674 c 2
 604.137 652.409 l 1
 570.492 661.186 l 1
 535.385 662.648 l 1
 490.038 662.648 l 1
 456.881 641.193 426.162 618.033 397.882 593.165 c 128
 369.602 568.298 344.733 542.699 323.279 516.368 c 128
 301.824 490.038 276.956 456.394 248.676 415.436 c 0
 225.271 381.304 196.991 334.494 163.834 275.007 c 1
 264.767 210.644 l 2
 295.973 194.065 330.105 185.775 367.163 185.775 c 2
1189.26 87.7676 m 2
 1145.37 57.0488 l 1
 1100.03 32.1816 l 2
 1057.12 11.7021 1016.65 1.46289 978.613 1.46289 c 2
 959.597 1.46289 l 2
 940.094 1.46289 923.026 3.90039 908.398 8.77637 c 1
 899.622 43.8838 l 1
 921.564 42.4209 l 1
 944.969 42.4209 l 2
 978.126 42.4209 1004.94 45.834 1025.42 52.6611 c 0
 1058.58 61.4375 1088.08 80.9414 1113.92 111.173 c 128
 1139.77 141.404 1158.54 174.561 1170.24 210.644 c 0
 1174.14 229.173 1177.55 253.309 1180.48 283.052 c 128
 1183.41 312.795 1184.87 344.245 1184.87 377.402 c 0
 1184.87 485.649 1147.08 580.731 1071.5 662.648 c 128
 995.923 744.565 904.011 785.523 795.764 785.523 c 0
 732.376 785.523 689.954 782.111 668.5 775.284 c 0
 645.095 769.433 606.086 747.004 551.476 707.995 c 1
 587.559 707.995 628.517 700.194 674.351 684.591 c 0
 695.806 678.739 715.554 671.912 733.594 664.111 c 128
 751.635 656.311 770.408 646.07 789.912 633.393 c 0
 851.35 601.211 896.209 569.517 924.489 538.311 c 0
 960.572 496.376 978.613 448.104 978.613 393.493 c 0
 978.613 293.047 963.498 208.205 933.267 138.966 c 0
 893.283 46.3223 833.309 0 753.342 0 c 0
 712.384 0 676.301 12.6777 645.095 38.0332 c 0
 615.839 64.3633 590.484 99.958 569.029 144.817 c 2
 560.252 166.759 l 1
 550.013 204.792 l 1
 542.699 184.312 l 1
 533.922 160.908 l 2
 516.368 121.9 489.551 85.3301 453.468 51.1982 c 128
 417.385 17.0664 384.229 0 353.998 0 c 0
 313.039 0 275.493 24.3799 241.362 73.1396 c 0
 222.833 102.396 204.792 143.842 187.238 197.478 c 0
 182.363 213.082 167.246 220.883 141.892 220.883 c 0
 133.115 220.883 122.388 208.693 109.71 184.312 c 0
 100.934 164.81 91.6689 155.544 81.917 156.52 c 1
 70.2148 166.759 l 1
 61.4375 179.925 l 1
 111.173 292.073 162.857 385.203 216.494 459.319 c 0
 275.982 540.261 351.072 614.863 441.766 683.128 c 0
 450.542 688.979 455.418 699.705 456.394 715.31 c 0
 456.394 729.938 451.761 744.81 442.497 759.925 c 128
 433.233 775.04 421.286 786.011 406.658 792.838 c 128
 392.03 799.664 374.964 803.077 355.46 803.077 c 0
 318.403 803.077 288.172 777.234 264.767 725.549 c 1
 235.511 588.046 l 2
 232.585 564.641 221.858 547.331 203.329 536.116 c 128
 184.8 524.901 162.857 519.294 137.503 519.294 c 0
 117.024 519.294 97.0322 527.095 77.5283 542.699 c 0
 60.9502 559.276 52.6611 578.781 52.6611 601.211 c 2
 51.1982 620.228 l 2
 51.1982 682.641 76.0654 740.177 125.801 792.838 c 128
 175.536 845.498 233.561 871.829 299.874 871.829 c 0
 318.403 871.829 333.519 869.879 345.221 865.978 c 0
 386.18 857.201 417.143 844.28 438.108 827.214 c 128
 459.075 810.146 479.312 778.21 498.814 731.4 c 1
 569.029 784.061 l 1
 630.467 826.482 l 2
 691.904 861.589 750.416 879.143 806.003 879.143 c 0
 939.604 879.143 1060.04 842.573 1167.31 769.433 c 0
 1219.98 731.4 1261.18 686.54 1290.92 634.855 c 128
 1320.66 583.17 1335.54 526.121 1335.54 463.708 c 0
 1335.54 371.064 1325.78 299.874 1306.28 250.139 c 0
 1283.85 184.8 1244.84 130.677 1189.26 87.7676 c 2
EndSplineSet
EndChar
StartChar: uni0D9B
Encoding: 3483 3483 3
Width: 1258
VWidth: 2047
Flags: HW
Fore
150.668 149.206 m 0
 150.668 117.999 163.347 91.6689 188.701 70.2148 c 0
 196.502 62.4131 210.156 54.124 229.659 45.3467 c 1
 253.064 39.4951 l 1
 277.932 38.0332 l 2
 302.312 38.0332 324.497 49.248 344.489 71.6768 c 128
 364.481 94.1064 374.477 119.462 374.477 147.743 c 0
 374.477 176.999 363.75 202.11 342.295 223.077 c 128
 320.84 244.043 294.998 254.527 264.767 254.527 c 0
 239.412 254.527 214.056 244.532 188.701 224.54 c 128
 163.347 204.548 150.668 179.438 150.668 149.206 c 0
795.764 1.46289 m 0
 761.632 1.46289 724.33 8.77637 683.859 23.4053 c 128
 643.388 38.0332 606.086 61.9248 571.955 95.082 c 1
 462.245 0 l 1
 438.84 23.4053 l 1
 485.649 67.2891 l 1
 580.731 165.297 l 2
 589.509 174.073 603.161 198.454 621.69 238.437 c 128
 640.22 278.419 649.483 312.552 649.483 340.832 c 0
 649.483 365.213 644.119 386.18 633.393 403.732 c 0
 609.987 444.691 575.856 475.654 530.996 496.621 c 128
 486.137 517.587 434.938 528.07 377.402 528.07 c 0
 331.568 528.07 290.121 522.22 253.064 510.518 c 0
 204.305 492.964 161.396 459.807 124.338 411.047 c 0
 106.784 387.642 98.0078 354.484 98.0078 311.576 c 0
 98.0078 266.717 105.81 230.146 121.412 201.866 c 1
 129.214 217.47 148.229 238.924 178.462 266.229 c 1
 220.883 286.709 l 2
 229.659 289.635 244.287 292.073 264.767 294.022 c 0
 301.824 294.022 335.713 279.15 366.432 249.407 c 128
 397.15 219.664 412.51 185.288 412.51 146.28 c 0
 412.51 110.197 399.589 76.7969 373.745 46.0781 c 128
 347.902 15.3594 315.965 0 277.932 0 c 0
 201.866 0 141.404 37.0576 96.5449 111.173 c 0
 59.4873 176.512 40.958 254.527 40.958 345.221 c 0
 40.958 444.691 73.1396 533.922 137.503 612.913 c 128
 201.866 691.904 283.783 731.4 383.254 731.4 c 0
 477.849 731.4 558.79 706.532 626.078 656.797 c 0
 697.269 600.235 732.863 520.757 732.863 418.36 c 0
 732.863 375.452 726.524 329.13 713.847 279.395 c 0
 707.02 255.015 685.077 217.47 648.021 166.759 c 2
 596.822 114.099 l 1
 616.326 105.321 647.533 100.934 690.441 100.934 c 2
 753.342 105.321 l 2
 768.945 108.247 788.449 114.099 811.854 122.875 c 0
 846.961 137.503 886.944 168.709 931.804 216.494 c 2
 994.704 294.022 l 2
 1012.26 317.428 1031.76 347.659 1053.22 384.717 c 2
 1066.38 416.898 l 1
 1078.08 459.319 l 1
 1111.73 459.319 l 1
 1136.6 457.856 l 1
 1132.21 408.121 l 1
 1123.43 336.444 l 2
 1119.53 307.188 1117.09 289.635 1116.12 283.783 c 128
 1115.14 277.932 1112.21 269.643 1107.34 258.916 c 2
 1094.66 209.181 1073.21 166.027 1042.98 129.458 c 128
 1012.75 92.8877 975.688 61.4375 931.804 35.1074 c 0
 889.869 12.6777 844.522 1.46289 795.764 1.46289 c 0
1034.2 365.7 m 1
 1048.83 389.104 1057.6 414.46 1060.53 441.766 c 2
 1066.38 550.013 l 1
 1066.38 583.657 l 1
 1066.38 602.674 l 1
 1066.38 618.765 l 1
 1066.38 669.963 l 1
 1060.53 712.384 l 2
 1060.53 732.863 1058.09 749.44 1053.22 762.119 c 2
 1051.27 771.871 1043.95 788.937 1031.27 813.316 c 0
 993.241 894.258 957.646 951.796 924.489 985.928 c 0
 910.837 1002.5 888.896 1020.55 858.664 1040.05 c 0
 836.234 1054.68 802.59 1074.18 757.73 1098.56 c 0
 731.4 1110.27 688.492 1125.87 629.004 1145.37 c 2
 567.566 1157.08 l 1
 500.277 1161.46 l 1
 441.766 1158.54 l 1
 406.658 1157.08 l 2
 393.98 1157.08 380.328 1155.12 365.7 1151.22 c 2
 299.387 1143.42 254.527 1135.13 231.122 1126.36 c 2
 201.866 1120.5 162.371 1102.95 112.636 1073.7 c 1
 84.8428 1113.19 l 1
 174.073 1157.08 l 2
 203.329 1169.75 235.023 1180.48 269.155 1189.26 c 2
 307.188 1196.57 l 1
 358.386 1205.35 l 1
 432.989 1208.27 l 1
 488.575 1208.27 l 2
 568.542 1208.27 635.343 1200.47 688.979 1184.87 c 0
 721.16 1177.07 748.953 1166.34 772.358 1152.69 c 0
 796.739 1140.98 828.432 1121.48 867.44 1094.17 c 0
 921.077 1058.09 962.035 1023.96 990.315 991.778 c 0
 1003.97 978.126 1017.86 960.572 1032.01 939.117 c 128
 1046.15 917.663 1061.02 892.795 1076.62 864.515 c 0
 1101.98 813.804 1119.53 764.558 1129.28 716.772 c 0
 1133.18 695.317 1136.6 669.718 1139.52 639.975 c 128
 1142.45 610.231 1143.91 579.269 1143.91 547.087 c 0
 1143.91 467.12 1133.18 402.757 1111.73 353.998 c 2
 1053.22 236.974 l 1
 1041.51 294.022 l 1
 1034.2 334.981 l 1
 1034.2 365.7 l 1
EndSplineSet
EndChar
StartChar: uni0D9C
Encoding: 3484 3484 4
Width: 1423
VWidth: 2047
Flags: HW
Fore
435.914 810.392 m 2
 344.245 801.614 270.862 771.871 215.763 721.16 c 128
 160.664 670.449 133.115 601.698 133.115 514.905 c 2
 134.577 482.724 l 2
 134.577 439.815 143.354 400.808 160.908 365.7 c 0
 169.685 349.122 181.387 333.031 196.016 317.428 c 128
 210.644 301.824 229.173 285.733 251.602 269.155 c 0
 262.328 261.354 277.445 251.846 296.948 240.631 c 128
 316.452 229.415 336.444 218.933 356.923 209.181 c 1
 401.783 196.502 439.815 190.164 471.021 190.164 c 2
 516.368 190.164 l 1
 550.013 196.016 l 2
 607.549 201.866 651.434 214.545 681.665 234.048 c 0
 725.549 257.453 747.491 288.172 747.491 326.204 c 2
 746.028 345.221 l 2
 743.103 368.626 735.788 387.642 724.086 402.27 c 0
 715.31 416.898 699.219 430.063 675.813 441.766 c 2
 650.946 450.542 l 1
 634.855 453.468 l 1
 605.6 449.08 l 1
 555.864 432.989 l 1
 545.624 487.112 l 1
 542.699 529.533 l 2
 542.699 568.542 547.818 603.161 558.059 633.393 c 128
 568.298 663.624 589.021 696.78 620.228 732.863 c 0
 649.483 762.119 689.466 790.399 740.177 817.705 c 0
 812.341 853.788 874.754 871.829 927.415 871.829 c 0
 1037.61 871.829 1130.01 831.357 1204.62 750.416 c 128
 1279.22 669.476 1316.52 572.442 1316.52 459.319 c 2
 1315.06 383.254 l 1
 1313.59 358.386 l 1
 1304.82 326.204 l 2
 1301.89 306.701 1297.26 288.416 1290.92 271.35 c 128
 1284.58 254.283 1273.61 234.535 1258.01 212.106 c 0
 1217.05 141.892 1170 88.9873 1116.85 53.3926 c 128
 1063.7 17.7979 999.093 0 923.026 0 c 0
 904.498 0 874.754 5.85156 833.796 17.5537 c 2
 785.523 35.1074 l 1
 786.986 64.3633 l 1
 842.573 42.4209 l 1
 877.68 35.1074 l 1
 901.085 35.1074 l 1
 920.102 36.5703 l 2
 956.184 36.5703 986.903 44.8594 1012.26 61.4375 c 0
 1027.86 70.2148 1051.75 90.9375 1083.93 123.606 c 128
 1116.12 156.275 1138.55 193.334 1151.22 234.779 c 128
 1163.9 276.225 1170.24 321.816 1170.24 371.551 c 0
 1170.24 445.667 1163.9 502.228 1151.22 541.236 c 0
 1134.65 594.872 1103.44 640.22 1057.6 677.276 c 0
 1026.4 702.631 993.241 721.647 958.134 734.325 c 128
 923.026 747.004 882.068 753.342 835.259 753.342 c 0
 775.771 753.342 723.842 737.251 679.471 705.069 c 128
 635.1 672.888 604.623 630.467 588.046 577.806 c 1
 582.194 523.683 l 1
 586.583 475.41 l 1
 615.839 482.724 l 1
 649.483 485.649 l 2
 691.417 485.649 727.987 474.435 759.193 452.005 c 0
 791.375 431.526 815.267 404.709 830.87 371.551 c 0
 833.796 363.75 837.697 348.878 842.573 326.936 c 128
 847.448 304.994 849.887 282.32 849.887 258.916 c 0
 849.887 199.428 826.482 144.817 779.673 95.082 c 0
 735.788 52.1729 668.986 21.9424 579.269 4.38867 c 2
 548.55 0 l 1
 519.294 -1.46289 l 1
 500.277 -1.46289 l 1
 485.649 -1.46289 l 1
 471.021 1.46289 l 1
 415.436 11.7021 l 2
 353.998 22.4297 313.526 32.1816 294.022 40.958 c 0
 258.916 54.6113 223.809 76.5527 188.701 106.784 c 0
 138.966 149.692 102.64 197.233 79.7227 249.407 c 128
 56.8057 301.581 45.3467 360.824 45.3467 427.138 c 0
 45.3467 547.087 77.5283 648.021 141.892 729.938 c 0
 213.082 818.681 312.552 863.052 440.303 863.052 c 0
 477.36 863.052 505.153 861.103 523.683 857.201 c 0
 540.261 855.251 555.864 852.812 570.492 849.887 c 128
 585.12 846.961 604.623 841.598 629.004 833.796 c 1
 629.004 786.986 l 1
 535.385 808.929 l 1
 479.799 813.316 l 1
 454.931 811.854 l 1
 435.914 810.392 l 2
EndSplineSet
EndChar
StartChar: uni0D9D
Encoding: 3485 3485 5
Width: 1296
VWidth: 2047
Flags: HW
Fore
901.085 2.92578 m 0
 843.549 2.92578 796.25 13.165 759.193 33.6445 c 128
 722.136 54.124 690.929 90.6934 665.574 143.354 c 1
 655.334 179.925 l 1
 649.483 217.957 l 1
 670.938 217.957 692.88 222.833 715.31 232.585 c 0
 749.44 246.237 766.507 267.205 766.507 295.485 c 0
 763.582 321.816 751.635 339.369 730.669 348.146 c 128
 709.702 356.923 678.739 361.312 637.781 361.312 c 2
 607.062 361.312 l 1
 576.343 361.312 l 1
 544.162 358.386 l 2
 532.459 358.386 517.831 353.998 500.277 345.221 c 0
 474.923 336.444 462.245 318.403 462.245 291.098 c 0
 462.245 268.668 473.947 248.676 497.352 231.122 c 1
 520.757 219.42 553.914 213.568 596.822 213.568 c 1
 595.359 181.387 l 2
 595.359 168.709 591.458 156.52 583.657 144.817 c 2
 574.881 108.734 549.037 76.5527 506.129 48.2725 c 0
 458.344 15.1152 405.195 -1.46289 346.684 -1.46289 c 0
 269.643 -1.46289 200.891 28.2803 140.429 87.7676 c 0
 104.347 119.949 79.4785 155.057 65.8262 193.09 c 0
 53.1484 234.048 46.8096 277.445 46.8096 323.279 c 0
 46.8096 359.361 49.7354 391.299 55.5859 419.092 c 128
 61.4375 446.886 73.1396 475.41 90.6934 504.666 c 0
 114.099 544.648 154.812 582.682 212.838 618.765 c 128
 270.862 654.848 318.403 672.888 355.46 672.888 c 2
 529.533 674.351 l 1
 535.385 697.756 l 1
 535.385 717.259 524.17 735.301 501.74 751.879 c 128
 479.312 768.457 454.931 776.747 428.601 776.747 c 0
 413.973 776.747 380.815 759.193 329.13 724.086 c 0
 307.675 707.508 285.246 699.219 261.841 699.219 c 0
 209.181 699.219 176.512 719.211 163.834 759.193 c 1
 160.908 784.061 l 2
 160.908 809.416 179.925 835.259 217.957 861.589 c 0
 232.585 869.391 250.139 875.241 270.618 879.143 c 2
 323.279 884.994 l 1
 381.791 880.605 l 1
 435.914 868.903 l 2
 463.221 863.052 488.088 848.911 510.518 826.482 c 0
 532.946 806.003 551.963 780.648 567.566 750.416 c 1
 579.269 716.772 l 1
 583.657 684.591 l 1
 574.881 630.467 l 1
 430.063 630.467 l 1
 362.774 626.078 l 2
 347.171 626.078 326.691 621.203 301.337 611.45 c 0
 244.774 593.896 199.186 565.128 164.565 525.146 c 128
 129.945 485.162 112.636 445.179 112.636 405.195 c 0
 112.636 343.758 134.09 293.536 176.999 254.527 c 0
 206.255 231.122 236.974 212.106 269.155 197.478 c 128
 301.337 182.85 337.907 171.147 378.865 162.371 c 0
 400.32 159.445 412.51 157.007 415.436 155.057 c 1
 440.303 155.057 l 2
 464.684 155.057 502.228 166.272 552.938 188.701 c 1
 513.93 188.701 481.748 196.991 456.394 213.568 c 0
 426.162 233.072 411.047 260.865 411.047 296.948 c 0
 411.047 337.907 429.819 368.87 467.364 389.836 c 128
 504.91 410.803 550.988 421.286 605.6 421.286 c 0
 683.615 421.286 741.152 409.584 778.21 386.18 c 0
 804.54 366.676 817.705 338.394 817.705 301.337 c 0
 814.779 271.105 803.564 246.237 784.061 226.734 c 0
 770.408 211.13 743.103 198.454 702.145 188.701 c 1
 770.896 182.85 l 1
 842.573 184.312 l 1
 895.233 187.238 l 2
 966.424 187.238 1025.42 201.866 1072.23 231.122 c 0
 1131.72 271.105 1161.46 337.42 1161.46 430.063 c 0
 1161.46 475.897 1142.45 518.807 1104.41 558.79 c 0
 1074.18 587.07 1030.3 609.5 972.762 626.078 c 1
 908.398 627.541 l 1
 807.466 629.004 l 1
 710.921 629.004 l 1
 661.186 629.004 l 1
 656.797 675.813 l 2
 656.797 694.343 659.235 709.945 664.111 722.623 c 2
 696.293 782.598 l 2
 722.623 820.631 755.049 850.131 793.569 871.098 c 128
 832.089 892.063 872.316 902.548 914.25 902.548 c 2
 955.208 902.548 l 1
 981.539 895.233 l 1
 989.34 895.233 997.63 892.795 1006.41 887.92 c 2
 1044.44 871.829 l 1
 1079.55 849.887 l 2
 1091.25 840.135 1101.49 828.921 1110.27 816.242 c 0
 1129.77 790.888 1139.52 764.558 1139.52 737.251 c 0
 1139.52 693.367 1116.6 659.723 1070.77 636.318 c 1
 1120.5 618.765 1157.08 590.727 1180.48 552.207 c 128
 1203.88 513.688 1215.59 463.221 1215.59 400.808 c 0
 1215.59 311.089 1187.79 223.809 1132.21 138.966 c 0
 1068.82 48.2725 991.778 2.92578 901.085 2.92578 c 0
1002.02 678.739 m 2
 1019.57 678.739 1035.66 681.665 1050.29 687.516 c 128
 1064.92 693.367 1075.16 705.069 1081.01 722.623 c 1
 1083.93 741.64 l 1
 1083.93 754.317 1079.55 766.021 1070.77 776.747 c 2
 1029.81 814.779 l 1
 991.778 839.16 954.232 851.35 917.176 851.35 c 0
 866.465 851.35 821.118 834.283 781.135 800.151 c 0
 760.656 782.598 744.078 764.068 731.4 744.565 c 0
 720.673 725.062 715.31 701.657 715.31 674.351 c 1
 861.589 675.813 l 1
 1002.02 678.739 l 2
EndSplineSet
EndChar
StartChar: uni0D9E
Encoding: 3486 3486 6
Width: 1258
VWidth: 2047
Flags: HW
Fore
74.6025 678.739 m 0
 74.6025 661.186 80.9414 644.119 93.6191 627.541 c 0
 107.271 613.889 123.851 607.062 143.354 607.062 c 0
 163.834 607.062 180.9 613.889 194.553 627.541 c 128
 208.205 641.193 215.031 658.26 215.031 678.739 c 0
 215.031 694.343 207.23 709.945 191.627 725.549 c 0
 176.023 738.227 158.47 744.565 138.966 744.565 c 0
 121.412 744.565 106.297 738.227 93.6191 725.549 c 128
 80.9414 712.871 74.6025 697.269 74.6025 678.739 c 0
466.633 681.665 m 2
 469.559 700.682 l 1
 469.559 728.962 436.401 748.953 370.089 760.656 c 2
 275.007 765.045 l 1
 228.197 765.045 l 1
 200.403 765.045 l 1
 168.222 762.119 l 1
 185.775 762.119 202.842 753.829 219.42 737.251 c 0
 235.998 722.623 244.287 704.094 244.287 681.665 c 2
 239.899 637.781 l 1
 236.974 627.054 227.221 616.326 210.644 605.6 c 1
 242.825 609.987 l 1
 342.295 629.004 l 1
 412.51 636.318 l 2
 441.766 642.169 459.807 657.284 466.633 681.665 c 2
1136.6 457.856 m 1
 1132.21 408.121 l 2
 1120.5 308.65 1091.98 216.007 1046.63 130.189 c 128
 1001.29 44.3711 927.902 1.46289 826.482 1.46289 c 0
 722.136 1.46289 633.88 47.7852 561.715 140.429 c 1
 541.236 104.347 509.055 69.7266 465.17 36.5703 c 0
 422.262 12.1904 375.452 0 324.741 0 c 0
 242.825 0 174.561 34.6201 119.949 103.858 c 0
 93.6191 138.966 74.3594 175.049 62.1689 212.106 c 128
 49.9795 249.163 43.8838 292.56 43.8838 342.295 c 256
 43.8838 392.03 52.6611 435.183 70.2148 471.753 c 128
 87.7676 508.323 118.975 545.138 163.834 582.194 c 1
 130.189 582.194 l 2
 118.486 582.194 108.247 585.12 99.4707 590.971 c 0
 87.7676 596.822 77.041 604.623 67.2891 614.376 c 0
 52.6611 630.954 45.3467 653.385 45.3467 681.665 c 0
 45.3467 721.647 64.3633 754.317 102.396 779.673 c 0
 145.305 801.127 196.502 811.854 255.99 811.854 c 2
 326.204 807.466 l 2
 386.666 801.614 428.113 793.813 450.542 784.061 c 0
 489.551 769.433 509.055 745.053 509.055 710.921 c 0
 509.055 664.111 490.525 630.954 453.468 611.45 c 0
 425.188 596.822 382.767 589.509 326.204 589.509 c 0
 257.939 589.509 202.598 571.468 160.177 535.385 c 128
 117.756 499.302 96.5449 453.468 96.5449 397.882 c 0
 96.5449 320.84 124.338 266.229 179.925 234.048 c 0
 221.858 215.519 283.296 206.255 364.237 206.255 c 0
 402.27 206.255 433.965 214.056 459.319 229.659 c 2
 479.799 244.287 l 1
 511.98 272.081 l 2
 520.757 279.882 529.778 291.342 539.042 306.457 c 128
 548.306 321.571 555.377 340.346 560.252 362.774 c 1
 560.252 348.146 564.396 332.787 572.687 316.696 c 128
 580.976 300.605 593.41 285.733 609.987 272.081 c 0
 631.442 258.429 659.235 244.774 693.367 231.122 c 0
 721.647 222.346 754.805 217.957 792.838 217.957 c 0
 855.251 217.957 904.011 228.684 939.117 250.139 c 128
 974.225 271.594 1012.26 316.452 1053.22 384.717 c 1
 1066.38 416.898 l 1
 1078.08 459.319 l 1
 1111.73 459.319 l 1
 1136.6 457.856 l 1
1034.2 365.7 m 1
 1048.83 389.104 1057.6 414.46 1060.53 441.766 c 2
 1066.38 550.013 l 1
 1066.38 583.657 l 1
 1066.38 602.674 l 1
 1066.38 618.765 l 1
 1066.38 669.963 l 1
 1060.53 712.384 l 2
 1060.53 732.863 1058.09 749.44 1053.22 762.119 c 2
 1051.27 771.871 1043.95 788.937 1031.27 813.316 c 0
 993.241 894.258 957.646 951.796 924.489 985.928 c 0
 910.837 1002.5 888.896 1020.55 858.664 1040.05 c 0
 836.234 1054.68 802.59 1074.18 757.73 1098.56 c 0
 731.4 1110.27 688.492 1125.87 629.004 1145.37 c 2
 567.566 1157.08 l 1
 500.277 1161.46 l 1
 441.766 1158.54 l 1
 406.658 1157.08 l 2
 393.98 1157.08 380.328 1155.12 365.7 1151.22 c 2
 299.387 1143.42 254.527 1135.13 231.122 1126.36 c 2
 201.866 1120.5 162.371 1102.95 112.636 1073.7 c 1
 84.8428 1113.19 l 1
 174.073 1157.08 l 2
 203.329 1169.75 235.023 1180.48 269.155 1189.26 c 2
 307.188 1196.57 l 1
 358.386 1205.35 l 1
 432.989 1208.27 l 1
 488.575 1208.27 l 2
 568.542 1208.27 635.343 1200.47 688.979 1184.87 c 0
 721.16 1177.07 748.953 1166.34 772.358 1152.69 c 0
 796.739 1140.98 828.432 1121.48 867.44 1094.17 c 0
 921.077 1058.09 962.035 1023.96 990.315 991.778 c 0
 1003.97 978.126 1017.86 960.572 1032.01 939.117 c 128
 1046.15 917.663 1061.02 892.795 1076.62 864.515 c 0
 1101.98 813.804 1119.53 764.558 1129.28 716.772 c 0
 1133.18 695.317 1136.6 669.718 1139.52 639.975 c 128
 1142.45 610.231 1143.91 579.269 1143.91 547.087 c 0
 1143.91 467.12 1133.18 402.757 1111.73 353.998 c 2
 1053.22 236.974 l 1
 1041.51 294.022 l 1
 1034.2 334.981 l 1
 1034.2 365.7 l 1
EndSplineSet
EndChar
StartChar: uni0DA0
Encoding: 3488 3488 7
Width: 1225
VWidth: 2047
Flags: HW
Fore
1119.04 558.79 m 1
 1119.04 530.996 l 1
 1119.04 510.518 l 1
 1116.12 492.964 l 1
 1116.12 482.237 1111.73 463.708 1102.95 437.377 c 0
 1094.17 400.32 1076.13 354.974 1048.83 301.337 c 0
 1028.35 256.478 998.605 213.082 959.597 171.147 c 0
 931.316 142.867 891.332 111.66 839.647 77.5283 c 0
 804.54 57.0488 766.752 41.4463 726.28 30.7188 c 128
 685.809 19.9912 640.706 14.6279 590.971 14.6279 c 0
 539.286 14.6279 489.062 19.0166 440.303 27.793 c 128
 391.543 36.5703 339.369 53.6357 283.783 78.9912 c 0
 238.924 96.5449 194.065 130.433 149.206 180.656 c 128
 104.347 230.878 75.5781 278.908 62.9004 324.741 c 1
 57.0488 397.882 l 1
 61.4375 475.41 l 2
 64.3633 495.89 70.2148 511.98 78.9912 523.683 c 0
 95.5693 547.087 111.66 566.104 127.264 580.731 c 0
 138.966 589.509 160.908 601.698 193.09 617.302 c 1
 86.3057 617.302 l 1
 62.9004 618.765 l 1
 55.0986 623.64 51.1982 631.93 51.1982 643.632 c 0
 51.1982 648.508 56.0742 653.871 65.8262 659.723 c 1
 95.082 664.111 l 1
 528.07 662.648 l 1
 528.07 677.276 523.195 692.392 513.442 707.995 c 0
 498.814 733.35 476.873 753.829 447.617 769.433 c 0
 432.013 778.21 417.874 784.305 405.195 787.718 c 128
 392.518 791.131 377.89 792.838 361.312 792.838 c 0
 329.13 792.838 307.675 784.548 296.948 767.97 c 1
 291.098 753.342 282.808 742.127 272.081 734.325 c 1
 232.585 716.772 l 1
 201.866 713.847 l 2
 190.164 713.847 179.68 716.041 170.416 720.429 c 128
 161.152 724.817 154.569 730.913 150.668 738.714 c 128
 146.768 746.516 143.842 756.755 141.892 769.433 c 1
 141.892 786.011 147.743 801.614 159.445 816.242 c 0
 172.123 828.921 189.188 839.16 210.644 846.961 c 2
 257.453 857.201 l 1
 296.948 863.052 l 1
 340.832 858.664 l 2
 359.361 858.664 382.767 852.325 411.047 839.647 c 2
 456.394 817.705 l 1
 504.666 786.986 l 2
 521.244 775.284 537.335 754.073 552.938 723.354 c 128
 568.542 692.636 576.343 657.284 576.343 617.302 c 1
 472.484 617.302 l 2
 396.419 617.302 341.319 613.4 307.188 605.6 c 0
 262.328 599.748 228.197 588.533 204.792 571.955 c 0
 183.337 559.276 168.709 546.6 160.908 533.922 c 1
 145.305 515.393 137.503 496.376 137.503 476.873 c 0
 137.503 429.088 157.495 386.666 197.478 349.609 c 0
 232.585 317.428 279.882 291.098 339.369 270.618 c 2
 383.254 257.453 l 1
 435.914 245.75 l 1
 479.799 239.899 l 1
 530.996 238.437 l 1
 580.731 239.899 l 1
 627.541 244.287 l 1
 699.219 254.527 l 2
 708.971 256.478 720.429 259.402 733.594 263.304 c 128
 746.76 267.205 760.169 272.081 773.821 277.932 c 2
 829.407 299.874 l 1
 857.201 311.576 l 1
 884.994 329.13 l 2
 923.026 348.634 955.695 376.184 983.002 411.778 c 128
 1010.31 447.372 1032.74 496.376 1050.29 558.79 c 1
 1119.04 558.79 l 1
1053.22 530.996 m 1
 1050.29 583.657 l 1
 1045.9 650.946 l 1
 1037.12 712.384 l 1
 1037.12 732.863 1034.69 749.44 1029.81 762.119 c 2
 1027.86 771.871 1020.55 788.937 1007.87 813.316 c 0
 969.836 894.258 934.242 951.796 901.085 985.928 c 0
 887.433 1002.5 865.49 1020.55 835.259 1040.05 c 0
 812.83 1054.68 779.186 1074.18 734.325 1098.56 c 0
 707.995 1110.27 665.087 1125.87 605.6 1145.37 c 2
 544.162 1157.08 l 1
 476.873 1161.46 l 1
 418.36 1158.54 l 1
 383.254 1157.08 l 2
 370.575 1157.08 356.923 1155.12 342.295 1151.22 c 2
 275.982 1143.42 231.122 1135.13 207.718 1126.36 c 2
 178.462 1120.5 138.966 1102.95 89.2305 1073.7 c 1
 61.4375 1113.19 l 1
 150.668 1157.08 l 2
 179.925 1169.75 211.619 1180.48 245.75 1189.26 c 2
 283.783 1196.57 l 1
 334.981 1205.35 l 1
 409.584 1208.27 l 1
 465.17 1208.27 l 2
 545.138 1208.27 611.938 1200.47 665.574 1184.87 c 0
 697.756 1177.07 725.549 1166.34 748.953 1152.69 c 0
 773.334 1140.98 805.027 1121.48 844.035 1094.17 c 0
 897.672 1058.09 938.631 1023.96 966.911 991.778 c 0
 980.563 978.126 994.46 960.572 1008.6 939.117 c 128
 1022.74 917.663 1037.61 892.795 1053.22 864.515 c 0
 1077.6 816.729 1095.64 766.994 1107.34 715.31 c 2
 1111.73 681.665 l 1
 1113.19 617.302 l 1
 1113.19 547.087 l 1
 1053.22 530.996 l 1
EndSplineSet
EndChar
StartChar: uni0DA1
Encoding: 3489 3489 8
Width: 1296
VWidth: 2047
Flags: HW
Fore
1031.27 605.6 m 1
 1035.66 626.078 l 1
 1035.66 643.632 1023.23 658.747 998.361 671.425 c 128
 973.493 684.104 943.993 690.441 909.861 690.441 c 0
 886.457 690.441 865.002 686.298 845.498 678.008 c 128
 825.995 669.718 816.242 657.284 816.242 640.706 c 2
 817.705 627.541 l 1
 823.557 605.112 838.185 584.145 861.589 564.641 c 0
 884.019 550.013 908.398 542.699 934.729 542.699 c 0
 956.184 542.699 975.443 547.818 992.51 558.059 c 128
 1009.58 568.298 1022.5 584.145 1031.27 605.6 c 1
817.705 674.351 m 1
 874.754 674.351 l 2
 902.061 674.351 919.614 673.375 927.415 671.425 c 1
 936.192 671.425 945.944 670.938 956.671 669.963 c 128
 967.398 668.986 978.613 667.037 990.315 664.111 c 2
 1000.56 662.648 l 1
 1042.98 652.409 l 1
 1053.22 702.145 l 1
 1053.22 726.524 1044.93 748.709 1028.35 768.701 c 128
 1011.77 788.693 983.488 803.077 943.506 811.854 c 2
 917.176 814.779 l 2
 850.862 814.779 817.705 767.97 817.705 674.351 c 1
766.507 675.813 m 1
 766.507 707.995 768.701 730.669 773.09 743.834 c 128
 777.479 756.999 787.962 774.309 804.54 795.764 c 1
 780.159 786.986 761.632 774.797 748.953 759.193 c 128
 736.275 743.59 723.11 715.796 709.458 675.813 c 1
 766.507 675.813 l 1
646.558 0 m 0
 488.575 0 352.535 36.5703 238.437 109.71 c 0
 110.686 191.627 46.8096 299.387 46.8096 432.989 c 0
 46.8096 490.525 65.3389 539.286 102.396 579.269 c 128
 139.453 619.252 188.214 645.582 248.676 658.26 c 2
 285.246 664.111 l 1
 326.204 669.963 l 1
 421.286 672.888 l 1
 481.261 671.425 l 1
 547.087 671.425 l 1
 547.087 696.78 540.261 719.211 526.608 738.714 c 1
 517.831 756.268 500.277 770.896 473.947 782.598 c 2
 444.691 791.375 l 1
 422.749 794.301 l 2
 408.121 794.301 389.104 789.912 365.7 781.135 c 2
 332.056 763.582 l 1
 270.618 728.475 l 1
 244.287 718.234 l 2
 229.659 712.384 216.981 709.458 206.255 709.458 c 1
 175.536 713.847 l 1
 169.685 716.772 162.371 724.086 153.594 735.788 c 1
 147.743 747.491 143.354 760.656 140.429 775.284 c 1
 140.429 800.639 160.908 825.02 201.866 848.424 c 0
 242.825 868.903 289.635 879.143 342.295 879.143 c 2
 374.477 877.68 l 2
 395.932 877.68 416.898 874.754 437.377 868.903 c 0
 455.906 865.002 474.435 857.688 492.964 846.961 c 0
 519.294 836.234 545.138 811.367 570.492 772.358 c 0
 585.12 744.078 592.434 714.822 592.434 684.591 c 2
 588.046 627.541 l 1
 551.476 627.541 l 1
 523.683 627.541 l 1
 501.74 627.541 l 1
 484.187 627.541 l 1
 434.451 627.541 l 1
 386.18 629.004 l 1
 370.089 629.004 l 2
 303.775 629.004 246.237 613.889 197.478 583.657 c 0
 142.867 549.525 115.562 504.179 115.562 447.617 c 0
 115.562 376.427 144.33 322.303 201.866 285.246 c 0
 247.7 255.99 315.478 235.511 405.195 223.809 c 2
 504.666 216.494 l 1
 640.706 213.568 l 2
 830.87 213.568 969.836 231.122 1057.6 266.229 c 0
 1131.72 295.485 1168.78 336.931 1168.78 390.567 c 0
 1168.78 443.229 1163.17 484.431 1151.96 514.174 c 128
 1140.74 543.917 1117.58 570.005 1082.47 592.434 c 1
 1070.77 560.252 1052.24 534.409 1026.89 514.905 c 0
 1001.53 498.328 973.249 490.038 942.043 490.038 c 0
 903.035 490.038 867.928 502.228 836.722 526.608 c 0
 805.516 549.037 784.061 584.145 772.358 631.93 c 1
 669.963 631.93 l 1
 669.963 678.739 677.276 716.772 691.904 746.028 c 0
 715.31 789.912 760.169 823.557 826.482 846.961 c 1
 887.92 902.548 978.126 955.695 1097.1 1006.41 c 0
 1107.83 1012.26 1118.55 1022.5 1129.28 1037.12 c 1
 1135.13 1051.75 1139.52 1070.77 1142.45 1094.17 c 0
 1142.45 1114.65 1148.3 1133.67 1160 1151.22 c 128
 1171.7 1168.78 1188.77 1177.55 1211.2 1177.55 c 0
 1228.75 1177.55 1242.4 1172.92 1252.16 1163.66 c 128
 1261.91 1154.39 1269.22 1140.01 1274.1 1120.5 c 1
 1269.71 1082.47 l 2
 1269.71 1076.62 1264.83 1068.33 1255.08 1057.6 c 0
 1219.98 1023.47 1172.68 992.754 1113.19 965.448 c 0
 997.143 909.861 927.902 871.829 905.474 851.35 c 1
 939.117 854.275 l 1
 975.688 849.887 l 1
 1002.02 841.11 l 1
 1022.5 832.333 l 2
 1080.03 800.151 1108.8 752.854 1108.8 690.441 c 2
 1105.88 665.574 l 1
 1098.56 634.855 l 1
 1156.1 590.971 1192.67 549.037 1208.27 509.055 c 0
 1219.98 479.799 1225.83 428.601 1225.83 355.46 c 0
 1225.83 246.237 1162.93 156.52 1037.12 86.3057 c 0
 926.928 28.7686 796.739 0 646.558 0 c 0
EndSplineSet
EndChar
StartChar: uni0DA2
Encoding: 3490 3490 9
Width: 1296
VWidth: 2047
Flags: HW
Fore
832.333 801.614 m 1
 830.87 785.523 l 2
 830.87 767.97 837.209 752.366 849.887 738.714 c 0
 866.465 720.185 886.457 710.921 909.861 710.921 c 0
 929.365 710.921 945.944 716.285 959.597 727.012 c 128
 973.249 737.738 982.026 752.854 985.928 772.358 c 2
 987.39 786.986 l 2
 987.39 807.466 979.832 825.751 964.717 841.842 c 128
 949.602 857.933 931.316 865.978 909.861 865.978 c 0
 869.879 865.978 844.035 844.522 832.333 801.614 c 1
1063.46 636.318 m 0
 1113.19 604.137 1148.79 572.442 1170.24 541.236 c 0
 1195.59 504.179 1208.27 457.369 1208.27 400.808 c 0
 1208.27 277.932 1148.3 178.462 1028.35 102.396 c 0
 917.176 34.1318 789.912 0 646.558 0 c 0
 488.575 0 352.535 36.5703 238.437 109.71 c 0
 110.686 191.627 46.8096 299.387 46.8096 432.989 c 0
 46.8096 490.525 65.3389 539.286 102.396 579.269 c 128
 139.453 619.252 188.214 645.582 248.676 658.26 c 2
 285.246 664.111 l 1
 326.204 669.963 l 1
 421.286 672.888 l 1
 481.261 671.425 l 1
 547.087 671.425 l 1
 544.162 701.657 537.335 724.086 526.608 738.714 c 1
 517.831 756.268 500.277 770.896 473.947 782.598 c 2
 444.691 791.375 l 1
 422.749 794.301 l 2
 408.121 794.301 389.104 789.912 365.7 781.135 c 2
 332.056 763.582 l 1
 270.618 728.475 l 1
 244.287 718.234 l 2
 229.659 712.384 216.981 709.458 206.255 709.458 c 1
 175.536 713.847 l 1
 169.685 716.772 162.371 724.086 153.594 735.788 c 1
 147.743 747.491 143.354 760.656 140.429 775.284 c 1
 140.429 800.639 160.908 825.02 201.866 848.424 c 0
 242.825 868.903 289.635 879.143 342.295 879.143 c 2
 374.477 877.68 l 2
 395.932 877.68 416.898 874.754 437.377 868.903 c 0
 455.906 865.002 474.435 857.688 492.964 846.961 c 0
 519.294 836.234 545.138 811.367 570.492 772.358 c 1
 585.12 728.475 l 1
 589.509 687.516 l 1
 588.046 658.26 l 1
 588.046 627.541 l 1
 551.476 627.541 l 1
 523.683 627.541 l 1
 501.74 627.541 l 1
 484.187 627.541 l 1
 434.451 627.541 l 1
 386.18 629.004 l 1
 370.089 629.004 l 2
 303.775 629.004 246.237 613.889 197.478 583.657 c 0
 142.867 549.525 115.562 504.179 115.562 447.617 c 0
 115.562 376.427 144.33 322.303 201.866 285.246 c 0
 247.7 255.99 315.478 235.511 405.195 223.809 c 2
 504.666 216.494 l 1
 640.706 213.568 l 2
 746.028 213.568 822.094 216.981 868.903 223.809 c 0
 956.671 232.585 1023.47 252.089 1069.31 282.32 c 0
 1125.87 318.403 1154.15 367.65 1154.15 430.063 c 0
 1154.15 475.897 1135.13 518.807 1097.1 558.79 c 0
 1066.87 587.07 1022.98 609.5 965.448 626.078 c 1
 901.085 627.541 l 1
 800.151 629.004 l 1
 703.606 629.004 l 1
 653.871 629.004 l 1
 653.871 694.343 670.938 749.93 705.069 795.764 c 0
 734.325 836.722 770.408 863.539 813.316 876.217 c 1
 826.482 909.861 l 1
 844.035 947.895 l 2
 862.564 986.903 882.068 1019.08 902.548 1044.44 c 0
 936.679 1089.3 972.762 1120.02 1010.79 1136.6 c 2
 1075.16 1162.93 l 1
 1105.88 1170.24 l 1
 1135.13 1173.17 l 2
 1164.39 1173.17 1190.23 1163.9 1212.66 1145.37 c 0
 1226.31 1133.67 1233.14 1118.55 1233.14 1100.03 c 0
 1233.14 1085.4 1228.51 1071.99 1219.24 1059.8 c 128
 1209.98 1047.61 1194.62 1036.64 1173.17 1026.89 c 1
 1072.23 1012.26 l 1
 1026.89 1003.48 l 1
 1020.06 1003.48 1012.75 1001.53 1004.94 997.63 c 2
 980.076 987.39 l 2
 945.944 976.663 921.077 963.985 905.474 949.357 c 0
 887.92 935.705 871.829 914.737 857.201 886.457 c 1
 884.994 895.233 l 1
 917.176 898.159 l 2
 941.556 898.159 965.936 885.97 990.315 861.589 c 0
 1011.77 837.209 1022.5 810.878 1022.5 782.598 c 0
 1022.5 768.945 1020.55 757.73 1016.65 748.953 c 0
 1007.87 729.45 995.68 710.921 980.076 693.367 c 1
 965.448 681.665 944.481 675.813 917.176 675.813 c 2
 899.622 675.813 l 2
 893.771 675.813 893.771 675.813 887.92 675.813 c 1
 883.044 677.764 879.63 678.739 877.68 678.739 c 1
 844.035 697.756 l 2
 831.357 707.508 821.118 720.185 813.316 735.788 c 128
 805.516 751.393 801.614 768.945 801.614 788.449 c 0
 801.614 804.053 804.053 818.192 808.929 830.87 c 1
 784.548 819.168 761.632 801.127 740.177 776.747 c 1
 716.772 728.475 l 2
 710.921 711.896 707.995 693.854 707.995 674.351 c 1
 803.077 674.351 l 1
 889.383 672.888 l 1
 930.341 671.425 l 2
 940.58 671.425 940.58 671.425 948.626 671.425 c 128
 953.99 671.425 963.985 669.476 978.613 665.574 c 2
 1011.77 662.648 1040.05 652.896 1063.46 636.318 c 0
EndSplineSet
EndChar
StartChar: uni0DA4
Encoding: 3492 3492 10
Width: 1894
VWidth: 2047
Flags: HW
Fore
178.462 247.213 m 1
 196.016 247.213 226.734 239.899 270.618 225.271 c 2
 292.56 219.42 l 1
 326.204 213.568 l 1
 341.809 213.568 351.072 214.545 353.998 216.494 c 1
 378.378 222.346 405.683 232.585 435.914 247.213 c 0
 452.492 257.939 470.534 278.419 490.038 308.65 c 2
 509.055 345.221 l 1
 511.98 353.998 513.442 366.188 513.442 381.791 c 1
 517.831 349.609 l 1
 541.236 308.65 l 2
 557.813 281.345 577.806 259.402 601.211 242.825 c 0
 626.565 227.221 654.848 219.42 686.053 219.42 c 0
 733.839 219.42 775.284 233.561 810.392 261.841 c 128
 845.498 290.121 863.052 326.204 863.052 370.089 c 0
 863.052 422.749 845.498 471.997 810.392 517.831 c 0
 784.061 550.013 738.227 582.682 672.888 615.839 c 0
 621.203 642.169 575.367 655.334 535.385 655.334 c 0
 508.079 655.334 477.849 650.459 444.691 640.706 c 1
 387.155 594.872 333.031 541.236 282.32 479.799 c 0
 218.933 402.757 164.32 320.354 118.486 232.585 c 1
 138.966 239.899 l 1
 178.462 247.213 l 1
1486.21 661.186 m 2
 1547.64 662.648 l 1
 1592.99 665.574 l 1
 1660.28 661.186 l 1
 1704.16 656.797 l 1
 1739.27 650.946 l 1
 1736.34 669.963 l 1
 1730.49 696.293 l 2
 1721.72 725.549 1701.72 749.93 1670.52 769.433 c 0
 1661.74 774.309 1652.71 777.965 1643.46 780.404 c 128
 1634.2 782.842 1617.61 786.499 1593.72 791.375 c 128
 1569.83 796.25 1537.89 798.688 1497.91 798.688 c 0
 1476.45 798.688 1446.22 784.061 1407.21 754.805 c 128
 1368.21 725.549 1339.92 710.921 1322.37 710.921 c 0
 1309.69 710.921 1297.99 716.285 1287.26 727.012 c 2
 1265.32 753.342 l 1
 1255.57 769.92 1250.69 786.986 1250.69 804.54 c 1
 1215.59 817.218 1169.26 827.945 1111.73 836.722 c 2
 1022.5 844.035 l 1
 914.25 846.961 l 2
 826.482 846.961 758.706 837.209 710.921 817.705 c 0
 666.062 804.053 596.335 760.169 501.74 686.053 c 1
 552.938 684.591 l 2
 568.542 684.591 582.682 682.641 595.359 678.739 c 2
 618.765 675.813 647.533 666.55 681.665 650.946 c 0
 757.73 618.765 816.729 575.856 858.664 522.22 c 0
 904.498 464.684 927.415 398.857 927.415 324.741 c 0
 927.415 282.808 921.077 239.899 908.398 196.016 c 0
 896.696 149.206 876.704 109.71 848.424 77.5283 c 0
 827.945 48.2725 807.953 28.0371 788.449 16.8223 c 128
 768.945 5.60742 739.201 0 699.219 0 c 0
 678.739 0 645.095 14.6279 598.285 43.8838 c 0
 542.699 78.9912 514.905 114.099 514.905 149.206 c 1
 514.905 114.099 498.328 79.4785 465.17 45.3467 c 0
 432.013 15.1152 393.98 0 351.072 0 c 0
 328.643 0 303.287 12.1904 275.007 36.5703 c 0
 245.75 63.876 217.957 98.4951 191.627 140.429 c 0
 184.8 154.081 176.268 166.272 166.027 176.999 c 128
 155.788 187.726 143.842 193.577 130.189 194.553 c 1
 105.321 185.775 l 1
 99.4707 185.775 93.6191 181.387 87.7676 172.61 c 1
 76.0654 140.429 l 1
 36.5703 149.206 l 1
 57.0488 204.792 76.5527 252.577 95.082 292.56 c 128
 113.611 332.543 134.577 370.089 157.982 405.195 c 0
 223.321 506.616 318.891 605.6 444.691 702.145 c 1
 444.691 712.871 438.84 730.424 427.138 754.805 c 128
 415.436 779.186 398.369 795.764 375.939 804.54 c 1
 351.56 807.466 329.617 799.176 310.113 779.673 c 2
 276.469 741.64 l 2
 271.594 736.764 267.205 728.962 263.304 718.234 c 1
 257.453 672.888 l 1
 257.453 649.483 l 1
 257.453 631.93 l 1
 254.527 611.45 l 1
 254.527 603.649 249.651 594.384 239.899 583.657 c 0
 222.346 561.229 208.205 546.111 197.478 538.311 c 0
 175.049 525.633 154.569 519.294 136.04 519.294 c 0
 113.611 519.294 94.1064 529.047 77.5283 548.55 c 0
 61.9248 570.005 54.124 593.41 54.124 618.765 c 0
 54.124 685.077 77.5283 744.565 124.338 797.226 c 128
 171.147 849.887 227.221 876.217 292.56 876.217 c 2
 317.428 874.754 l 2
 327.18 874.754 336.444 872.805 345.221 868.903 c 2
 366.676 865.978 385.935 860.126 403.001 851.35 c 128
 420.068 842.573 437.377 826.969 454.931 804.54 c 0
 460.782 795.764 465.17 782.354 468.096 764.312 c 128
 471.021 746.272 474.923 734.325 479.799 728.475 c 1
 538.311 781.135 598.285 819.168 659.723 842.573 c 128
 721.16 865.978 801.614 882.068 901.085 890.846 c 0
 986.903 890.846 1069.31 881.093 1148.3 861.589 c 2
 1263.86 833.796 l 1
 1278.49 850.374 1302.38 863.539 1335.54 873.292 c 2
 1388.2 883.531 l 1
 1446.71 887.92 l 2
 1509.13 887.92 1565.45 877.193 1615.66 855.738 c 128
 1665.88 834.283 1700.26 814.293 1718.79 795.764 c 0
 1750.97 769.433 1771.45 733.839 1780.23 688.979 c 2
 1781.69 664.111 l 1
 1780.23 631.93 l 1
 1778.76 599.748 l 1
 1734.88 607.062 l 1
 1685.15 609.987 l 1
 1594.45 607.062 l 1
 1522.77 604.137 l 2
 1450.61 604.137 1388.93 592.921 1337.73 570.492 c 128
 1286.53 548.062 1245.82 506.129 1215.59 444.691 c 0
 1198.03 403.732 1189.26 366.188 1189.26 332.056 c 0
 1189.26 306.701 1195.11 273.788 1206.81 233.316 c 128
 1218.51 192.846 1250.21 157.738 1301.89 127.995 c 128
 1353.58 98.251 1420.87 74.6025 1503.76 57.0488 c 2
 1547.64 52.6611 l 1
 1576.9 54.124 l 2
 1592.51 54.124 1608.1 56.5615 1623.71 61.4375 c 2
 1674.91 71.6768 l 1
 1726.1 87.7676 l 1
 1740.73 61.4375 l 1
 1628.1 26.3301 l 2
 1569.58 8.77637 1504.74 0 1433.54 0 c 0
 1349.68 0 1257.52 27.3057 1157.08 81.917 c 0
 1025.42 149.206 959.597 230.146 959.597 324.741 c 0
 959.597 426.162 993.241 505.642 1060.53 563.178 c 0
 1143.42 628.517 1285.31 661.186 1486.21 661.186 c 2
1679.29 71.6768 m 1
 1707.09 80.4541 l 1
 1733.42 90.6934 l 1
 1748.05 64.3633 l 1
 1718.79 54.124 l 1
 1692.46 42.4209 l 1
 1671.98 30.7188 l 1
 1650.04 19.0166 l 1
 1636.87 11.7021 l 1
 1625.17 5.85156 l 1
 1591.53 -13.165 l 1
 1582.75 -20.9668 1573.97 -31.2061 1565.2 -43.8838 c 1
 1549.11 -78.9912 l 1
 1543.25 -115.562 l 1
 1544.72 -133.115 l 1
 1549.11 -152.131 l 2
 1552.03 -166.759 1557.4 -178.948 1565.2 -188.701 c 128
 1572.99 -198.454 1584.7 -208.205 1600.3 -217.957 c 2
 1606.15 -220.883 l 1
 1614.93 -225.271 l 1
 1635.41 -231.122 l 1
 1658.82 -234.048 l 1
 1676.37 -232.585 l 2
 1683.2 -232.585 1688.55 -231.609 1692.46 -229.659 c 2
 1702.7 -225.271 l 1
 1714.4 -222.346 l 1
 1723.18 -219.42 l 1
 1733.42 -216.494 l 1
 1742.2 -212.106 l 1
 1750.97 -207.718 l 1
 1750.97 -241.362 l 1
 1742.2 -245.75 l 1
 1733.42 -251.602 l 1
 1717.33 -261.841 l 1
 1698.31 -272.081 l 1
 1667.59 -285.246 l 1
 1636.87 -295.485 l 1
 1604.69 -301.337 l 1
 1573.97 -304.263 l 2
 1552.51 -304.263 1535.94 -302.312 1524.24 -298.411 c 128
 1512.54 -294.51 1496.44 -284.759 1475.96 -269.155 c 2
 1471.58 -266.229 l 1
 1468.65 -261.841 l 1
 1442.32 -234.048 l 1
 1427.69 -198.94 l 1
 1426.23 -190.164 l 1
 1426.23 -184.312 l 1
 1427.69 -163.834 l 1
 1433.54 -146.28 l 1
 1440.86 -125.801 l 1
 1451.1 -106.784 l 2
 1459.87 -85.3301 1474.5 -62.9004 1494.98 -39.4951 c 2
 1524.24 -11.7021 l 1
 1554.96 10.2393 l 1
 1573.97 20.4795 l 1
 1619.32 43.8838 l 1
 1679.29 71.6768 l 1
EndSplineSet
EndChar
StartChar: uni0DA5
Encoding: 3493 3493 11
Width: 1894
VWidth: 2047
Flags: HW
Fore
185.775 522.22 m 0
 198.454 547.574 212.106 569.029 226.734 586.583 c 128
 241.362 604.137 262.328 619.252 289.635 631.93 c 1
 381.791 655.334 l 2
 420.799 664.111 448.593 679.715 465.17 702.145 c 0
 475.897 714.822 481.261 728.962 481.261 744.565 c 0
 481.261 761.144 473.947 777.723 459.319 794.301 c 128
 444.691 810.878 429.088 821.606 412.51 826.482 c 2
 380.328 833.796 l 1
 352.535 835.259 l 2
 285.246 835.259 228.928 803.809 183.581 740.908 c 128
 138.234 678.008 115.562 605.112 115.562 522.22 c 2
 115.562 494.427 l 1
 119.949 457.856 l 1
 125.801 432.989 l 1
 136.04 406.658 l 1
 153.594 364.237 l 1
 153.594 401.294 155.057 429.819 157.982 449.811 c 128
 160.908 469.803 170.172 493.939 185.775 522.22 c 0
1484.74 661.186 m 2
 1535.94 664.111 l 1
 1578.36 667.037 l 2
 1632.97 667.037 1685.63 661.673 1736.34 650.946 c 1
 1733.42 669.963 l 1
 1727.57 696.293 l 2
 1718.79 725.549 1698.79 749.93 1667.59 769.433 c 0
 1658.82 774.309 1649.79 777.965 1640.53 780.404 c 128
 1631.27 782.842 1614.68 786.499 1590.79 791.375 c 128
 1566.91 796.25 1534.96 798.688 1494.98 798.688 c 0
 1473.52 798.688 1443.3 784.061 1404.29 754.805 c 128
 1365.28 725.549 1337 710.921 1319.45 710.921 c 0
 1311.64 710.921 1300.92 715.31 1287.26 724.086 c 1
 1263.86 748.953 l 1
 1249.23 772.358 l 1
 1202.42 784.061 1161.95 789.912 1127.82 789.912 c 2
 1059.07 786.986 l 1
 990.315 784.061 l 2
 917.176 784.061 847.205 755.049 780.404 697.024 c 128
 713.603 638.999 680.202 571.955 680.202 495.89 c 1
 713.847 494.427 l 1
 759.193 482.724 l 2
 806.003 471.021 843.549 453.955 871.829 431.526 c 0
 906.936 405.195 924.489 372.038 924.489 332.056 c 0
 924.489 237.461 881.824 158.47 796.494 95.082 c 128
 711.165 31.6943 612.913 0 501.74 0 c 0
 378.865 0 273.788 44.1279 186.507 132.384 c 128
 99.2266 220.639 55.5859 325.229 55.5859 446.154 c 0
 55.5859 556.352 79.9668 655.334 128.727 743.103 c 0
 183.337 841.598 253.064 890.846 337.907 890.846 c 0
 358.386 890.846 371.064 889.869 375.939 887.92 c 2
 427.625 879.143 468.583 864.027 498.814 842.573 c 0
 535.872 817.218 554.401 783.085 554.401 740.177 c 256
 554.401 697.269 522.22 658.747 457.856 624.615 c 0
 308.65 557.327 229.173 500.765 219.42 454.931 c 2
 212.106 412.51 l 1
 210.644 378.865 l 2
 210.644 354.484 215.519 329.617 225.271 304.263 c 0
 242.825 251.602 278.419 213.082 332.056 188.701 c 0
 361.312 175.049 417.385 162.371 500.277 150.668 c 2
 519.294 149.206 l 1
 539.773 149.206 l 2
 615.839 149.206 685.809 168.222 749.685 206.255 c 128
 813.562 244.287 845.498 292.56 845.498 351.072 c 0
 845.498 368.626 839.403 383.74 827.214 396.419 c 128
 815.023 409.097 799.176 420.799 779.673 431.526 c 1
 735.788 446.154 l 1
 694.83 450.542 l 1
 667.037 449.08 l 1
 630.467 443.229 l 1
 630.467 563.178 663.38 666.062 729.206 751.879 c 128
 795.032 837.697 879.143 880.605 981.539 880.605 c 0
 1007.87 880.605 1007.87 880.605 1025.42 880.605 c 128
 1037.12 880.605 1057.6 878.655 1086.86 874.754 c 0
 1120.99 871.829 1154.15 865.49 1186.33 855.738 c 2
 1262.4 836.722 l 1
 1277.02 854.275 1300.18 867.44 1331.88 876.217 c 128
 1363.57 884.994 1400.39 889.383 1442.32 889.383 c 0
 1499.85 889.383 1554.22 879.143 1605.42 858.664 c 128
 1656.62 838.185 1693.44 817.218 1715.86 795.764 c 0
 1748.05 769.433 1768.53 733.839 1777.3 688.979 c 2
 1778.76 664.111 l 1
 1777.3 631.93 l 1
 1775.84 599.748 l 1
 1757.31 603.649 1737.08 607.062 1715.13 609.987 c 128
 1693.19 612.913 1672.96 614.376 1654.43 614.376 c 2
 1595.92 611.45 l 1
 1562.27 609.987 l 2
 1550.57 609.987 1550.57 609.987 1538.87 609.987 c 1
 1531.07 607.062 1525.7 605.112 1522.77 604.137 c 0
 1441.83 592.434 1379.91 577.806 1337 560.252 c 0
 1278.49 533.922 1236.07 492.477 1209.74 435.914 c 0
 1192.18 394.956 1183.41 357.41 1183.41 323.279 c 0
 1183.41 297.924 1189.26 265.011 1200.96 224.54 c 128
 1212.66 184.068 1244.36 148.961 1296.04 119.218 c 128
 1347.73 89.4746 1415.01 65.8262 1497.91 48.2725 c 2
 1541.79 43.8838 l 1
 1571.05 45.3467 l 2
 1586.66 45.3467 1602.25 47.7852 1617.86 52.6611 c 2
 1669.05 62.9004 l 1
 1720.25 78.9912 l 1
 1734.88 52.6611 l 1
 1622.25 17.5537 l 2
 1563.73 0 1498.89 -8.77637 1427.69 -8.77637 c 0
 1343.83 -8.77637 1251.67 18.5293 1151.22 73.1396 c 0
 1019.57 140.429 953.746 221.37 953.746 315.965 c 0
 953.746 424.212 986.414 505.153 1051.75 558.79 c 0
 1134.65 627.054 1278.97 661.186 1484.74 661.186 c 2
1679.29 71.6768 m 1
 1707.09 80.4541 l 1
 1733.42 90.6934 l 1
 1748.05 64.3633 l 1
 1718.79 54.124 l 1
 1692.46 42.4209 l 1
 1671.98 30.7188 l 1
 1650.04 19.0166 l 1
 1636.87 11.7021 l 1
 1625.17 5.85156 l 1
 1591.53 -13.165 l 1
 1582.75 -20.9668 1573.97 -31.2061 1565.2 -43.8838 c 1
 1549.11 -78.9912 l 1
 1543.25 -115.562 l 1
 1544.72 -133.115 l 1
 1549.11 -152.131 l 2
 1552.03 -166.759 1557.4 -178.948 1565.2 -188.701 c 128
 1572.99 -198.454 1584.7 -208.205 1600.3 -217.957 c 2
 1606.15 -220.883 l 1
 1614.93 -225.271 l 1
 1635.41 -231.122 l 1
 1658.82 -234.048 l 1
 1676.37 -232.585 l 2
 1683.2 -232.585 1688.55 -231.609 1692.46 -229.659 c 2
 1702.7 -225.271 l 1
 1714.4 -222.346 l 1
 1723.18 -219.42 l 1
 1733.42 -216.494 l 1
 1742.2 -212.106 l 1
 1750.97 -207.718 l 1
 1750.97 -241.362 l 1
 1742.2 -245.75 l 1
 1733.42 -251.602 l 1
 1717.33 -261.841 l 1
 1698.31 -272.081 l 1
 1667.59 -285.246 l 1
 1636.87 -295.485 l 1
 1604.69 -301.337 l 1
 1573.97 -304.263 l 2
 1552.51 -304.263 1535.94 -302.312 1524.24 -298.411 c 128
 1512.54 -294.51 1496.44 -284.759 1475.96 -269.155 c 2
 1471.58 -266.229 l 1
 1468.65 -261.841 l 1
 1442.32 -234.048 l 1
 1427.69 -198.94 l 1
 1426.23 -190.164 l 1
 1426.23 -184.312 l 1
 1427.69 -163.834 l 1
 1433.54 -146.28 l 1
 1440.86 -125.801 l 1
 1451.1 -106.784 l 2
 1459.87 -85.3301 1474.5 -62.9004 1494.98 -39.4951 c 2
 1524.24 -11.7021 l 1
 1554.96 10.2393 l 1
 1573.97 20.4795 l 1
 1619.32 43.8838 l 1
 1679.29 71.6768 l 1
EndSplineSet
EndChar
StartChar: uni0DA7
Encoding: 3495 3495 12
Width: 1225
VWidth: 2047
Flags: HW
Fore
204.792 615.839 m 0
 192.114 604.137 176.512 583.17 157.982 552.938 c 1
 142.379 516.855 134.577 485.649 134.577 459.319 c 0
 134.577 394.956 163.347 344.733 220.883 308.65 c 0
 291.098 264.767 402.757 242.825 555.864 242.825 c 0
 632.905 242.825 700.682 252.089 759.193 270.618 c 0
 794.301 279.395 836.234 298.898 884.994 329.13 c 0
 921.077 348.634 954.232 376.427 984.465 412.51 c 0
 995.191 426.162 1006.89 445.423 1019.57 470.29 c 128
 1032.25 495.158 1042.98 523.683 1051.75 555.864 c 1
 1120.5 555.864 l 1
 1120.5 511.98 1114.65 472.484 1102.95 437.377 c 0
 1094.17 400.32 1076.13 354.974 1048.83 301.337 c 0
 1038.1 276.956 1026.15 254.771 1012.99 234.779 c 128
 999.824 214.787 983.002 194.553 962.522 174.073 c 0
 926.439 137.016 884.994 104.834 838.185 77.5283 c 0
 802.102 57.0488 756.755 37.5449 702.145 19.0166 c 0
 648.508 6.33887 601.211 0 560.252 0 c 0
 455.906 0 353.511 27.3057 253.064 81.917 c 0
 126.288 147.256 62.9004 228.197 62.9004 324.741 c 2
 62.9004 370.089 l 1
 64.3633 466.633 l 2
 64.3633 481.261 65.3389 490.525 67.2891 494.427 c 2
 78.9912 523.683 l 2
 83.8672 534.409 89.9619 547.087 97.2764 561.715 c 128
 104.59 576.343 114.099 591.947 125.801 608.524 c 0
 143.354 631.93 163.347 651.434 185.775 667.037 c 0
 231.609 696.293 285.733 710.921 348.146 710.921 c 2
 393.493 710.921 l 1
 424.212 709.458 l 1
 457.856 705.069 l 1
 495.89 696.293 l 1
 503.69 696.293 511.004 694.343 517.831 690.441 c 2
 541.236 680.202 l 1
 541.236 643.632 l 1
 491.501 662.161 439.815 671.425 386.18 671.425 c 0
 339.369 671.425 299.874 665.574 267.692 653.871 c 0
 243.312 645.095 222.346 632.417 204.792 615.839 c 0
1051.75 536.848 m 1
 1060.53 582.194 l 1
 1064.92 614.376 l 1
 1066.38 648.021 l 1
 1061.99 709.458 l 2
 1061.99 729.938 1059.55 746.516 1054.68 759.193 c 2
 1052.73 768.945 1045.42 786.011 1032.74 810.392 c 0
 1022.98 833.796 1013.96 853.3 1005.67 868.903 c 128
 997.386 884.507 987.877 900.109 977.15 915.713 c 0
 959.597 944.969 942.043 968.374 924.489 985.928 c 0
 910.837 1002.5 888.896 1020.55 858.664 1040.05 c 0
 836.234 1054.68 802.59 1074.18 757.73 1098.56 c 0
 731.4 1110.27 688.492 1125.87 629.004 1145.37 c 2
 567.566 1157.08 l 1
 500.277 1161.46 l 1
 441.766 1158.54 l 1
 406.658 1157.08 l 2
 393.98 1157.08 380.328 1155.12 365.7 1151.22 c 2
 299.387 1143.42 254.527 1135.13 231.122 1126.36 c 2
 201.866 1120.5 162.371 1102.95 112.636 1073.7 c 1
 84.8428 1113.19 l 1
 174.073 1157.08 l 2
 203.329 1169.75 235.023 1180.48 269.155 1189.26 c 2
 307.188 1196.57 l 1
 358.386 1205.35 l 1
 432.989 1208.27 l 1
 488.575 1208.27 l 2
 568.542 1208.27 635.343 1200.47 688.979 1184.87 c 0
 721.16 1177.07 748.953 1166.34 772.358 1152.69 c 0
 796.739 1140.98 828.432 1121.48 867.44 1094.17 c 0
 920.102 1059.07 960.815 1025.67 989.584 993.973 c 128
 1018.35 962.278 1048.34 917.176 1079.55 858.664 c 2
 1107.34 803.077 l 2
 1123.92 766.994 1132.21 736.764 1132.21 712.384 c 2
 1127.82 618.765 l 2
 1127.82 600.235 1126.84 587.07 1124.89 579.269 c 2
 1113.19 529.533 l 1
 1051.75 536.848 l 1
EndSplineSet
EndChar
StartChar: uni0DA8
Encoding: 3496 3496 13
Width: 1258
VWidth: 2047
Flags: HW
Fore
633.393 111.173 m 2
 615.839 138.966 l 1
 598.285 169.685 l 1
 588.046 144.817 l 1
 567.566 114.099 l 2
 514.905 39.0078 446.154 1.46289 361.312 1.46289 c 0
 283.296 1.46289 212.593 35.1074 149.206 102.396 c 0
 99.4707 159.933 64.8506 237.949 45.3467 336.444 c 2
 40.958 397.882 l 2
 40.958 440.79 46.8096 480.285 58.5117 516.368 c 128
 70.2148 552.451 88.7432 586.583 114.099 618.765 c 0
 163.834 681.178 227.71 724.086 305.726 747.491 c 2
 359.849 756.268 l 1
 412.51 760.656 l 1
 412.51 728.475 l 1
 395.932 728.475 382.035 727.743 370.819 726.28 c 128
 359.604 724.817 351.56 723.599 346.684 722.623 c 128
 341.809 721.647 331.08 718.722 314.502 713.847 c 0
 282.32 708.971 241.849 683.128 193.09 636.318 c 0
 129.701 577.806 98.0078 512.956 98.0078 441.766 c 0
 98.0078 359.849 137.991 294.998 217.957 247.213 c 2
 282.32 217.957 l 1
 302.8 212.106 324.741 209.181 348.146 209.181 c 0
 412.51 209.181 473.46 239.412 530.996 299.874 c 0
 541.723 312.552 553.914 330.593 567.566 353.998 c 1
 579.269 392.03 l 2
 583.17 409.584 585.364 422.993 585.852 432.258 c 128
 586.339 441.521 586.583 448.593 586.583 453.468 c 1
 586.583 416.411 590.971 386.666 599.748 364.237 c 128
 608.524 341.809 623.152 320.354 643.632 299.874 c 0
 678.739 264.767 712.384 241.362 744.565 229.659 c 0
 766.994 220.883 795.276 216.494 829.407 216.494 c 0
 891.821 216.494 946.188 235.023 992.51 272.081 c 128
 1038.83 309.138 1064.92 355.46 1070.77 411.047 c 128
 1076.62 466.633 1079.55 510.518 1079.55 542.699 c 2
 1079.55 595.359 l 1
 1072.23 630.467 l 1
 1067.84 656.797 l 1
 1053.22 693.367 l 1
 1041.51 727.012 l 1
 1028.35 750.416 l 1
 1013.72 775.284 l 1
 983.002 816.242 l 1
 974.225 803.564 961.547 791.375 944.969 779.673 c 0
 931.804 770.896 931.804 770.896 923.026 765.045 c 128
 917.176 761.144 904.011 753.829 883.531 743.103 c 1
 873.292 740.177 873.292 740.177 843.305 732.132 c 128
 823.312 726.768 805.027 724.086 788.449 724.086 c 0
 750.416 724.086 712.871 734.325 675.813 754.805 c 0
 643.632 775.284 617.302 807.466 596.822 851.35 c 0
 586.096 875.73 580.731 901.572 580.731 928.878 c 0
 580.731 967.887 589.021 1004.46 605.6 1038.59 c 2
 614.376 1059.07 l 1
 630.467 1086.86 l 1
 599.748 1102.95 l 2
 586.096 1109.78 575.856 1116.6 569.029 1123.43 c 1
 548.55 1157.08 l 1
 539.773 1184.87 l 1
 598.285 1158.54 l 1
 667.037 1121.97 l 1
 765.045 1067.84 l 2
 814.779 1038.59 863.052 1003.48 909.861 962.522 c 0
 981.052 898.159 1038.83 825.751 1083.2 745.297 c 128
 1127.57 664.843 1149.76 577.806 1149.76 484.187 c 2
 1149.76 441.766 l 1
 1143.91 396.419 l 2
 1133.18 315.478 1120.5 258.916 1105.88 226.734 c 0
 1089.3 184.8 1055.65 138.479 1004.94 87.7676 c 0
 981.539 64.3633 959.597 46.8096 939.117 35.1074 c 0
 904.011 11.7021 860.126 0 807.466 0 c 0
 768.457 0 736.52 8.5332 711.652 25.5986 c 128
 686.784 42.665 660.698 71.1895 633.393 111.173 c 2
630.467 958.134 m 0
 636.318 907.423 656.797 864.515 691.904 829.407 c 0
 727.987 799.176 768.945 784.061 814.779 784.061 c 0
 841.11 784.061 872.805 791.375 909.861 806.003 c 2
 936.192 820.631 l 1
 959.597 842.573 l 1
 946.919 861.103 924.489 884.994 892.308 914.25 c 128
 860.126 943.506 825.02 970.812 786.986 996.167 c 2
 728.475 1034.2 l 1
 665.574 1066.38 l 1
 648.021 1029.81 l 2
 636.318 1001.53 630.467 977.638 630.467 958.134 c 0
EndSplineSet
EndChar
StartChar: uni0DA9
Encoding: 3497 3497 14
Width: 1258
VWidth: 2047
Flags: HW
Fore
786.986 0 m 0
 731.4 0 680.689 15.6035 634.855 46.8096 c 0
 585.12 80.9414 560.252 121.412 560.252 168.222 c 1
 560.252 124.338 536.604 85.3301 489.307 51.1982 c 128
 442.01 17.0664 390.08 0 333.519 0 c 0
 253.552 0 185.288 35.1074 128.727 105.321 c 128
 72.165 175.536 43.8838 257.453 43.8838 351.072 c 0
 43.8838 410.56 50.9541 457.125 65.0947 490.77 c 128
 79.2354 524.414 110.197 557.813 157.982 590.971 c 1
 52.6611 590.971 l 1
 52.6611 630.467 l 1
 529.533 630.467 l 1
 529.533 647.045 526.608 667.037 520.757 690.441 c 0
 511.98 717.748 499.302 738.227 482.724 751.879 c 0
 467.12 767.482 453.224 777.965 441.034 783.329 c 128
 428.845 788.693 412.51 791.375 392.03 791.375 c 0
 365.7 791.375 335.713 773.577 302.068 737.982 c 128
 268.424 702.389 236.974 684.591 207.718 684.591 c 0
 196.991 684.591 183.337 690.441 166.759 702.145 c 1
 156.032 714.822 150.668 729.45 150.668 746.028 c 0
 150.668 783.085 166.272 810.878 197.478 829.407 c 0
 234.535 847.937 274.03 857.201 315.965 857.201 c 0
 338.394 857.201 351.56 856.226 355.46 854.275 c 1
 378.865 851.35 l 2
 414.948 845.498 444.204 836.234 466.633 823.557 c 0
 491.014 811.854 512.956 792.351 532.459 765.045 c 0
 546.111 747.491 554.889 729.938 558.79 712.384 c 2
 566.104 675.813 l 1
 567.566 637.781 l 1
 566.104 583.657 l 1
 254.527 585.12 l 2
 229.173 585.12 205.279 576.83 182.85 560.252 c 0
 169.197 552.451 153.594 531.483 136.04 497.352 c 1
 122.875 450.542 l 1
 117.024 405.195 l 1
 121.412 365.7 l 2
 130.189 321.816 154.569 285.733 194.553 257.453 c 0
 226.734 234.048 270.131 217.957 324.741 209.181 c 2
 358.386 204.792 l 1
 393.493 203.329 l 2
 417.874 203.329 440.547 206.986 461.514 214.3 c 128
 482.479 221.614 501.253 233.561 517.831 250.139 c 0
 544.162 276.469 557.327 303.775 557.327 332.056 c 1
 557.327 301.824 566.591 276.956 585.12 257.453 c 0
 597.798 246.727 615.839 235.998 639.243 225.271 c 1
 659.723 219.42 684.591 216.494 713.847 216.494 c 2
 751.879 216.494 l 1
 792.838 217.957 l 2
 855.251 217.957 904.011 228.684 939.117 250.139 c 128
 974.225 271.594 1012.26 316.452 1053.22 384.717 c 1
 1066.38 416.898 l 1
 1078.08 459.319 l 1
 1111.73 459.319 l 1
 1136.6 457.856 l 1
 1132.21 408.121 l 2
 1118.55 306.701 1088.81 214.056 1042.98 130.189 c 0
 1022.5 88.2559 988.121 56.0742 939.849 33.6445 c 128
 891.576 11.2148 840.623 0 786.986 0 c 0
1034.2 365.7 m 1
 1048.83 389.104 1057.6 414.46 1060.53 441.766 c 2
 1066.38 550.013 l 1
 1066.38 583.657 l 1
 1066.38 602.674 l 1
 1066.38 618.765 l 1
 1066.38 669.963 l 1
 1060.53 712.384 l 2
 1060.53 732.863 1058.09 749.44 1053.22 762.119 c 2
 1051.27 771.871 1043.95 788.937 1031.27 813.316 c 0
 993.241 894.258 957.646 951.796 924.489 985.928 c 0
 910.837 1002.5 888.896 1020.55 858.664 1040.05 c 0
 836.234 1054.68 802.59 1074.18 757.73 1098.56 c 0
 731.4 1110.27 688.492 1125.87 629.004 1145.37 c 2
 567.566 1157.08 l 1
 500.277 1161.46 l 1
 441.766 1158.54 l 1
 406.658 1157.08 l 2
 393.98 1157.08 380.328 1155.12 365.7 1151.22 c 2
 299.387 1143.42 254.527 1135.13 231.122 1126.36 c 2
 201.866 1120.5 162.371 1102.95 112.636 1073.7 c 1
 84.8428 1113.19 l 1
 174.073 1157.08 l 2
 203.329 1169.75 235.023 1180.48 269.155 1189.26 c 2
 307.188 1196.57 l 1
 358.386 1205.35 l 1
 432.989 1208.27 l 1
 488.575 1208.27 l 2
 568.542 1208.27 635.343 1200.47 688.979 1184.87 c 0
 721.16 1177.07 748.953 1166.34 772.358 1152.69 c 0
 796.739 1140.98 828.432 1121.48 867.44 1094.17 c 0
 921.077 1058.09 962.035 1023.96 990.315 991.778 c 0
 1003.97 978.126 1017.86 960.572 1032.01 939.117 c 128
 1046.15 917.663 1061.02 892.795 1076.62 864.515 c 0
 1101.98 813.804 1119.53 764.558 1129.28 716.772 c 0
 1133.18 695.317 1136.6 669.718 1139.52 639.975 c 128
 1142.45 610.231 1143.91 579.269 1143.91 547.087 c 0
 1143.91 467.12 1133.18 402.757 1111.73 353.998 c 2
 1053.22 236.974 l 1
 1041.51 294.022 l 1
 1034.2 334.981 l 1
 1034.2 365.7 l 1
EndSplineSet
EndChar
StartChar: uni0DAA
Encoding: 3498 3498 15
Width: 1258
VWidth: 2047
Flags: HW
Fore
655.334 276.469 m 2
 673.863 259.892 700.682 244.774 735.788 231.122 c 1
 784.061 220.883 l 1
 835.259 216.494 l 2
 915.226 216.494 973.98 233.804 1011.53 268.424 c 128
 1049.07 303.044 1070.77 349.609 1076.62 408.121 c 128
 1082.47 466.633 1085.4 511.493 1085.4 542.699 c 2
 1085.4 595.359 l 1
 1078.08 630.467 l 1
 1073.7 656.797 l 1
 1059.07 693.367 l 1
 1047.37 727.012 l 1
 1034.2 750.416 l 1
 1019.57 775.284 l 1
 988.853 816.242 l 1
 980.076 803.564 967.398 791.375 950.82 779.673 c 0
 937.655 770.896 937.655 770.896 928.878 765.045 c 128
 923.026 761.144 909.861 753.829 889.383 743.103 c 1
 879.143 740.177 879.143 740.177 849.155 732.132 c 128
 829.163 726.768 810.878 724.086 794.301 724.086 c 0
 756.268 724.086 718.722 734.325 681.665 754.805 c 0
 649.483 775.284 623.152 807.466 602.674 851.35 c 0
 591.947 875.73 586.583 901.572 586.583 928.878 c 0
 586.583 967.887 594.872 1004.46 611.45 1038.59 c 2
 620.228 1059.07 l 1
 636.318 1086.86 l 1
 605.6 1102.95 l 2
 591.947 1109.78 581.707 1116.6 574.881 1123.43 c 1
 554.401 1157.08 l 1
 545.624 1184.87 l 1
 604.137 1158.54 l 1
 672.888 1121.97 l 1
 770.896 1067.84 l 2
 820.631 1038.59 868.903 1003.48 915.713 962.522 c 0
 986.903 898.159 1044.68 825.751 1089.05 745.297 c 128
 1133.43 664.843 1155.61 577.806 1155.61 484.187 c 2
 1155.61 441.766 l 1
 1149.76 396.419 l 2
 1139.03 312.552 1126.84 255.503 1113.19 225.271 c 0
 1092.71 172.61 1058.58 126.776 1010.79 87.7676 c 0
 970.812 55.5859 942.043 34.6201 924.489 24.8672 c 0
 891.332 8.28906 854.275 0 813.316 0 c 0
 722.623 0 659.235 29.7432 623.152 89.2305 c 0
 615.352 101.908 607.062 131.652 598.285 178.462 c 1
 598.285 131.652 577.562 90.6934 536.116 55.5859 c 128
 494.671 20.4795 437.864 2.92578 365.7 2.92578 c 0
 337.42 2.92578 311.089 5.85156 286.709 11.7021 c 128
 262.328 17.5537 235.511 29.7432 206.255 48.2725 c 0
 98.9824 111.66 45.3467 207.718 45.3467 336.444 c 0
 45.3467 397.882 50.4668 444.204 60.7061 475.41 c 128
 70.9453 506.616 95.082 541.236 133.115 579.269 c 2
 178.462 615.839 l 1
 54.124 615.839 l 2
 36.5703 615.839 27.793 626.565 27.793 648.021 c 0
 27.793 667.523 36.082 677.276 52.6611 677.276 c 2
 506.129 677.276 l 1
 506.129 702.631 493.695 724.817 468.827 743.834 c 128
 443.96 762.851 412.51 772.358 374.477 772.358 c 0
 352.048 772.358 327.667 766.021 301.337 753.342 c 2
 228.197 721.16 l 1
 196.016 716.772 l 2
 157.982 716.772 134.09 730.913 124.338 759.193 c 2
 119.949 778.21 l 1
 119.949 801.614 138.479 823.069 175.536 842.573 c 0
 204.792 857.201 235.023 865.978 266.229 868.903 c 0
 285.246 868.903 285.246 868.903 301.337 868.903 c 128
 312.063 868.903 323.279 867.928 334.981 865.978 c 2
 348.634 865.978 367.65 861.589 392.03 852.812 c 0
 430.063 844.035 460.782 827.945 484.187 804.54 c 0
 507.592 784.061 525.633 759.681 538.311 731.4 c 2
 550.013 693.367 l 2
 554.889 673.863 557.327 653.385 557.327 631.93 c 1
 321.816 630.467 l 2
 308.164 630.467 289.635 626.078 266.229 617.302 c 0
 212.593 590.971 172.61 560.252 146.28 525.146 c 1
 122.875 471.021 l 2
 117.024 453.468 114.099 432.989 114.099 409.584 c 0
 114.099 345.221 141.404 294.998 196.016 258.916 c 0
 244.774 227.71 307.188 212.106 383.254 212.106 c 0
 427.138 212.106 460.295 216.25 482.724 224.54 c 128
 505.153 232.829 529.047 248.676 554.401 272.081 c 2
 583.657 307.188 l 1
 595.359 334.981 l 2
 600.235 347.659 602.674 365.213 602.674 387.642 c 1
 602.674 362.287 607.062 339.856 615.839 320.354 c 1
 655.334 276.469 l 2
636.318 958.134 m 0
 642.169 907.423 662.648 864.515 697.756 829.407 c 0
 733.839 799.176 774.797 784.061 820.631 784.061 c 0
 846.961 784.061 878.655 791.375 915.713 806.003 c 2
 942.043 820.631 l 1
 965.448 842.573 l 1
 952.77 861.103 930.341 884.994 898.159 914.25 c 128
 865.978 943.506 830.87 970.812 792.838 996.167 c 2
 734.325 1034.2 l 1
 671.425 1066.38 l 1
 653.871 1029.81 l 2
 642.169 1001.53 636.318 977.638 636.318 958.134 c 0
EndSplineSet
EndChar
StartChar: uni0DAB
Encoding: 3499 3499 16
Width: 2052
VWidth: 2047
Flags: HW
Fore
1854.83 471.021 m 2
 1853.37 321.816 l 1
 1851.9 163.834 l 2
 1851.9 119.949 1837.03 81.6729 1807.29 49.0039 c 128
 1777.55 16.335 1739.27 0 1692.46 0 c 0
 1642.72 0 1603.71 21.2109 1575.44 63.6318 c 128
 1547.16 106.053 1533.01 157.007 1533.01 216.494 c 1
 1562.27 222.346 l 1
 1562.27 192.114 1571.05 159.445 1588.6 124.338 c 0
 1606.15 93.1318 1632 77.5283 1666.13 77.5283 c 0
 1704.16 77.5283 1730.97 97.5205 1746.58 137.503 c 0
 1757.31 167.735 1762.67 213.082 1762.67 273.544 c 2
 1761.21 315.965 l 1
 1761.21 359.849 l 1
 1761.21 396.419 l 2
 1761.21 460.782 1757.07 507.592 1748.78 536.848 c 128
 1740.48 566.104 1727.57 590.484 1710.01 609.987 c 2
 1685.15 633.393 l 2
 1680.27 637.294 1668.57 642.169 1650.04 648.021 c 1
 1620.78 650.946 l 2
 1600.3 650.946 1582.5 646.313 1567.39 637.05 c 128
 1552.28 627.785 1538.38 613.889 1525.7 595.359 c 0
 1520.83 588.533 1513.02 569.517 1502.3 538.311 c 2
 1494.98 504.666 l 1
 1494.98 530.996 1483.28 561.229 1459.87 595.359 c 0
 1442.32 617.789 1421.84 632.417 1398.44 639.243 c 0
 1376.98 647.045 1347.73 650.946 1310.67 650.946 c 0
 1290.19 650.946 1266.54 644.851 1239.72 632.661 c 128
 1212.91 620.472 1188.28 602.674 1165.85 579.269 c 0
 1134.65 540.261 1119.04 495.89 1119.04 446.154 c 1
 1154.15 478.336 1193.64 494.427 1237.53 494.427 c 0
 1284.34 494.427 1325.05 478.092 1359.67 445.423 c 128
 1394.29 412.754 1411.6 373.014 1411.6 326.204 c 0
 1411.6 285.246 1396.73 250.139 1366.99 220.883 c 128
 1337.24 191.627 1300.92 176.999 1258.01 176.999 c 0
 1218.03 176.999 1179.02 191.627 1140.98 220.883 c 0
 1108.8 250.139 1092.71 287.685 1092.71 333.519 c 2
 1094.17 349.609 l 1
 1067.84 271.594 1041.51 213.324 1015.18 174.805 c 128
 988.853 136.284 944.481 97.0322 882.068 57.0488 c 0
 849.887 37.5449 815.267 22.917 778.21 13.165 c 128
 741.152 3.41309 699.705 -1.46289 653.871 -1.46289 c 0
 586.583 -1.46289 524.658 18.041 468.096 57.0488 c 0
 432.013 81.4297 382.278 130.189 318.891 203.329 c 2
 244.287 289.635 l 2
 217.957 313.039 193.577 326.691 171.147 330.593 c 2
 130.189 334.981 l 1
 121.412 334.981 l 2
 102.884 334.981 91.6689 334.006 87.7676 332.056 c 2
 43.8838 313.039 l 1
 36.5703 321.816 l 1
 21.9424 342.295 l 1
 33.6445 366.676 59 391.543 98.0078 416.898 c 2
 172.61 463.708 l 1
 305.726 542.699 l 1
 301.337 576.343 l 1
 298.411 608.524 l 1
 299.874 627.541 l 2
 299.874 664.599 308.406 699.705 325.473 732.863 c 128
 342.539 766.021 368.139 795.764 402.27 822.094 c 0
 463.708 868.903 540.261 892.308 631.93 892.308 c 0
 665.574 892.308 665.574 892.308 691.904 892.308 c 128
 709.458 892.308 730.669 890.601 755.536 887.188 c 128
 780.404 883.775 824.532 865.978 887.92 833.796 c 1
 1734.88 1196.57 l 1
 1746.58 1177.55 l 1
 1758.29 1142.45 l 1
 1761.21 1120.5 l 2
 1761.21 1097.1 1750.49 1075.16 1729.03 1054.68 c 1
 1693.92 1032.74 l 1
 1658.82 1012.26 l 2
 1602.25 987.877 1526.68 962.522 1432.08 936.192 c 2
 1341.39 915.713 l 1
 1269.71 898.159 l 2
 1219 884.507 1162.44 866.465 1100.03 844.035 c 2
 936.192 791.375 l 1
 991.778 746.028 l 2
 1001.53 737.251 1009.82 728.962 1016.65 721.16 c 0
 1019.57 718.234 1026.89 708.971 1038.59 693.367 c 0
 1045.9 681.665 1045.9 681.665 1054.68 667.037 c 128
 1060.53 657.284 1065.41 647.533 1069.31 637.781 c 1
 1088.32 552.938 l 1
 1106.85 591.947 1133.18 624.371 1167.31 650.215 c 128
 1201.45 676.058 1243.38 691.904 1293.12 697.756 c 0
 1340.9 697.756 1378.44 692.392 1405.75 681.665 c 0
 1435.01 672.888 1465.24 651.434 1496.44 617.302 c 1
 1531.55 674.838 1582.27 703.606 1648.58 703.606 c 0
 1704.16 703.606 1752.43 681.421 1793.39 637.05 c 128
 1834.35 592.679 1854.83 537.335 1854.83 471.021 c 2
1130.74 336.444 m 0
 1130.74 304.263 1143.42 276.225 1168.78 252.333 c 128
 1194.13 228.441 1223.88 216.494 1258.01 216.494 c 0
 1287.26 216.494 1312.62 227.221 1334.07 248.676 c 1
 1356.02 283.783 l 1
 1362.84 301.337 1366.25 316.94 1366.25 330.593 c 0
 1366.25 360.824 1353.09 388.373 1326.76 413.241 c 128
 1300.43 438.108 1268.73 450.542 1231.68 450.542 c 0
 1209.25 450.542 1185.36 438.84 1160 415.436 c 0
 1140.5 393.006 1130.74 366.676 1130.74 336.444 c 0
514.905 492.964 m 0
 514.905 522.22 528.07 550.988 554.401 579.269 c 0
 580.731 602.674 611.938 614.376 648.021 614.376 c 0
 683.128 614.376 713.603 603.649 739.445 582.194 c 128
 765.289 560.739 782.598 529.533 791.375 488.575 c 2
 792.838 469.559 l 2
 792.838 430.551 776.747 394.956 744.565 362.774 c 0
 711.408 335.469 671.912 321.816 626.078 321.816 c 2
 545.624 326.204 l 2
 529.047 329.13 506.616 336.444 478.336 348.146 c 0
 440.303 365.7 410.56 385.203 389.104 406.658 c 0
 382.278 415.436 374.232 426.894 364.969 441.034 c 128
 355.705 455.175 343.758 474.923 329.13 500.277 c 1
 131.652 384.717 l 1
 163.834 384.717 196.016 374.964 228.197 355.46 c 2
 327.667 307.188 l 1
 475.41 257.453 l 2
 528.07 243.801 578.293 236.974 626.078 236.974 c 0
 748.953 236.974 847.937 271.105 923.026 339.369 c 0
 955.208 368.626 979.101 395.443 994.704 419.823 c 0
 1014.21 451.029 1023.96 484.674 1023.96 520.757 c 0
 1023.96 577.319 1013.23 624.129 991.778 661.186 c 0
 973.249 696.293 939.117 732.376 889.383 769.433 c 1
 378.865 526.608 l 1
 396.419 453.468 446.642 401.783 529.533 371.551 c 2
 564.641 362.774 l 1
 598.285 359.849 l 1
 542.699 382.278 514.905 426.65 514.905 492.964 c 0
564.641 482.724 m 0
 564.641 462.245 573.418 440.79 590.971 418.36 c 0
 608.524 400.808 630.954 392.03 658.26 392.03 c 0
 679.715 392.03 698.975 401.052 716.041 419.092 c 128
 733.107 437.133 741.64 456.881 741.64 478.336 c 0
 741.64 501.74 732.376 522.707 713.847 541.236 c 128
 695.317 559.766 673.375 569.029 648.021 569.029 c 0
 628.517 569.029 608.524 560.252 588.046 542.699 c 1
 572.442 524.17 564.641 504.179 564.641 482.724 c 0
833.796 806.003 m 1
 816.242 813.804 790.888 821.606 757.73 829.407 c 2
 686.053 841.11 l 1
 626.078 844.035 l 2
 549.037 844.035 485.649 826.969 435.914 792.838 c 0
 381.304 754.805 353.998 702.631 353.998 636.318 c 2
 352.535 612.913 l 1
 353.998 590.971 l 1
 355.46 570.492 l 1
 833.796 806.003 l 1
EndSplineSet
EndChar
StartChar: uni0DAD
Encoding: 3501 3501 18
Width: 1423
VWidth: 2047
Flags: HW
Fore
803.077 868.903 m 2
 867.44 867.44 l 2
 890.846 867.44 909.861 865.49 924.489 861.589 c 2
 942.043 861.589 958.621 859.15 974.225 854.275 c 2
 997.63 848.424 l 1
 1026.89 838.185 l 2
 1112.7 806.003 1178.53 766.021 1224.36 718.234 c 0
 1294.58 645.095 1329.69 549.037 1329.69 430.063 c 0
 1329.69 357.898 1320.18 294.998 1301.16 241.362 c 128
 1282.14 187.726 1244.84 136.528 1189.26 87.7676 c 1
 1102.95 32.1816 l 2
 1061.99 11.7021 1020.55 1.46289 978.613 1.46289 c 2
 959.597 1.46289 l 2
 940.094 1.46289 923.026 3.90039 908.398 8.77637 c 1
 899.622 43.8838 l 1
 921.564 42.4209 l 1
 944.969 42.4209 l 2
 978.126 42.4209 1007.62 46.3223 1033.47 54.124 c 128
 1059.31 61.9248 1085.4 79.2354 1111.73 106.053 c 128
 1138.06 132.871 1155.61 165.783 1164.39 204.792 c 0
 1169.26 234.048 1171.7 271.105 1171.7 315.965 c 0
 1171.7 405.683 1154.15 479.554 1119.04 537.579 c 128
 1083.93 595.604 1024.94 648.508 942.043 696.293 c 0
 906.936 715.796 868.416 730.424 826.482 740.177 c 2
 765.045 750.416 l 1
 697.756 754.805 l 2
 655.821 754.805 619.74 749.93 589.509 740.177 c 0
 573.904 735.301 557.813 727.499 541.236 716.772 c 0
 524.658 707.995 506.616 694.343 487.112 675.813 c 1
 583.657 671.425 l 2
 596.335 671.425 610.475 669.476 626.078 665.574 c 2
 668.5 653.871 l 2
 780.648 621.69 856.714 581.219 896.696 532.459 c 0
 931.804 491.501 949.357 439.815 949.357 377.402 c 0
 949.357 295.485 921.564 216.494 865.978 140.429 c 0
 798.688 46.8096 710.434 0 601.211 0 c 0
 547.574 0 496.865 8.77637 449.08 26.3301 c 128
 401.294 43.8838 350.585 75.0908 296.948 119.949 c 2
 212.106 193.09 l 1
 188.701 207.718 163.347 216.494 136.04 219.42 c 1
 100.934 157.982 l 1
 65.8262 175.536 l 1
 93.1318 232.098 128.727 295.485 172.61 365.7 c 0
 222.346 444.691 272.081 511.98 321.816 567.566 c 2
 412.51 674.351 l 1
 415.436 687.516 l 1
 416.898 707.995 l 2
 416.898 725.549 407.877 744.078 389.836 763.582 c 128
 371.796 783.085 351.56 792.838 329.13 792.838 c 0
 317.428 792.838 305.238 789.668 292.56 783.329 c 128
 279.882 776.991 266.717 762.605 253.064 740.177 c 2
 236.974 706.532 l 1
 234.048 665.574 l 1
 234.048 634.855 l 1
 232.585 607.062 l 2
 232.585 597.31 230.146 588.533 225.271 580.731 c 1
 207.718 533.922 174.073 510.518 124.338 510.518 c 0
 106.784 510.518 88.2559 519.294 68.752 536.848 c 1
 55.0986 555.377 48.2725 576.83 48.2725 601.211 c 0
 48.2725 653.871 64.8506 704.582 98.0078 753.342 c 0
 124.338 788.449 156.52 816.242 194.553 836.722 c 2
 251.602 858.664 l 1
 279.395 864.515 l 1
 311.576 865.978 l 2
 337.907 865.978 359.604 861.589 376.671 852.812 c 128
 393.737 844.035 412.997 824.532 434.451 794.301 c 0
 448.104 773.821 456.881 748.953 460.782 719.697 c 1
 507.592 766.507 556.352 802.102 607.062 826.482 c 0
 666.55 854.763 731.887 868.903 803.077 868.903 c 2
157.982 257.453 m 1
 173.586 257.453 195.039 251.114 222.346 238.437 c 128
 249.651 225.758 278.908 209.181 310.113 188.701 c 0
 336.444 172.123 362.774 159.933 389.104 152.131 c 1
 450.542 143.354 l 1
 498.814 143.354 l 2
 591.458 143.354 668.5 162.371 729.938 200.403 c 0
 795.276 245.264 827.945 310.113 827.945 394.956 c 0
 827.945 450.542 806.979 497.839 765.045 536.848 c 0
 737.738 562.202 686.053 588.046 609.987 614.376 c 2
 554.401 629.004 l 1
 501.74 634.855 l 1
 452.005 630.467 l 1
 412.997 594.384 366.676 543.431 313.039 477.604 c 128
 259.402 411.778 207.718 338.394 157.982 257.453 c 1
EndSplineSet
EndChar
StartChar: uni0DAE
Encoding: 3502 3502 19
Width: 1225
VWidth: 2047
Flags: HW
Fore
370.089 741.64 m 2
 406.658 740.177 l 1
 444.691 731.4 l 1
 435.914 691.904 l 1
 408.121 699.219 l 1
 378.865 703.606 l 1
 295.973 703.606 230.636 672.4 182.85 609.987 c 0
 144.817 557.327 125.801 487.112 125.801 399.345 c 0
 125.801 340.832 176.999 291.098 279.395 250.139 c 0
 371.064 216.007 470.534 198.94 577.806 198.94 c 0
 709.458 198.94 817.705 228.197 902.548 286.709 c 0
 997.143 352.048 1044.44 443.716 1044.44 561.715 c 0
 1044.44 619.252 1041.03 663.136 1034.2 693.367 c 0
 1028.35 732.376 1014.21 768.945 991.778 803.077 c 1
 970.323 784.548 940.094 766.994 901.085 750.416 c 128
 862.076 733.839 825.506 725.549 791.375 725.549 c 0
 764.068 725.549 738.958 730.182 716.041 739.445 c 128
 693.123 748.709 671.425 765.531 650.946 789.912 c 0
 633.393 814.293 618.765 839.647 607.062 865.978 c 0
 598.285 891.332 593.896 915.226 593.896 937.655 c 0
 593.896 963.01 601.211 994.217 615.839 1031.27 c 0
 626.565 1054.68 642.656 1081.01 664.111 1110.27 c 1
 642.169 1123.43 l 1
 618.765 1138.06 l 1
 607.062 1154.15 l 1
 599.748 1180.48 l 1
 680.689 1162.93 756.268 1125.87 826.482 1069.31 c 0
 871.342 1032.25 929.365 967.398 1000.56 874.754 c 0
 1011.28 860.126 1021.77 843.06 1032.01 823.557 c 128
 1042.25 804.053 1052.73 781.622 1063.46 756.268 c 0
 1087.84 686.053 1100.03 629.004 1100.03 585.12 c 0
 1100.03 380.328 1053.22 227.221 959.597 125.801 c 0
 874.754 38.0332 747.004 -5.85156 576.343 -5.85156 c 0
 431.039 -5.85156 312.552 24.3799 220.883 84.8428 c 0
 109.71 155.057 54.124 253.552 54.124 380.328 c 0
 54.124 473.947 76.5527 553.426 121.412 618.765 c 0
 176.999 700.682 259.892 741.64 370.089 741.64 c 2
705.069 857.201 m 0
 746.028 813.316 787.962 791.375 830.87 791.375 c 0
 870.854 791.375 912.3 809.904 955.208 846.961 c 1
 901.572 926.928 868.903 972.275 857.201 983.002 c 0
 816.242 1026.89 762.605 1063.94 696.293 1094.17 c 1
 670.938 1061.02 658.26 1022.98 658.26 980.076 c 0
 658.26 932.291 673.863 891.332 705.069 857.201 c 0
EndSplineSet
EndChar
StartChar: uni0DAF
Encoding: 3503 3503 20
Width: 965
VWidth: 2047
Flags: HW
Fore
601.211 617.302 m 2
 494.913 599.748 423.48 579.024 386.91 555.133 c 128
 350.341 531.24 320.84 496.376 298.411 450.542 c 2
 277.932 387.642 l 2
 273.057 368.139 270.618 350.585 270.618 334.981 c 0
 270.618 309.627 276.469 276.714 288.172 236.242 c 128
 299.874 195.771 331.568 160.664 383.254 130.921 c 128
 434.938 101.177 502.228 77.5283 585.12 59.9746 c 2
 629.004 55.5859 l 1
 658.26 57.0488 l 2
 673.863 57.0488 689.466 59.4873 705.069 64.3633 c 2
 756.268 74.6025 l 1
 807.466 90.6934 l 1
 822.094 64.3633 l 1
 709.458 29.2559 l 2
 650.946 11.7021 586.096 2.92578 514.905 2.92578 c 0
 431.039 2.92578 338.883 30.2314 238.437 84.8428 c 0
 106.784 152.131 40.958 233.072 40.958 327.667 c 0
 40.958 432.013 73.1396 512.956 137.503 570.492 c 0
 220.396 639.73 362.774 674.351 564.641 674.351 c 2
 599.748 674.351 l 1
 636.318 675.813 l 1
 668.5 675.813 l 1
 716.772 669.963 l 2
 728.475 668.986 742.371 667.281 758.462 664.843 c 128
 774.553 662.404 794.301 657.772 817.705 650.946 c 1
 814.779 669.963 l 1
 808.929 696.293 l 2
 800.151 725.549 780.159 749.93 748.953 769.433 c 0
 740.177 774.309 731.156 777.965 721.892 780.404 c 128
 712.628 782.842 696.049 786.499 672.156 791.375 c 128
 648.265 796.25 616.326 798.688 576.343 798.688 c 0
 554.889 798.688 524.658 784.061 485.649 754.805 c 128
 446.642 725.549 418.36 710.921 400.808 710.921 c 0
 388.129 710.921 376.427 716.285 365.7 727.012 c 2
 343.758 753.342 l 1
 334.006 769.92 329.13 786.986 329.13 804.54 c 0
 332.056 825.995 353.021 845.985 392.03 864.515 c 1
 453.468 882.068 l 1
 526.608 887.92 l 2
 588.046 887.92 643.876 877.193 694.099 855.738 c 128
 744.321 834.283 778.696 814.293 797.226 795.764 c 0
 829.407 769.433 849.887 733.839 858.664 688.979 c 2
 861.589 661.186 l 1
 857.201 599.748 l 1
 795.764 609.987 l 1
 722.623 618.765 l 1
 664.111 621.69 l 1
 601.211 617.302 l 2
750.416 71.6768 m 1
 778.21 80.4541 l 1
 804.54 90.6934 l 1
 819.168 64.3633 l 1
 789.912 54.124 l 1
 763.582 42.4209 l 1
 743.103 30.7188 l 1
 721.16 19.0166 l 1
 707.995 11.7021 l 1
 696.293 5.85156 l 1
 662.648 -13.165 l 1
 653.871 -20.9668 645.095 -31.2061 636.318 -43.8838 c 1
 620.228 -78.9912 l 1
 614.376 -115.562 l 1
 615.839 -133.115 l 1
 620.228 -152.131 l 2
 623.152 -166.759 628.517 -178.948 636.318 -188.701 c 128
 644.119 -198.454 655.821 -208.205 671.425 -217.957 c 2
 677.276 -220.883 l 1
 686.053 -225.271 l 1
 706.532 -231.122 l 1
 729.938 -234.048 l 1
 747.491 -232.585 l 2
 754.317 -232.585 759.681 -231.609 763.582 -229.659 c 2
 773.821 -225.271 l 1
 785.523 -222.346 l 1
 794.301 -219.42 l 1
 804.54 -216.494 l 1
 813.316 -212.106 l 1
 822.094 -207.718 l 1
 822.094 -241.362 l 1
 813.316 -245.75 l 1
 804.54 -251.602 l 1
 788.449 -261.841 l 1
 769.433 -272.081 l 1
 738.714 -285.246 l 1
 707.995 -295.485 l 1
 675.813 -301.337 l 1
 645.095 -304.263 l 2
 623.64 -304.263 607.062 -302.312 595.359 -298.411 c 128
 583.657 -294.51 567.566 -284.759 547.087 -269.155 c 2
 542.699 -266.229 l 1
 539.773 -261.841 l 1
 513.442 -234.048 l 1
 498.814 -198.94 l 1
 497.352 -190.164 l 1
 497.352 -184.312 l 1
 498.814 -163.834 l 1
 504.666 -146.28 l 1
 511.98 -125.801 l 1
 522.22 -106.784 l 2
 530.996 -85.3301 545.624 -62.9004 566.104 -39.4951 c 2
 595.359 -11.7021 l 1
 626.078 10.2393 l 1
 645.095 20.4795 l 1
 690.441 43.8838 l 1
 750.416 71.6768 l 1
EndSplineSet
EndChar
StartChar: uni0DB0
Encoding: 3504 3504 21
Width: 1258
VWidth: 2047
Flags: HW
Fore
658.26 61.4375 m 2
 620.228 100.934 l 1
 592.434 153.594 l 1
 571.955 117.024 l 2
 559.276 93.6191 543.917 73.8711 525.877 57.7803 c 128
 507.836 41.6895 481.748 25.8428 447.617 10.2393 c 1
 397.882 2.92578 l 1
 337.907 0 l 2
 253.064 0 183.337 36.082 128.727 108.247 c 128
 74.1152 180.411 46.8096 263.304 46.8096 356.923 c 0
 46.8096 499.302 67.7764 603.161 109.71 668.5 c 0
 161.396 748.467 250.626 788.449 377.402 788.449 c 2
 412.51 791.375 l 1
 447.617 786.986 l 1
 450.542 747.491 l 1
 384.717 747.491 l 2
 288.172 747.491 216.007 719.211 168.222 662.648 c 0
 124.338 610.963 102.396 541.236 102.396 453.468 c 0
 102.396 389.104 123.851 334.006 166.759 288.172 c 128
 209.668 242.338 261.354 219.42 321.816 219.42 c 0
 380.328 219.42 431.526 229.659 475.41 250.139 c 128
 519.294 270.618 559.276 306.701 595.359 358.386 c 1
 630.467 311.576 663.624 275.493 694.83 250.139 c 0
 725.062 228.684 757.73 217.957 792.838 217.957 c 0
 855.251 217.957 904.011 228.684 939.117 250.139 c 128
 974.225 271.594 1012.26 316.452 1053.22 384.717 c 1
 1066.38 416.898 l 1
 1078.08 459.319 l 1
 1111.73 459.319 l 1
 1138.06 457.856 l 1
 1139.52 424.212 l 1
 1138.06 408.121 l 1
 1123.43 340.832 l 1
 1110.27 294.022 l 2
 1093.69 234.535 1071.26 179.925 1042.98 130.189 c 0
 997.143 43.3965 924.977 0 826.482 0 c 0
 795.276 0 767.238 4.14453 742.371 12.4336 c 128
 717.504 20.7227 689.466 37.0576 658.26 61.4375 c 2
1034.2 365.7 m 1
 1048.83 389.104 1057.6 414.46 1060.53 441.766 c 2
 1066.38 550.013 l 1
 1066.38 583.657 l 1
 1066.38 602.674 l 1
 1066.38 618.765 l 1
 1066.38 669.963 l 1
 1060.53 712.384 l 2
 1060.53 732.863 1058.09 749.44 1053.22 762.119 c 2
 1051.27 771.871 1043.95 788.937 1031.27 813.316 c 0
 993.241 894.258 957.646 951.796 924.489 985.928 c 0
 910.837 1002.5 888.896 1020.55 858.664 1040.05 c 0
 836.234 1054.68 802.59 1074.18 757.73 1098.56 c 0
 731.4 1110.27 688.492 1125.87 629.004 1145.37 c 2
 567.566 1157.08 l 1
 500.277 1161.46 l 1
 441.766 1158.54 l 1
 406.658 1157.08 l 2
 393.98 1157.08 380.328 1155.12 365.7 1151.22 c 2
 299.387 1143.42 254.527 1135.13 231.122 1126.36 c 2
 201.866 1120.5 162.371 1102.95 112.636 1073.7 c 1
 84.8428 1113.19 l 1
 174.073 1157.08 l 2
 203.329 1169.75 235.023 1180.48 269.155 1189.26 c 2
 307.188 1196.57 l 1
 358.386 1205.35 l 1
 432.989 1208.27 l 1
 488.575 1208.27 l 2
 568.542 1208.27 635.343 1200.47 688.979 1184.87 c 0
 721.16 1177.07 748.953 1166.34 772.358 1152.69 c 0
 796.739 1140.98 828.432 1121.48 867.44 1094.17 c 0
 921.077 1058.09 962.035 1023.96 990.315 991.778 c 0
 1003.97 978.126 1017.86 960.572 1032.01 939.117 c 128
 1046.15 917.663 1061.02 892.795 1076.62 864.515 c 0
 1101.98 813.804 1119.53 764.558 1129.28 716.772 c 0
 1133.18 695.317 1136.6 669.718 1139.52 639.975 c 128
 1142.45 610.231 1143.91 579.269 1143.91 547.087 c 0
 1143.91 467.12 1133.18 402.757 1111.73 353.998 c 2
 1053.22 236.974 l 1
 1041.51 294.022 l 1
 1034.2 334.981 l 1
 1034.2 365.7 l 1
EndSplineSet
EndChar
StartChar: uni0DB1
Encoding: 3505 3505 22
Width: 1423
VWidth: 2047
Flags: HW
Fore
175.536 184.312 m 1
 194.553 264.767 l 2
 198.94 283.783 198.94 283.783 201.866 295.485 c 128
 203.816 303.287 209.181 319.378 217.957 343.758 c 0
 222.833 359.361 227.221 372.527 231.122 383.254 c 128
 235.023 393.98 240.387 406.171 247.213 419.823 c 2
 286.709 501.74 l 1
 352.535 590.971 l 2
 357.41 596.822 363.262 605.6 370.089 617.302 c 128
 380.328 634.855 380.328 634.855 390.567 653.871 c 0
 399.345 676.301 403.732 694.83 403.732 709.458 c 2
 400.808 735.788 l 1
 394.956 753.342 385.692 766.752 373.014 776.016 c 128
 360.336 785.279 342.782 789.912 320.354 789.912 c 0
 285.246 789.912 255.503 762.605 231.122 707.995 c 1
 223.809 672.888 l 1
 226.734 636.318 l 1
 231.122 607.062 l 1
 231.122 591.458 228.684 579.269 223.809 570.492 c 0
 215.031 551.963 205.036 536.36 193.821 523.683 c 128
 182.605 511.004 167.246 504.666 147.743 504.666 c 0
 104.834 504.666 73.1396 526.608 52.6611 570.492 c 1
 45.3467 612.913 l 1
 45.3467 637.294 51.9297 662.893 65.0947 689.71 c 128
 78.2598 716.527 95.082 741.64 115.562 765.045 c 0
 143.842 799.176 176.999 824.044 215.031 839.647 c 2
 258.916 854.275 l 2
 278.419 860.126 296.948 863.052 314.502 863.052 c 2
 332.056 863.052 l 1
 351.072 860.126 l 2
 383.254 857.201 410.071 840.135 431.526 808.929 c 1
 446.154 770.896 l 1
 456.394 703.606 l 1
 481.748 736.764 514.418 766.021 554.401 791.375 c 2
 604.137 819.168 l 1
 652.409 842.573 l 1
 693.367 854.275 l 1
 728.475 863.052 l 1
 827.945 876.217 l 2
 918.639 876.217 1010.31 854.275 1102.95 810.392 c 0
 1219.98 751.879 1286.29 666.55 1301.89 554.401 c 2
 1310.67 468.096 l 1
 1313.59 384.717 l 2
 1313.59 303.775 1301.89 234.535 1278.49 176.999 c 0
 1263.86 141.892 1239.97 107.76 1206.81 74.6025 c 0
 1183.41 48.2725 1162.93 30.7188 1145.37 21.9424 c 2
 1116.12 8.77637 l 1
 1069.31 2.92578 l 2
 1032.25 2.92578 1000.8 8.04492 974.956 18.2852 c 128
 949.113 28.5244 928.391 46.8096 912.787 73.1396 c 1
 927.415 81.917 l 1
 953.746 52.6611 988.853 38.0332 1032.74 38.0332 c 2
 1048.83 38.0332 l 1
 1076.62 43.8838 l 2
 1092.22 48.7598 1106.85 56.5615 1120.5 67.2891 c 0
 1140.98 81.917 1155.61 111.66 1164.39 156.52 c 2
 1174.63 225.271 l 1
 1179.02 304.263 l 2
 1179.02 427.138 1139.52 528.07 1060.53 607.062 c 0
 977.638 689.954 867.928 731.4 731.4 731.4 c 0
 697.269 731.4 669.963 729.938 649.483 727.012 c 1
 542.699 691.904 l 1
 501.74 668.5 l 1
 485.649 655.334 l 1
 469.559 639.243 l 1
 563.178 649.483 l 2
 583.657 649.483 596.335 648.508 601.211 646.558 c 1
 615.839 645.095 l 1
 642.169 636.318 l 2
 692.88 624.615 730.913 610.963 756.268 595.359 c 0
 787.474 574.881 817.705 544.648 846.961 504.666 c 1
 873.292 452.005 l 1
 883.531 427.138 l 1
 893.771 392.03 l 1
 898.159 330.593 l 1
 893.771 272.081 l 1
 876.217 216.494 l 2
 862.564 183.337 845.985 157.007 826.482 137.503 c 0
 813.804 124.825 787.962 105.321 748.953 78.9912 c 2
 699.219 51.1982 l 1
 598.285 20.4795 l 1
 567.566 14.6279 l 1
 519.294 10.2393 l 1
 415.436 7.31445 l 2
 361.799 7.31445 318.646 13.165 285.978 24.8672 c 128
 253.309 36.5703 214.056 57.0488 168.222 86.3057 c 0
 155.544 96.0576 140.429 111.904 122.875 133.847 c 128
 105.321 155.788 82.8916 188.701 55.5859 232.585 c 1
 111.173 201.866 l 2
 130.677 193.09 152.131 187.238 175.536 184.312 c 1
506.129 593.896 m 2
 473.947 589.021 445.667 579.756 421.286 566.104 c 0
 392.03 548.55 363.262 522.707 334.981 488.575 c 0
 314.502 461.27 295.973 429.576 279.395 393.493 c 2
 255.99 320.354 l 1
 234.048 253.064 l 1
 216.494 175.536 l 1
 301.337 153.594 l 1
 345.221 146.28 l 1
 371.551 146.28 l 1
 413.973 146.28 l 1
 432.989 146.28 l 2
 477.849 146.28 512.467 148.475 536.848 152.862 c 128
 561.229 157.251 583.17 163.347 602.674 171.147 c 2
 669.963 206.255 l 2
 717.748 233.561 751.879 257.939 772.358 279.395 c 0
 802.59 312.552 817.705 348.634 817.705 387.642 c 2
 814.779 416.898 l 2
 806.979 465.657 787.474 503.69 756.268 530.996 c 0
 727.012 559.276 685.077 579.756 630.467 592.434 c 2
 567.566 598.285 l 1
 535.385 596.822 l 1
 506.129 593.896 l 2
EndSplineSet
EndChar
StartChar: uni0DB3
Encoding: 3507 3507 24
Width: 965
VWidth: 2047
Flags: HW
Fore
519.294 0 m 2
 444.691 4.38867 l 2
 417.385 7.31445 401.783 9.26465 397.882 10.2393 c 0
 382.278 15.1152 371.064 18.041 364.237 19.0166 c 0
 311.576 30.7188 270.131 45.834 239.899 64.3633 c 0
 163.834 108.247 111.173 155.788 81.917 206.986 c 128
 52.6611 258.185 38.0332 331.568 38.0332 427.138 c 0
 38.0332 475.897 42.4209 518.562 51.1982 555.133 c 128
 59.9746 591.703 77.5283 634.368 103.858 683.128 c 0
 137.016 746.516 191.14 799.664 266.229 842.573 c 128
 341.319 885.481 419.823 906.936 501.74 906.936 c 0
 539.773 906.936 579.269 901.329 620.228 890.114 c 128
 661.186 878.898 698.243 861.589 731.4 838.185 c 0
 767.482 817.705 794.057 796.981 811.123 776.016 c 128
 828.189 755.049 841.11 726.524 849.887 690.441 c 1
 851.35 662.648 l 1
 849.887 621.69 l 2
 849.887 614.863 848.911 609.5 846.961 605.6 c 1
 792.838 614.376 l 1
 725.549 621.69 l 1
 672.888 624.615 l 2
 628.028 624.615 590.484 619.74 560.252 609.987 c 0
 483.211 584.633 422.262 553.914 377.402 517.831 c 0
 323.766 472.972 296.948 416.898 296.948 349.609 c 0
 296.948 278.419 316.696 218.933 356.191 171.147 c 128
 395.688 123.362 452.005 86.793 525.146 61.4375 c 0
 541.723 56.5615 559.276 52.6611 577.806 49.7354 c 128
 596.335 46.8096 614.376 45.3467 631.93 45.3467 c 2
 656.797 45.3467 l 1
 674.351 45.3467 l 1
 688.979 48.2725 l 1
 822.094 77.5283 l 1
 814.779 51.1982 l 1
 688.979 19.0166 l 2
 615.839 6.33887 559.276 0 519.294 0 c 2
696.293 801.614 m 0
 692.392 804.54 681.665 808.441 664.111 813.316 c 2
 645.095 816.242 l 1
 624.615 816.242 576.83 793.813 501.74 748.953 c 0
 463.708 727.499 433.476 716.772 411.047 716.772 c 0
 396.419 716.772 384.229 718.966 374.477 723.354 c 128
 364.725 727.743 353.021 739.689 339.369 759.193 c 0
 330.593 775.771 321.816 785.036 313.039 786.986 c 1
 259.402 775.284 211.619 738.227 169.685 675.813 c 0
 134.577 620.228 117.024 563.178 117.024 504.666 c 0
 117.024 485.162 117.999 473.46 119.949 469.559 c 1
 187.238 547.574 255.99 603.405 326.204 637.05 c 128
 396.419 670.693 472.484 687.516 554.401 687.516 c 2
 609.987 686.053 l 2
 626.078 686.053 626.078 686.053 642.169 686.053 c 1
 652.896 683.128 660.21 681.178 664.111 680.202 c 1
 683.615 680.202 707.508 677.276 735.788 671.425 c 2
 797.226 658.26 l 1
 800.151 663.136 801.614 668.5 801.614 674.351 c 0
 801.614 690.929 790.399 711.896 767.97 737.251 c 0
 750.416 760.656 726.524 782.111 696.293 801.614 c 0
722.623 80.4541 m 2
 753.342 90.6934 l 1
 784.061 102.396 l 1
 800.151 73.1396 l 1
 767.97 61.4375 l 1
 737.251 48.2725 l 1
 713.847 35.1074 l 1
 688.979 21.9424 l 1
 674.351 13.165 l 1
 661.186 7.31445 l 1
 623.152 -14.6279 l 1
 617.302 -19.5039 607.549 -31.2061 593.896 -49.7354 c 1
 576.343 -89.2305 l 1
 569.029 -130.189 l 1
 570.492 -150.668 l 1
 576.343 -171.147 l 2
 579.269 -185.775 585.607 -199.916 595.359 -213.568 c 0
 601.211 -222.346 613.889 -233.072 633.393 -245.75 c 1
 640.706 -248.676 l 1
 649.483 -254.527 l 1
 672.888 -260.379 l 1
 699.219 -264.767 l 1
 719.697 -263.304 l 1
 737.251 -258.916 l 1
 748.953 -254.527 l 1
 762.119 -251.602 l 1
 765.045 -251.602 767.238 -251.114 768.701 -250.139 c 128
 770.164 -249.163 771.383 -248.188 772.358 -247.213 c 1
 784.061 -244.287 l 1
 794.301 -239.899 l 1
 803.077 -234.048 l 1
 803.077 -272.081 l 1
 794.301 -277.932 l 1
 784.061 -283.783 l 1
 765.045 -295.485 l 1
 744.565 -307.188 l 1
 709.458 -321.816 l 1
 674.351 -333.519 l 1
 637.781 -340.832 l 1
 604.137 -343.758 l 2
 581.707 -343.758 562.202 -340.832 545.624 -334.981 c 1
 530.996 -332.056 513.442 -321.816 492.964 -304.263 c 2
 488.575 -299.874 l 1
 484.187 -295.485 l 1
 454.931 -264.767 l 1
 438.84 -225.271 l 1
 437.377 -215.031 l 1
 437.377 -207.718 l 1
 438.84 -184.312 l 1
 444.691 -165.297 l 1
 453.468 -141.892 l 1
 465.17 -119.949 l 2
 478.822 -91.6689 495.402 -66.3135 514.905 -43.8838 c 2
 547.087 -13.165 l 1
 582.194 11.7021 l 1
 604.137 23.4053 l 2
 633.393 40.958 672.888 59.9746 722.623 80.4541 c 2
EndSplineSet
EndChar
StartChar: uni0DB4
Encoding: 3508 3508 25
Width: 1296
VWidth: 2047
Flags: HW
Fore
370.089 629.004 m 2
 303.775 629.004 246.237 613.889 197.478 583.657 c 0
 142.867 549.525 115.562 504.179 115.562 447.617 c 0
 115.562 376.427 144.33 322.303 201.866 285.246 c 0
 247.7 255.99 315.478 235.511 405.195 223.809 c 2
 504.666 216.494 l 1
 640.706 213.568 l 2
 746.028 213.568 822.094 216.981 868.903 223.809 c 0
 956.671 232.585 1023.47 252.089 1069.31 282.32 c 0
 1125.87 318.403 1154.15 367.65 1154.15 430.063 c 0
 1154.15 475.897 1135.13 518.807 1097.1 558.79 c 0
 1066.87 587.07 1022.98 609.5 965.448 626.078 c 1
 901.085 627.541 l 1
 800.151 629.004 l 1
 703.606 629.004 l 1
 653.871 629.004 l 1
 649.483 675.813 l 2
 649.483 694.343 651.922 709.945 656.797 722.623 c 2
 688.979 782.598 l 2
 715.31 820.631 747.735 850.131 786.255 871.098 c 128
 824.775 892.063 865.002 902.548 906.936 902.548 c 2
 947.895 902.548 l 1
 974.225 895.233 l 1
 982.026 895.233 990.315 892.795 999.093 887.92 c 2
 1037.12 871.829 l 1
 1072.23 849.887 l 2
 1083.93 840.135 1094.17 828.921 1102.95 816.242 c 0
 1122.46 790.888 1132.21 764.558 1132.21 737.251 c 0
 1132.21 693.367 1109.29 659.723 1063.46 636.318 c 1
 1113.19 618.765 1149.76 590.727 1173.17 552.207 c 128
 1196.57 513.688 1208.27 463.221 1208.27 400.808 c 0
 1208.27 277.932 1148.3 178.462 1028.35 102.396 c 0
 917.176 34.1318 789.912 0 646.558 0 c 0
 488.575 0 352.535 36.5703 238.437 109.71 c 0
 110.686 191.627 46.8096 299.387 46.8096 432.989 c 0
 46.8096 490.525 65.3389 539.286 102.396 579.269 c 128
 139.453 619.252 188.214 645.582 248.676 658.26 c 2
 285.246 664.111 l 1
 326.204 669.963 l 1
 421.286 672.888 l 1
 481.261 671.425 l 1
 547.087 671.425 l 1
 547.087 696.78 540.261 719.211 526.608 738.714 c 1
 517.831 756.268 500.277 770.896 473.947 782.598 c 2
 444.691 791.375 l 1
 422.749 794.301 l 2
 408.121 794.301 389.104 789.912 365.7 781.135 c 2
 332.056 763.582 l 1
 270.618 728.475 l 1
 244.287 718.234 l 2
 229.659 712.384 216.981 709.458 206.255 709.458 c 1
 175.536 713.847 l 1
 169.685 716.772 162.371 724.086 153.594 735.788 c 1
 147.743 747.491 143.354 760.656 140.429 775.284 c 1
 140.429 800.639 160.908 825.02 201.866 848.424 c 0
 242.825 868.903 289.635 879.143 342.295 879.143 c 2
 374.477 877.68 l 2
 395.932 877.68 416.898 874.754 437.377 868.903 c 0
 455.906 865.002 474.435 857.688 492.964 846.961 c 0
 519.294 836.234 545.138 811.367 570.492 772.358 c 0
 585.12 744.078 592.434 714.822 592.434 684.591 c 2
 588.046 627.541 l 1
 551.476 627.541 l 1
 523.683 627.541 l 1
 501.74 627.541 l 1
 484.187 627.541 l 1
 434.451 627.541 l 1
 386.18 629.004 l 1
 370.089 629.004 l 2
994.704 678.739 m 2
 1012.26 678.739 1028.35 681.665 1042.98 687.516 c 128
 1057.6 693.367 1067.84 705.069 1073.7 722.623 c 1
 1076.62 741.64 l 1
 1076.62 754.317 1072.23 766.021 1063.46 776.747 c 2
 1022.5 814.779 l 1
 984.465 839.16 946.919 851.35 909.861 851.35 c 0
 859.15 851.35 813.804 834.283 773.821 800.151 c 0
 753.342 782.598 736.764 764.068 724.086 744.565 c 0
 713.359 725.062 707.995 701.657 707.995 674.351 c 1
 854.275 675.813 l 1
 994.704 678.739 l 2
EndSplineSet
EndChar
StartChar: uni0DB5
Encoding: 3509 3509 26
Width: 1225
VWidth: 2047
Flags: HW
Fore
620.228 1138.06 m 1
 607.062 1154.15 l 1
 599.748 1180.48 l 1
 680.689 1162.93 756.268 1125.87 826.482 1069.31 c 0
 871.342 1032.25 929.365 967.398 1000.56 874.754 c 0
 1011.28 860.126 1021.77 843.06 1032.01 823.557 c 128
 1042.25 804.053 1052.73 781.622 1063.46 756.268 c 0
 1087.84 686.053 1100.03 629.004 1100.03 585.12 c 0
 1100.03 380.328 1053.22 227.221 959.597 125.801 c 0
 874.754 38.0332 747.004 -5.85156 576.343 -5.85156 c 0
 437.864 -5.85156 319.378 26.8184 220.883 92.1562 c 0
 109.71 165.297 54.124 261.354 54.124 380.328 c 0
 54.124 462.245 79.9668 528.558 131.652 579.269 c 128
 183.337 629.979 254.527 664.111 345.221 681.665 c 1
 381.791 683.128 l 1
 406.658 684.591 l 1
 460.782 683.128 l 2
 480.285 683.128 492.964 682.152 498.814 680.202 c 1
 498.814 706.532 491.501 731.4 476.873 754.805 c 128
 462.245 778.21 439.327 794.787 408.121 804.54 c 1
 387.642 806.003 l 2
 372.038 806.003 339.369 788.937 289.635 754.805 c 0
 261.354 739.201 238.437 731.4 220.883 731.4 c 0
 204.305 731.4 191.14 732.863 181.387 735.788 c 128
 171.635 738.714 162.371 748.953 153.594 766.507 c 1
 149.206 782.598 l 1
 147.743 800.151 l 2
 147.743 825.506 163.834 846.961 196.016 864.515 c 128
 228.197 882.068 265.742 890.846 308.65 890.846 c 0
 349.609 890.846 384.717 883.531 413.973 868.903 c 0
 443.229 857.201 468.583 837.697 490.038 810.392 c 0
 521.244 769.433 540.261 712.384 547.087 639.243 c 1
 513.442 640.706 l 1
 465.17 642.169 l 1
 387.642 637.781 l 2
 352.535 637.781 319.378 632.417 288.172 621.69 c 128
 256.966 610.963 228.197 595.847 201.866 576.343 c 0
 150.182 538.311 124.338 486.625 124.338 421.286 c 2
 125.801 399.345 l 2
 137.503 312.552 191.627 253.064 288.172 220.883 c 0
 340.832 206.255 437.377 198.94 577.806 198.94 c 0
 709.458 198.94 817.705 228.197 902.548 286.709 c 0
 997.143 352.048 1044.44 443.716 1044.44 561.715 c 0
 1044.44 619.252 1041.03 663.136 1034.2 693.367 c 0
 1028.35 732.376 1014.21 768.945 991.778 803.077 c 1
 970.323 784.548 940.094 766.994 901.085 750.416 c 128
 862.076 733.839 825.506 725.549 791.375 725.549 c 0
 764.068 725.549 738.958 730.182 716.041 739.445 c 128
 693.123 748.709 671.425 765.531 650.946 789.912 c 0
 633.393 814.293 618.765 839.647 607.062 865.978 c 0
 598.285 891.332 593.896 915.226 593.896 937.655 c 0
 593.896 963.01 601.211 994.217 615.839 1031.27 c 0
 626.565 1054.68 642.656 1081.01 664.111 1110.27 c 1
 642.169 1123.43 l 1
 620.228 1138.06 l 1
705.069 857.201 m 0
 746.028 813.316 787.962 791.375 830.87 791.375 c 0
 870.854 791.375 912.3 809.904 955.208 846.961 c 1
 901.572 926.928 868.903 972.275 857.201 983.002 c 0
 816.242 1026.89 762.605 1063.94 696.293 1094.17 c 1
 670.938 1061.02 658.26 1022.98 658.26 980.076 c 0
 658.26 932.291 673.863 891.332 705.069 857.201 c 0
EndSplineSet
EndChar
StartChar: uni0DB6
Encoding: 3510 3510 27
Width: 1258
VWidth: 2047
Flags: HW
Fore
200.403 144.817 m 0
 200.403 122.388 210.644 99.4707 231.122 76.0654 c 0
 252.577 56.5615 276.469 46.8096 302.8 46.8096 c 0
 324.255 46.8096 344.733 55.5859 364.237 73.1396 c 128
 383.74 90.6934 393.493 113.611 393.493 141.892 c 0
 393.493 165.297 383.01 187.482 362.043 208.449 c 128
 341.077 229.415 317.428 239.899 291.098 239.899 c 0
 267.692 239.899 246.727 230.636 228.197 212.106 c 128
 209.668 193.577 200.403 171.147 200.403 144.817 c 0
554.401 74.6025 m 0
 520.27 109.71 499.79 147.256 492.964 187.238 c 2
 490.038 213.568 l 1
 491.501 239.899 l 1
 497.352 275.007 l 1
 523.683 264.767 l 1
 560.252 261.841 l 1
 592.434 266.229 l 1
 646.07 283.783 672.888 319.866 672.888 374.477 c 0
 672.888 420.311 642.169 453.468 580.731 473.947 c 1
 507.592 484.187 l 1
 402.27 488.575 l 2
 337.907 488.575 273.788 473.947 209.912 444.691 c 128
 146.036 415.436 112.148 387.155 108.247 359.849 c 2
 103.858 308.65 l 2
 103.858 281.345 108.734 253.064 118.486 223.809 c 2
 149.206 143.354 l 1
 149.206 177.486 162.371 210.644 188.701 242.825 c 128
 215.031 275.007 247.7 291.098 286.709 291.098 c 0
 327.667 291.098 363.75 276.956 394.956 248.676 c 0
 426.162 222.346 441.766 188.214 441.766 146.28 c 0
 441.766 108.247 426.65 73.6279 396.419 42.4209 c 0
 366.188 14.1406 331.568 0 292.56 0 c 2
 241.362 4.38867 l 2
 225.758 7.31445 211.619 12.6777 198.94 20.4795 c 0
 178.462 33.1572 154.081 55.5859 125.801 87.7676 c 0
 99.4707 122.875 78.9912 157.982 64.3633 193.09 c 0
 52.6611 228.197 46.8096 266.229 46.8096 307.188 c 2
 48.2725 351.072 l 1
 52.6611 392.03 l 2
 61.4375 478.822 98.0078 553.426 162.371 615.839 c 128
 226.734 678.252 305.238 709.458 397.882 709.458 c 256
 490.525 709.458 573.904 680.446 648.021 622.422 c 128
 722.136 564.396 759.193 490.525 759.193 400.808 c 0
 759.193 343.271 743.59 298.655 712.384 266.961 c 128
 681.178 235.267 637.781 219.42 582.194 219.42 c 2
 566.104 219.42 l 1
 536.848 222.346 l 1
 551.476 196.016 581.707 172.123 627.541 150.668 c 0
 649.971 140.916 672.888 133.115 696.293 127.264 c 128
 719.697 121.412 743.103 118.486 766.507 118.486 c 2
 811.854 122.875 l 2
 866.465 131.652 917.176 165.783 963.985 225.271 c 0
 972.762 238.924 1002.5 292.073 1053.22 384.717 c 0
 1059.07 393.493 1063.46 404.22 1066.38 416.898 c 2
 1078.08 459.319 l 1
 1111.73 459.319 l 1
 1136.6 457.856 l 1
 1132.21 408.121 l 2
 1123.43 340.832 1114.65 291.098 1105.88 258.916 c 0
 1091.25 207.23 1070.04 163.589 1042.25 127.995 c 128
 1014.45 92.4004 978.613 62.4131 934.729 38.0332 c 128
 890.846 13.6523 844.522 1.46289 795.764 1.46289 c 0
 730.424 1.46289 679.471 7.31445 642.9 19.0166 c 128
 606.331 30.7188 576.83 49.248 554.401 74.6025 c 0
1034.2 365.7 m 1
 1048.83 389.104 1057.6 414.46 1060.53 441.766 c 2
 1066.38 550.013 l 1
 1066.38 583.657 l 1
 1066.38 602.674 l 1
 1066.38 618.765 l 1
 1066.38 669.963 l 1
 1060.53 712.384 l 2
 1060.53 732.863 1058.09 749.44 1053.22 762.119 c 2
 1051.27 771.871 1043.95 788.937 1031.27 813.316 c 0
 993.241 894.258 957.646 951.796 924.489 985.928 c 0
 910.837 1002.5 888.896 1020.55 858.664 1040.05 c 0
 836.234 1054.68 802.59 1074.18 757.73 1098.56 c 0
 731.4 1110.27 688.492 1125.87 629.004 1145.37 c 2
 567.566 1157.08 l 1
 500.277 1161.46 l 1
 441.766 1158.54 l 1
 406.658 1157.08 l 2
 393.98 1157.08 380.328 1155.12 365.7 1151.22 c 2
 299.387 1143.42 254.527 1135.13 231.122 1126.36 c 2
 201.866 1120.5 162.371 1102.95 112.636 1073.7 c 1
 84.8428 1113.19 l 1
 174.073 1157.08 l 2
 203.329 1169.75 235.023 1180.48 269.155 1189.26 c 2
 307.188 1196.57 l 1
 358.386 1205.35 l 1
 432.989 1208.27 l 1
 488.575 1208.27 l 2
 568.542 1208.27 635.343 1200.47 688.979 1184.87 c 0
 721.16 1177.07 748.953 1166.34 772.358 1152.69 c 0
 796.739 1140.98 828.432 1121.48 867.44 1094.17 c 0
 921.077 1058.09 962.035 1023.96 990.315 991.778 c 0
 1003.97 978.126 1017.86 960.572 1032.01 939.117 c 128
 1046.15 917.663 1061.02 892.795 1076.62 864.515 c 0
 1101.98 813.804 1119.53 764.558 1129.28 716.772 c 0
 1133.18 695.317 1136.6 669.718 1139.52 639.975 c 128
 1142.45 610.231 1143.91 579.269 1143.91 547.087 c 0
 1143.91 467.12 1133.18 402.757 1111.73 353.998 c 2
 1053.22 236.974 l 1
 1041.51 294.022 l 1
 1034.2 334.981 l 1
 1034.2 365.7 l 1
EndSplineSet
EndChar
StartChar: uni0DB7
Encoding: 3511 3511 28
Width: 1423
VWidth: 2047
Flags: HW
Fore
956.671 38.0332 m 0
 1019.08 38.0332 1073.45 66.0703 1119.77 122.144 c 128
 1166.1 178.218 1189.26 246.727 1189.26 327.667 c 2
 1189.26 348.146 l 1
 1189.26 364.237 l 1
 1186.33 381.791 l 2
 1177.55 459.807 1150.25 523.683 1104.41 573.418 c 128
 1058.58 623.152 997.63 655.334 921.564 669.963 c 2
 873.292 674.351 l 2
 806.979 674.351 749.44 656.553 700.682 620.959 c 128
 651.922 585.364 627.541 538.798 627.541 481.261 c 1
 673.375 470.534 704.582 458.344 721.16 444.691 c 0
 766.021 408.608 788.449 345.708 788.449 255.99 c 0
 788.449 170.172 749.44 104.347 671.425 58.5117 c 0
 637.294 39.0078 599.748 24.3799 558.79 14.6279 c 0
 540.261 10.7275 519.05 7.31445 495.158 4.38867 c 128
 471.266 1.46289 447.617 0 424.212 0 c 0
 324.741 0 235.998 38.2764 157.982 114.83 c 128
 79.9668 191.383 40.958 277.445 40.958 373.014 c 0
 40.958 431.526 52.6611 482.237 76.0654 525.146 c 128
 99.4707 568.054 135.553 604.623 184.312 634.855 c 1
 67.2891 634.855 l 2
 58.5117 634.855 51.6855 642.169 46.8096 656.797 c 1
 46.8096 671.425 53.6357 679.227 67.2891 680.202 c 2
 514.905 680.202 l 1
 510.518 718.234 l 1
 503.203 740.177 l 1
 488.575 767.97 l 2
 481.748 782.598 469.559 796.25 452.005 808.929 c 0
 444.204 814.779 435.914 819.412 427.138 822.825 c 128
 418.36 826.237 409.584 827.945 400.808 827.945 c 1
 381.791 825.02 l 2
 355.46 819.168 328.398 800.883 300.605 770.164 c 128
 272.812 739.445 247.213 724.086 223.809 724.086 c 0
 204.305 724.086 187.726 730.424 174.073 743.103 c 0
 161.396 758.706 155.057 775.284 155.057 792.838 c 0
 155.057 817.218 168.222 839.647 194.553 860.126 c 0
 220.883 877.68 251.114 886.457 285.246 886.457 c 0
 315.478 886.457 343.271 884.507 368.626 880.605 c 128
 393.98 876.704 415.922 870.366 434.451 861.589 c 0
 470.534 846.961 502.228 817.218 529.533 772.358 c 0
 538.311 755.78 544.162 737.251 547.087 716.772 c 2
 552.938 640.706 l 1
 301.337 639.243 l 2
 259.402 639.243 215.519 610.963 169.685 554.401 c 128
 123.851 497.839 100.934 436.401 100.934 370.089 c 0
 100.934 320.354 135.309 277.688 204.061 242.094 c 128
 272.812 206.499 354.974 188.701 450.542 188.701 c 0
 523.683 188.701 587.314 202.842 641.438 231.122 c 128
 695.562 259.402 722.623 297.924 722.623 346.684 c 0
 722.623 406.171 677.764 435.914 588.046 435.914 c 1
 588.046 539.286 613.4 632.905 664.111 716.772 c 0
 725.549 818.192 808.441 868.903 912.787 868.903 c 0
 1041.51 868.903 1138.55 826.969 1203.88 743.103 c 0
 1262.4 667.037 1291.65 561.229 1291.65 425.675 c 0
 1291.65 302.8 1269.22 205.768 1224.36 134.577 c 0
 1168.78 44.8594 1080.03 0 958.134 0 c 0
 926.928 0 892.795 8.28906 855.738 24.8672 c 2
 839.647 30.7188 l 1
 800.151 49.7354 l 1
 811.854 84.8428 l 1
 861.589 61.4375 l 1
 905.474 46.8096 l 2
 925.952 40.958 943.019 38.0332 956.671 38.0332 c 0
EndSplineSet
EndChar
StartChar: uni0DB8
Encoding: 3512 3512 29
Width: 1225
VWidth: 2047
Flags: HW
Fore
500.277 702.145 m 0
 500.277 678.739 510.518 652.896 530.996 624.615 c 0
 551.476 602.187 577.806 590.971 609.987 590.971 c 2
 626.078 592.434 l 2
 652.409 595.359 673.863 606.575 690.441 626.078 c 0
 706.045 647.533 713.847 669.963 713.847 693.367 c 0
 713.847 722.623 704.825 748.467 686.784 770.896 c 128
 668.744 793.325 643.145 804.54 609.987 804.54 c 0
 591.458 804.54 576.588 802.833 565.372 799.42 c 128
 554.157 796.008 542.212 787.962 529.533 775.284 c 0
 510.03 755.78 500.277 731.4 500.277 702.145 c 0
42.4209 506.129 m 2
 42.4209 577.319 53.6357 641.193 76.0654 697.756 c 2
 95.082 737.251 l 1
 118.486 775.284 l 2
 131.164 792.838 150.182 812.341 175.536 833.796 c 0
 206.742 857.201 235.511 868.903 261.841 868.903 c 0
 296.948 868.903 332.543 847.937 368.626 806.003 c 1
 381.304 782.598 387.642 762.119 387.642 744.565 c 0
 387.642 730.913 383.254 713.847 374.477 693.367 c 0
 371.551 684.591 362.774 671.425 348.146 653.871 c 0
 327.667 627.541 317.428 603.649 317.428 582.194 c 0
 317.428 535.385 342.782 498.328 393.493 471.021 c 0
 441.278 449.566 493.451 438.84 550.013 438.84 c 0
 599.748 438.84 645.095 446.154 686.053 460.782 c 128
 727.012 475.41 759.193 497.352 782.598 526.608 c 0
 789.912 538.311 789.912 538.311 798.688 552.938 c 128
 804.54 562.69 809.416 572.442 813.316 582.194 c 0
 822.094 602.674 826.482 624.615 826.482 648.021 c 0
 826.482 675.326 819.168 699.705 804.54 721.16 c 128
 789.912 742.615 762.605 761.144 722.623 776.747 c 1
 727.499 773.821 734.325 760.656 743.103 737.251 c 1
 753.342 690.441 l 1
 753.342 662.161 743.59 633.88 724.086 605.6 c 0
 695.806 564.641 655.821 544.162 604.137 544.162 c 0
 569.029 544.162 538.311 555.62 511.98 578.537 c 128
 485.649 601.455 468.096 632.905 459.319 672.888 c 1
 459.319 723.599 469.071 763.095 488.575 791.375 c 0
 514.905 834.283 557.327 855.738 615.839 855.738 c 0
 627.541 855.738 627.541 855.738 636.318 855.738 c 128
 642.169 855.738 651.922 854.031 665.574 850.618 c 128
 679.227 847.205 699.705 839.647 727.012 827.945 c 0
 767.97 810.392 802.59 787.474 830.87 759.193 c 0
 849.399 741.64 863.052 719.697 871.829 693.367 c 128
 880.605 667.037 884.994 646.07 884.994 630.467 c 2
 883.531 592.434 l 2
 883.531 583.657 879.63 570.005 871.829 551.476 c 0
 865.978 533.922 853.788 514.418 835.259 492.964 c 0
 805.027 453.955 764.558 423.725 713.847 402.27 c 0
 673.863 387.642 622.177 380.328 558.79 380.328 c 0
 489.551 380.328 422.749 395.932 358.386 427.138 c 128
 294.022 458.344 261.841 498.814 261.841 548.55 c 2
 266.229 585.12 l 2
 269.155 601.698 274.52 614.863 282.32 624.615 c 2
 327.667 693.367 l 1
 340.832 716.772 l 1
 343.758 737.251 l 1
 343.758 747.978 337.662 762.851 325.473 781.866 c 128
 313.283 800.883 295.973 810.392 273.544 810.392 c 0
 257.939 810.392 246.237 807.953 238.437 803.077 c 2
 209.181 785.523 l 2
 192.603 772.846 172.61 750.903 149.206 719.697 c 0
 123.851 677.764 111.173 630.467 111.173 577.806 c 2
 111.173 513.442 l 2
 111.173 502.716 117.024 484.674 128.727 459.319 c 0
 156.032 403.732 211.861 353.753 296.217 309.382 c 128
 380.572 265.011 467.12 242.825 555.864 242.825 c 0
 632.905 242.825 700.682 252.089 759.193 270.618 c 0
 794.301 279.395 836.234 298.898 884.994 329.13 c 0
 921.077 348.634 954.232 376.427 984.465 412.51 c 1
 1000.56 440.303 l 1
 1018.11 475.41 l 1
 1044.44 560.252 l 1
 1119.04 558.79 l 1
 1119.04 530.996 l 1
 1119.04 510.518 l 1
 1116.12 492.964 l 1
 1116.12 482.237 1111.73 463.708 1102.95 437.377 c 0
 1094.17 400.32 1076.13 354.974 1048.83 301.337 c 0
 1038.1 276.956 1026.15 254.771 1012.99 234.779 c 128
 999.824 214.787 983.002 194.553 962.522 174.073 c 0
 926.439 137.016 884.994 104.834 838.185 77.5283 c 0
 802.102 57.0488 756.755 37.5449 702.145 19.0166 c 0
 648.508 6.33887 601.211 0 560.252 0 c 0
 475.41 0 378.378 32.6689 269.155 98.0078 c 0
 152.131 168.222 83.3799 243.801 62.9004 324.741 c 2
 48.2725 408.121 l 1
 42.4209 506.129 l 2
1042.98 544.162 m 1
 1042.98 577.806 l 1
 1042.98 596.822 l 1
 1042.98 612.913 l 1
 1042.98 664.111 l 1
 1037.12 706.532 l 2
 1037.12 727.012 1034.69 743.59 1029.81 756.268 c 2
 1027.86 766.021 1020.55 783.085 1007.87 807.466 c 0
 969.836 888.406 934.242 945.944 901.085 980.076 c 0
 887.433 996.654 865.49 1014.7 835.259 1034.2 c 0
 812.83 1048.83 779.186 1068.33 734.325 1092.71 c 0
 707.995 1104.41 665.087 1120.02 605.6 1139.52 c 2
 544.162 1151.22 l 1
 476.873 1155.61 l 1
 418.36 1152.69 l 1
 383.254 1151.22 l 2
 370.575 1151.22 356.923 1149.27 342.295 1145.37 c 2
 275.982 1137.57 231.122 1129.28 207.718 1120.5 c 2
 178.462 1114.65 138.966 1097.1 89.2305 1067.84 c 1
 61.4375 1107.34 l 1
 150.668 1151.22 l 2
 179.925 1163.9 211.619 1174.63 245.75 1183.41 c 2
 283.783 1190.72 l 1
 334.981 1199.5 l 1
 409.584 1202.42 l 1
 465.17 1202.42 l 2
 545.138 1202.42 611.938 1194.62 665.574 1179.02 c 0
 697.756 1171.22 725.549 1160.49 748.953 1146.83 c 0
 773.334 1135.13 805.027 1115.63 844.035 1088.32 c 0
 897.672 1052.24 938.631 1018.11 966.911 985.928 c 0
 980.563 972.275 994.46 954.722 1008.6 933.267 c 128
 1022.74 911.812 1037.61 886.944 1053.22 858.664 c 0
 1077.6 810.878 1095.64 761.144 1107.34 709.458 c 1
 1114.65 615.839 l 1
 1116.12 539.773 l 1
 1042.98 544.162 l 1
EndSplineSet
EndChar
StartChar: uni0DB9
Encoding: 3513 3513 30
Width: 1258
VWidth: 2047
Flags: HW
Fore
522.22 729.938 m 0
 522.22 705.557 530.51 684.591 547.087 667.037 c 128
 563.665 649.483 584.633 640.706 609.987 640.706 c 0
 637.294 640.706 660.941 650.215 680.934 669.231 c 128
 700.926 688.247 710.921 710.921 710.921 737.251 c 0
 710.921 758.706 702.389 779.428 685.322 799.42 c 128
 668.255 819.412 647.533 829.407 623.152 829.407 c 0
 595.847 829.407 572.199 819.655 552.207 800.151 c 128
 532.215 780.648 522.22 757.243 522.22 729.938 c 0
811.854 0 m 0
 766.021 0 723.599 17.5537 684.591 52.6611 c 128
 645.582 87.7676 626.078 130.677 626.078 181.387 c 0
 626.078 199.916 628.517 214.3 633.393 224.54 c 128
 638.268 234.779 646.07 246.727 656.797 260.379 c 1
 691.904 280.857 l 1
 707.508 286.709 717.259 295.973 721.16 308.65 c 1
 721.16 326.204 714.091 337.907 699.95 343.758 c 128
 685.809 349.609 665.574 352.535 639.243 352.535 c 2
 609.987 351.072 l 1
 589.509 351.072 l 2
 570.005 351.072 553.183 350.585 539.042 349.609 c 128
 524.901 348.634 512.956 346.684 503.203 343.758 c 0
 484.674 340.832 475.41 326.691 475.41 301.337 c 0
 475.41 295.485 478.336 289.635 484.187 283.783 c 1
 517.831 263.304 l 1
 533.922 248.676 l 2
 540.749 243.801 548.306 235.755 556.596 224.54 c 128
 564.885 213.324 569.029 198.94 569.029 181.387 c 0
 569.029 131.652 546.6 89.4746 501.74 54.8555 c 128
 456.881 20.2354 407.146 2.92578 352.535 2.92578 c 0
 255.99 2.92578 177.486 51.1982 117.024 147.743 c 0
 69.2393 234.535 45.3467 337.907 45.3467 457.856 c 0
 45.3467 568.054 66.3135 660.698 108.247 735.788 c 0
 157.982 825.506 227.71 870.366 317.428 870.366 c 0
 364.237 870.366 400.32 850.374 425.675 810.392 c 1
 432.989 782.598 l 1
 419.823 731.4 l 1
 412.51 699.219 l 1
 412.51 690.441 414.46 682.152 418.36 674.351 c 0
 437.864 633.393 462.245 602.187 491.501 580.731 c 0
 521.732 561.229 557.327 551.476 598.285 551.476 c 0
 651.922 551.476 697.756 562.69 735.788 585.12 c 0
 781.622 610.475 804.54 643.632 804.54 684.591 c 2
 803.077 700.682 l 2
 800.151 723.11 792.838 744.078 781.135 763.582 c 1
 776.26 775.284 760.169 787.962 732.863 801.614 c 1
 743.103 772.358 l 1
 747.491 740.177 l 2
 747.491 704.094 734.812 672.888 709.458 646.558 c 128
 684.104 620.228 652.896 607.062 615.839 607.062 c 0
 579.756 607.062 549.037 618.521 523.683 641.438 c 128
 498.328 664.355 485.649 694.343 485.649 731.4 c 0
 485.649 759.681 495.645 785.523 515.637 808.929 c 128
 535.629 832.333 564.153 851.837 601.211 867.44 c 0
 620.715 873.292 639.243 876.217 656.797 876.217 c 0
 701.657 876.217 744.078 856.957 784.061 818.437 c 128
 824.044 779.917 844.035 735.788 844.035 686.053 c 0
 844.035 627.541 819.412 579.513 770.164 541.968 c 128
 720.916 504.422 663.136 485.649 596.822 485.649 c 0
 549.037 485.649 501.984 503.447 455.662 539.042 c 128
 409.34 574.636 378.865 619.252 364.237 672.888 c 2
 361.312 691.904 l 1
 362.774 715.31 l 1
 373.014 741.64 l 2
 381.791 761.144 386.18 773.334 386.18 778.21 c 256
 386.18 783.085 382.522 790.399 375.208 800.151 c 128
 367.895 809.904 359.361 816.242 349.609 819.168 c 128
 339.856 822.094 325.229 823.557 305.726 823.557 c 0
 234.535 823.557 179.438 780.159 140.429 693.367 c 0
 114.099 629.004 100.934 544.648 100.934 440.303 c 0
 100.934 378.865 117.512 329.617 150.668 292.56 c 0
 168.222 272.081 199.428 251.602 244.287 231.122 c 2
 311.576 204.792 l 2
 349.609 193.09 385.203 187.238 418.36 187.238 c 256
 451.519 187.238 480.774 193.577 506.129 206.255 c 1
 514.905 219.42 l 2
 517.831 222.346 519.294 226.247 519.294 231.122 c 0
 519.294 239.899 503.69 252.577 472.484 269.155 c 0
 441.278 283.783 425.675 300.85 425.675 320.354 c 256
 425.675 339.856 434.207 356.679 451.273 370.819 c 128
 468.34 384.961 490.525 393.493 517.831 396.419 c 2
 589.509 400.808 l 1
 640.706 399.345 l 1
 686.053 393.493 l 2
 704.582 393.493 722.136 386.666 738.714 373.014 c 1
 758.218 361.312 767.97 344.245 767.97 321.816 c 0
 767.97 304.263 753.586 287.44 724.817 271.35 c 128
 696.049 255.259 679.715 241.849 675.813 231.122 c 1
 681.665 216.494 l 1
 690.441 206.255 l 1
 727.012 196.016 l 1
 750.416 194.553 l 1
 782.598 194.553 l 1
 804.54 200.403 l 2
 867.928 211.13 914.25 227.466 943.506 249.407 c 128
 972.762 271.35 1009.33 316.452 1053.22 384.717 c 1
 1066.38 416.898 l 1
 1078.08 459.319 l 1
 1111.73 459.319 l 1
 1136.6 457.856 l 1
 1132.21 408.121 l 2
 1118.55 306.701 1088.81 214.056 1042.98 130.189 c 0
 1020.55 89.2305 989.584 57.293 950.089 34.376 c 128
 910.593 11.459 864.515 0 811.854 0 c 0
1034.2 365.7 m 1
 1048.83 389.104 1057.6 414.46 1060.53 441.766 c 2
 1066.38 550.013 l 1
 1066.38 583.657 l 1
 1066.38 602.674 l 1
 1066.38 618.765 l 1
 1066.38 669.963 l 1
 1060.53 712.384 l 2
 1060.53 732.863 1058.09 749.44 1053.22 762.119 c 2
 1051.27 771.871 1043.95 788.937 1031.27 813.316 c 0
 993.241 894.258 957.646 951.796 924.489 985.928 c 0
 910.837 1002.5 888.896 1020.55 858.664 1040.05 c 0
 836.234 1054.68 802.59 1074.18 757.73 1098.56 c 0
 731.4 1110.27 688.492 1125.87 629.004 1145.37 c 2
 567.566 1157.08 l 1
 500.277 1161.46 l 1
 441.766 1158.54 l 1
 406.658 1157.08 l 2
 393.98 1157.08 380.328 1155.12 365.7 1151.22 c 2
 299.387 1143.42 254.527 1135.13 231.122 1126.36 c 2
 201.866 1120.5 162.371 1102.95 112.636 1073.7 c 1
 84.8428 1113.19 l 1
 174.073 1157.08 l 2
 203.329 1169.75 235.023 1180.48 269.155 1189.26 c 2
 307.188 1196.57 l 1
 358.386 1205.35 l 1
 432.989 1208.27 l 1
 488.575 1208.27 l 2
 568.542 1208.27 635.343 1200.47 688.979 1184.87 c 0
 721.16 1177.07 748.953 1166.34 772.358 1152.69 c 0
 796.739 1140.98 828.432 1121.48 867.44 1094.17 c 0
 921.077 1058.09 962.035 1023.96 990.315 991.778 c 0
 1003.97 978.126 1017.86 960.572 1032.01 939.117 c 128
 1046.15 917.663 1061.02 892.795 1076.62 864.515 c 0
 1101.98 813.804 1119.53 764.558 1129.28 716.772 c 0
 1133.18 695.317 1136.6 669.718 1139.52 639.975 c 128
 1142.45 610.231 1143.91 579.269 1143.91 547.087 c 0
 1143.91 467.12 1133.18 402.757 1111.73 353.998 c 2
 1053.22 236.974 l 1
 1041.51 294.022 l 1
 1034.2 334.981 l 1
 1034.2 365.7 l 1
EndSplineSet
EndChar
StartChar: uni0DBA
Encoding: 3514 3514 31
Width: 1296
VWidth: 2047
Flags: HW
Fore
528.07 655.334 m 1
 484.187 690.441 435.914 707.995 383.254 707.995 c 256
 330.593 707.995 276.469 683.128 220.883 633.393 c 0
 159.445 578.781 128.727 517.344 128.727 449.08 c 0
 128.727 398.369 152.618 348.634 200.403 299.874 c 0
 253.064 245.264 315.965 217.957 389.104 217.957 c 2
 416.898 217.957 l 1
 437.377 217.957 l 1
 454.931 220.883 l 1
 475.41 222.346 l 2
 482.237 222.346 492.964 226.247 507.592 234.048 c 1
 545.624 247.7 575.367 270.618 596.822 302.8 c 0
 605.6 316.452 611.45 329.13 614.376 340.832 c 2
 629.004 427.138 l 1
 640.706 427.138 l 1
 645.095 375.939 l 2
 648.021 363.262 656.797 341.809 671.425 311.576 c 0
 686.053 285.246 715.796 261.354 760.656 239.899 c 0
 804.54 222.346 852.325 213.568 904.011 213.568 c 0
 972.275 219.42 1022.01 235.023 1053.22 260.379 c 0
 1094.17 288.658 1122.94 345.708 1139.52 431.526 c 2
 1140.98 456.394 l 2
 1140.98 485.649 1132.21 513.442 1114.65 539.773 c 1
 1075.16 580.731 l 1
 1037.12 614.376 l 2
 1028.35 623.152 1008.84 631.93 978.613 640.706 c 2
 933.267 650.946 l 1
 883.531 655.334 l 1
 687.516 655.334 l 1
 686.053 688.979 l 1
 687.516 706.532 l 2
 696.293 749.44 728.719 790.888 784.792 830.87 c 128
 840.865 870.854 901.085 890.846 965.448 890.846 c 0
 1022.98 890.846 1070.28 878.655 1107.34 854.275 c 0
 1150.25 825.995 1171.7 786.986 1171.7 737.251 c 0
 1171.7 707.02 1167.31 682.396 1158.54 663.38 c 128
 1149.76 644.363 1129.77 628.028 1098.56 614.376 c 1
 1107.34 607.062 l 1
 1123.43 593.896 l 1
 1157.08 547.087 l 2
 1173.65 517.831 1187.06 487.112 1197.3 454.931 c 128
 1207.54 422.749 1212.66 390.08 1212.66 356.923 c 0
 1212.66 309.138 1209.49 272.568 1203.15 247.213 c 128
 1196.81 221.858 1181.94 189.677 1158.54 150.668 c 0
 1123.43 94.1064 1081.98 55.8301 1034.2 35.8389 c 128
 986.414 15.8467 924.489 5.85156 848.424 5.85156 c 0
 823.069 5.85156 796.25 11.7021 767.97 23.4053 c 0
 747.491 35.1074 724.086 54.124 697.756 80.4541 c 2
 656.797 134.577 l 1
 649.971 147.256 643.632 170.66 637.781 204.792 c 1
 634.855 184.312 627.054 164.32 614.376 144.817 c 2
 602.674 125.801 l 1
 571.955 87.7676 l 2
 559.276 72.165 537.335 53.6357 506.129 32.1816 c 0
 501.253 29.2559 492.72 25.5986 480.53 21.2109 c 128
 462.245 14.6279 462.245 14.6279 440.303 7.31445 c 1
 397.882 2.92578 l 1
 367.163 4.38867 l 2
 360.336 4.38867 348.146 7.80176 330.593 14.6279 c 0
 245.75 38.0332 180.169 80.6982 133.847 142.623 c 128
 87.5244 204.548 64.3633 286.222 64.3633 387.642 c 0
 64.3633 486.137 91.1816 569.517 144.817 637.781 c 0
 204.305 711.896 279.882 748.953 371.551 748.953 c 0
 398.857 748.953 425.675 744.565 452.005 735.788 c 0
 477.36 728.962 508.079 712.871 544.162 687.516 c 1
 528.07 655.334 l 1
921.564 694.83 m 2
 938.142 694.83 962.035 690.441 993.241 681.665 c 2
 1056.14 656.797 l 1
 1072.23 653.871 l 1
 1087.84 653.871 1099.78 660.698 1108.07 674.351 c 128
 1116.36 688.003 1120.5 704.094 1120.5 722.623 c 0
 1120.5 738.227 1119.53 747.004 1117.58 748.953 c 2
 1109.78 775.284 1093.2 795.764 1067.84 810.392 c 0
 1038.59 827.945 996.167 836.722 940.58 836.722 c 0
 889.869 836.722 846.717 825.506 811.123 803.077 c 128
 775.528 780.648 748.953 744.565 731.4 694.83 c 1
 823.557 694.83 l 1
 921.564 694.83 l 2
EndSplineSet
EndChar
StartChar: uni0DBB
Encoding: 3515 3515 32
Width: 1180
VWidth: 2047
Flags: HW
Fore
105.321 190.164 m 2
 83.3799 225.271 l 1
 58.5117 269.155 l 1
 43.8838 323.279 l 1
 38.0332 374.477 l 2
 38.0332 459.319 58.5117 533.922 99.4707 598.285 c 128
 140.429 662.648 198.94 715.31 275.007 756.268 c 2
 498.814 860.126 l 2
 549.525 882.556 598.285 907.912 645.095 936.192 c 2
 712.384 980.076 l 2
 735.788 996.654 757.243 1013.72 776.747 1031.27 c 2
 895.233 1146.83 l 2
 907.912 1159.51 922.54 1177.55 939.117 1200.96 c 0
 964.473 1236.07 990.803 1259.47 1018.11 1271.17 c 1
 1048.83 1277.02 l 1
 1067.36 1277.02 1081.5 1272.88 1091.25 1264.59 c 128
 1101 1256.3 1109.78 1241.92 1117.58 1221.44 c 1
 1120.5 1199.01 1115.87 1172.92 1103.68 1143.18 c 128
 1091.49 1113.44 1073.21 1085.88 1048.83 1060.53 c 0
 1005.92 1014.7 950.333 974.712 882.068 940.58 c 2
 681.665 870.366 l 1
 633.393 855.738 l 1
 577.806 842.573 l 1
 624.615 842.573 l 2
 645.095 842.573 658.26 841.598 664.111 839.647 c 1
 677.764 839.647 703.12 835.259 740.177 826.482 c 0
 807.466 808.929 861.103 787.962 901.085 763.582 c 0
 945.944 735.301 983.978 693.367 1015.18 637.781 c 0
 1028.84 613.4 1040.54 585.364 1050.29 553.67 c 128
 1060.04 521.976 1064.92 489.551 1064.92 456.394 c 0
 1064.92 392.03 1056.14 336.444 1038.59 289.635 c 128
 1021.03 242.825 990.315 194.309 946.432 144.086 c 128
 902.548 93.8633 849.399 55.5859 786.986 29.2559 c 2
 747.491 16.0908 l 1
 684.591 2.92578 l 2
 657.284 -1.9502 625.103 -4.38867 588.046 -4.38867 c 2
 490.038 0 l 2
 396.419 8.77637 323.279 24.8672 270.618 48.2725 c 0
 207.23 77.5283 152.131 124.825 105.321 190.164 c 2
181.387 295.485 m 0
 213.568 274.03 265.985 251.114 338.639 226.734 c 128
 411.291 202.354 478.822 190.164 541.236 190.164 c 2
 561.715 190.164 l 1
 579.269 190.164 l 2
 618.277 190.164 648.752 192.114 670.693 196.016 c 128
 692.636 199.916 712.871 205.768 731.4 213.568 c 0
 749.93 219.42 770.408 230.146 792.838 245.75 c 0
 863.052 284.759 908.398 316.452 928.878 340.832 c 0
 966.911 378.865 985.928 424.699 985.928 478.336 c 2
 987.39 507.592 l 2
 987.39 574.881 963.741 631.93 916.444 678.739 c 128
 869.147 725.549 805.027 757.73 724.086 775.284 c 2
 667.037 784.061 l 1
 609.987 786.986 l 1
 567.566 786.986 l 2
 508.079 786.986 459.075 782.354 420.555 773.09 c 128
 382.035 763.826 339.856 747.004 294.022 722.623 c 2
 238.437 690.441 l 1
 216.494 675.813 l 1
 209.668 672.888 203.816 668.013 198.94 661.186 c 2
 176.512 641.682 155.057 611.938 134.577 571.955 c 1
 117.024 517.831 l 1
 111.173 462.245 l 2
 111.173 449.566 111.904 436.646 113.367 423.48 c 128
 114.83 410.315 119.462 393.006 127.264 371.551 c 0
 138.966 342.295 157.007 316.94 181.387 295.485 c 0
EndSplineSet
EndChar
StartChar: uni0DBD
Encoding: 3517 3517 33
Width: 1214
VWidth: 2047
Flags: HW
Fore
1013.72 -105.321 m 2
 964.961 -159.933 901.085 -195.039 822.094 -210.644 c 2
 757.73 -222.346 l 2
 720.673 -228.197 687.029 -231.122 656.797 -231.122 c 2
 608.524 -229.659 l 1
 558.79 -220.883 l 2
 502.228 -212.106 451.029 -194.065 405.195 -166.759 c 0
 347.659 -136.528 296.461 -97.5205 251.602 -49.7354 c 0
 171.635 30.2314 117.268 98.7393 88.499 155.788 c 128
 59.7305 212.838 45.3467 278.908 45.3467 353.998 c 2
 51.1982 468.096 l 2
 51.1982 490.525 55.8301 514.418 65.0947 539.773 c 128
 74.3594 565.128 87.7676 590.484 105.321 615.839 c 0
 131.652 660.698 173.586 706.532 231.122 753.342 c 0
 279.882 793.325 332.543 823.069 389.104 842.573 c 128
 445.667 862.076 507.104 871.829 573.418 871.829 c 0
 755.78 871.829 874.754 851.837 930.341 811.854 c 0
 987.877 773.821 1016.65 694.83 1016.65 574.881 c 0
 1016.65 510.518 991.291 463.221 940.58 432.989 c 0
 917.176 420.311 889.383 410.071 857.201 402.27 c 0
 841.598 399.345 824.775 396.906 806.734 394.956 c 128
 788.693 393.006 768.945 392.03 747.491 392.03 c 2
 659.723 396.419 l 2
 630.467 399.345 598.772 412.51 564.641 435.914 c 0
 535.385 459.319 520.757 489.551 520.757 526.608 c 0
 520.757 555.864 534.409 584.633 561.715 612.913 c 1
 450.542 614.376 l 2
 433.965 614.376 424.212 621.69 421.286 636.318 c 1
 425.675 640.706 l 1
 440.303 652.409 l 1
 449.08 655.334 l 1
 785.523 653.871 l 1
 810.392 649.483 l 1
 816.242 643.632 820.144 638.757 822.094 634.855 c 1
 822.094 626.078 816.729 619.74 806.003 615.839 c 1
 785.523 612.913 l 1
 609.987 614.376 l 1
 595.359 608.524 583.657 599.261 574.881 586.583 c 1
 570.005 574.881 566.591 560.739 564.641 544.162 c 1
 567.566 521.732 579.756 505.642 601.211 495.89 c 0
 612.913 490.038 636.318 484.187 671.425 478.336 c 2
 724.086 472.484 l 1
 779.673 471.021 l 2
 842.086 471.021 890.358 480.285 924.489 498.814 c 0
 966.424 521.244 987.39 556.352 987.39 604.137 c 0
 987.39 688.979 957.402 747.978 897.428 781.135 c 128
 837.453 814.293 735.788 830.87 592.434 830.87 c 0
 525.146 830.87 465.657 812.341 413.973 775.284 c 0
 370.089 743.103 329.13 692.88 291.098 624.615 c 0
 261.841 570.005 247.213 493.451 247.213 394.956 c 0
 247.213 314.015 255.259 250.383 271.35 204.061 c 128
 287.44 157.738 321.816 99.4707 374.477 29.2559 c 0
 423.236 -35.1074 473.46 -77.5283 525.146 -98.0078 c 0
 595.359 -122.388 650.946 -134.577 691.904 -134.577 c 0
 715.31 -134.577 737.251 -133.603 757.73 -131.652 c 128
 778.21 -129.701 803.564 -125.801 833.796 -119.949 c 0
 884.507 -111.173 931.804 -86.3057 975.688 -45.3467 c 2
 1023.96 4.38867 l 2
 1038.59 21.9424 1050.78 44.8594 1060.53 73.1396 c 1
 1066.38 114.099 l 1
 1066.38 136.528 1059.07 163.347 1044.44 194.553 c 2
 994.704 277.932 l 1
 1022.5 307.188 l 1
 1042.98 276.469 l 1
 1061.99 242.825 l 1
 1091.25 179.925 l 1
 1105.88 133.115 l 1
 1113.19 87.7676 l 1
 1111.73 71.6768 l 2
 1106.85 27.793 1093.2 -9.26465 1070.77 -39.4951 c 2
 1013.72 -105.321 l 2
EndSplineSet
EndChar
StartChar: uni0DC0
Encoding: 3520 3520 34
Width: 1225
VWidth: 2047
Flags: HW
Fore
185.775 623.152 m 2
 222.346 640.706 l 1
 263.304 652.409 l 2
 288.658 658.26 317.428 661.186 349.609 661.186 c 2
 528.07 662.648 l 1
 528.07 677.276 523.195 692.392 513.442 707.995 c 0
 498.814 733.35 476.873 753.829 447.617 769.433 c 0
 432.013 778.21 417.874 784.305 405.195 787.718 c 128
 392.518 791.131 377.89 792.838 361.312 792.838 c 0
 329.13 792.838 307.675 784.548 296.948 767.97 c 1
 291.098 753.342 282.808 742.127 272.081 734.325 c 1
 232.585 716.772 l 1
 201.866 713.847 l 2
 190.164 713.847 179.68 716.041 170.416 720.429 c 128
 161.152 724.817 154.569 730.913 150.668 738.714 c 128
 146.768 746.516 143.842 756.755 141.892 769.433 c 1
 141.892 786.011 147.743 801.614 159.445 816.242 c 0
 172.123 828.921 189.188 839.16 210.644 846.961 c 2
 257.453 857.201 l 1
 296.948 863.052 l 1
 340.832 858.664 l 2
 359.361 858.664 382.767 852.325 411.047 839.647 c 2
 456.394 817.705 l 1
 504.666 786.986 l 2
 521.244 775.284 537.335 754.073 552.938 723.354 c 128
 568.542 692.636 576.343 657.284 576.343 617.302 c 1
 472.484 617.302 l 2
 396.419 617.302 341.319 613.4 307.188 605.6 c 0
 262.328 599.748 228.197 588.533 204.792 571.955 c 0
 190.164 563.178 174.805 547.331 158.714 524.414 c 128
 142.623 501.496 134.577 479.799 134.577 459.319 c 0
 134.577 395.932 163.347 346.196 220.883 310.113 c 0
 295.973 265.254 407.634 242.825 555.864 242.825 c 0
 632.905 242.825 700.682 252.089 759.193 270.618 c 0
 794.301 279.395 836.234 298.898 884.994 329.13 c 0
 923.026 348.634 955.695 376.184 983.002 411.778 c 128
 1010.31 447.372 1032.74 496.376 1050.29 558.79 c 1
 1119.04 558.79 l 1
 1119.04 530.996 l 1
 1119.04 510.518 l 1
 1116.12 492.964 l 1
 1116.12 482.237 1111.73 463.708 1102.95 437.377 c 0
 1094.17 400.32 1076.13 354.974 1048.83 301.337 c 0
 1038.1 276.956 1026.15 254.771 1012.99 234.779 c 128
 999.824 214.787 983.002 194.553 962.522 174.073 c 0
 926.439 137.016 884.994 104.834 838.185 77.5283 c 0
 802.102 57.0488 756.755 37.5449 702.145 19.0166 c 0
 648.508 6.33887 601.211 0 560.252 0 c 0
 455.906 0 353.511 27.3057 253.064 81.917 c 0
 126.288 147.256 62.9004 228.197 62.9004 324.741 c 2
 62.9004 428.601 l 1
 67.2891 487.112 l 2
 70.2148 502.716 74.8467 517.831 81.1855 532.459 c 128
 87.5244 547.087 99.4707 561.715 117.024 576.343 c 128
 134.577 590.971 157.495 606.575 185.775 623.152 c 2
1059.07 520.757 m 1
 1042.98 583.657 l 1
 1038.59 612.913 l 1
 1037.12 640.706 l 1
 1037.12 667.037 l 1
 1038.59 696.293 l 1
 1037.12 712.384 l 2
 1037.12 732.863 1034.69 749.44 1029.81 762.119 c 2
 1027.86 771.871 1020.55 788.937 1007.87 813.316 c 0
 969.836 894.258 934.242 951.796 901.085 985.928 c 0
 887.433 1002.5 865.49 1020.55 835.259 1040.05 c 0
 812.83 1054.68 779.186 1074.18 734.325 1098.56 c 0
 707.995 1110.27 665.087 1125.87 605.6 1145.37 c 2
 544.162 1157.08 l 1
 476.873 1161.46 l 1
 418.36 1158.54 l 1
 383.254 1157.08 l 2
 370.575 1157.08 356.923 1155.12 342.295 1151.22 c 2
 275.982 1143.42 231.122 1135.13 207.718 1126.36 c 2
 178.462 1120.5 138.966 1102.95 89.2305 1073.7 c 1
 61.4375 1113.19 l 1
 150.668 1157.08 l 2
 179.925 1169.75 211.619 1180.48 245.75 1189.26 c 2
 283.783 1196.57 l 1
 334.981 1205.35 l 1
 409.584 1208.27 l 1
 465.17 1208.27 l 2
 545.138 1208.27 611.938 1200.47 665.574 1184.87 c 0
 697.756 1177.07 725.549 1166.34 748.953 1152.69 c 0
 773.334 1140.98 805.027 1121.48 844.035 1094.17 c 0
 897.672 1058.09 938.631 1023.96 966.911 991.778 c 0
 980.563 978.126 994.46 960.572 1008.6 939.117 c 128
 1022.74 917.663 1037.61 892.795 1053.22 864.515 c 0
 1078.57 813.804 1096.12 764.558 1105.88 716.772 c 0
 1109.78 695.317 1113.19 669.718 1116.12 639.975 c 128
 1119.04 610.231 1120.5 579.269 1120.5 547.087 c 1
 1059.07 520.757 l 1
EndSplineSet
EndChar
StartChar: uni0DC1
Encoding: 3521 3521 35
Width: 1423
VWidth: 2047
Flags: HW
Fore
1123.43 81.917 m 1
 1142.45 115.562 l 1
 1161.46 153.594 l 1
 1187.79 228.197 l 1
 1173.17 248.676 1154.39 266.717 1131.48 282.32 c 128
 1108.56 297.924 1084.42 305.726 1059.07 305.726 c 2
 1042.98 304.263 l 2
 1010.79 301.337 984.951 291.584 965.448 275.007 c 0
 945.944 260.379 933.022 241.118 926.684 217.226 c 128
 920.346 193.334 917.176 173.586 917.176 157.982 c 0
 917.176 131.652 926.439 112.148 944.969 99.4707 c 1
 969.836 92.1562 l 1
 981.539 92.1562 994.217 94.8379 1007.87 100.202 c 128
 1021.52 105.565 1032.74 108.247 1041.51 108.247 c 0
 1065.89 108.247 1080.03 107.271 1083.93 105.321 c 2
 1090.76 105.321 1103.93 97.5205 1123.43 81.917 c 1
188.701 106.784 m 2
 137.991 152.618 101.421 200.647 78.9912 250.87 c 128
 56.5615 301.093 45.3467 359.849 45.3467 427.138 c 0
 45.3467 499.302 55.3428 559.766 75.334 608.524 c 128
 95.3262 657.284 129.214 707.995 176.999 760.656 c 0
 200.403 786.011 238.924 810.392 292.56 833.796 c 2
 364.237 855.738 l 1
 400.808 861.589 l 1
 440.303 863.052 l 2
 481.261 863.052 533.922 852.812 598.285 832.333 c 1
 598.285 785.523 l 1
 513.442 804.54 l 1
 435.914 810.392 l 2
 390.08 810.392 351.56 804.296 320.354 792.106 c 128
 289.147 779.917 256.966 757.243 223.809 724.086 c 0
 163.347 665.574 133.115 597.31 133.115 519.294 c 2
 134.577 482.724 l 2
 134.577 394.956 173.586 323.766 251.602 269.155 c 0
 277.932 250.626 305.726 237.461 334.981 229.659 c 0
 350.585 226.734 366.676 224.296 383.254 222.346 c 128
 399.832 220.396 418.36 219.42 438.84 219.42 c 0
 505.153 219.42 560.252 227.221 604.137 242.825 c 0
 656.797 262.328 693.367 293.536 713.847 336.444 c 1
 719.697 361.312 l 1
 719.697 383.74 709.702 404.951 689.71 424.943 c 128
 669.718 444.936 648.508 457.856 626.078 463.708 c 1
 586.583 468.096 l 1
 552.938 465.17 l 1
 517.831 460.782 l 1
 517.831 550.5 548.55 640.22 609.987 729.938 c 0
 680.202 828.432 766.507 877.68 868.903 877.68 c 0
 1002.5 877.68 1107.34 839.647 1183.41 763.582 c 0
 1249.72 692.392 1282.88 592.434 1282.88 463.708 c 2
 1281.41 421.286 l 1
 1277.02 371.551 l 1
 1268.25 314.502 l 2
 1256.54 249.163 1210.71 146.28 1130.74 5.85156 c 1
 1120.99 20.4795 1106.61 33.8887 1087.59 46.0781 c 128
 1068.58 58.2686 1051.27 64.3633 1035.66 64.3633 c 0
 1018.11 64.3633 1000.56 59.9746 983.002 51.1982 c 128
 965.448 42.4209 945.944 27.3057 924.489 5.85156 c 1
 880.605 95.082 l 2
 869.879 122.388 864.515 146.28 864.515 166.759 c 0
 864.515 208.693 873.292 245.75 890.846 277.932 c 0
 908.398 305.238 939.117 326.204 983.002 340.832 c 0
 1006.41 346.684 1028.84 349.609 1050.29 349.609 c 0
 1078.57 349.609 1103.93 344.733 1126.36 334.981 c 0
 1144.88 328.154 1169.26 309.138 1199.5 277.932 c 1
 1208.27 326.204 l 1
 1214.12 375.939 l 2
 1214.12 403.246 1209.74 431.039 1200.96 459.319 c 128
 1192.18 487.6 1174.14 517.344 1146.83 548.55 c 0
 1108.8 594.384 1070.28 626.565 1031.27 645.095 c 0
 1013.72 652.896 988.853 660.21 956.671 667.037 c 0
 941.067 669.963 925.465 672.4 909.861 674.351 c 128
 894.258 676.301 877.193 677.276 858.664 677.276 c 0
 769.92 677.276 702.875 663.136 657.528 634.855 c 128
 612.182 606.575 582.194 562.202 567.566 501.74 c 1
 595.847 501.74 626.565 494.913 659.723 481.261 c 0
 696.78 469.559 726.036 448.104 747.491 416.898 c 0
 760.169 400.32 769.188 383.254 774.553 365.7 c 128
 779.917 348.146 782.598 329.13 782.598 308.65 c 2
 782.598 291.098 l 2
 782.598 283.296 781.622 277.445 779.673 273.544 c 1
 779.673 255.99 777.234 240.875 772.358 228.197 c 1
 760.656 158.958 723.354 103.371 660.454 61.4375 c 128
 597.554 19.5039 527.584 -1.46289 450.542 -1.46289 c 2
 427.138 -1.46289 l 1
 402.27 1.46289 l 2
 357.41 6.33887 319.866 16.0908 289.635 30.7188 c 2
 264.767 43.8838 l 2
 256.966 47.7852 249.651 53.1484 242.825 59.9746 c 2
 188.701 106.784 l 2
EndSplineSet
EndChar
StartChar: uni0DC2
Encoding: 3522 3522 36
Width: 1296
VWidth: 2047
Flags: HW
Fore
475.41 507.592 m 2
 440.303 507.592 411.047 500.521 387.642 486.381 c 128
 364.237 472.24 352.535 451.029 352.535 422.749 c 0
 352.535 393.493 361.312 371.551 378.865 356.923 c 1
 401.294 344.245 433.476 337.907 475.41 337.907 c 2
 839.647 340.832 l 2
 859.15 340.832 877.193 349.854 893.771 367.895 c 128
 910.349 385.935 918.639 404.709 918.639 424.212 c 0
 918.639 438.84 914.981 451.519 907.667 462.245 c 128
 900.354 472.972 885.481 483.211 863.052 492.964 c 128
 840.623 502.716 817.705 507.592 794.301 507.592 c 2
 475.41 507.592 l 2
1072.23 661.186 m 1
 1094.66 664.111 1110.51 668.986 1119.77 675.813 c 128
 1129.04 682.641 1137.57 696.293 1145.37 716.772 c 1
 1146.83 732.863 l 2
 1146.83 761.144 1130.5 785.523 1097.83 806.003 c 128
 1065.16 826.482 1023.96 836.722 974.225 836.722 c 0
 921.564 836.722 874.999 820.875 834.527 789.181 c 128
 794.057 757.486 773.821 723.11 773.821 686.053 c 1
 804.54 686.053 l 1
 851.35 687.516 l 1
 937.655 687.516 l 1
 984.465 681.665 l 2
 1002.99 681.665 1019.57 679.958 1034.2 676.545 c 128
 1048.83 673.132 1061.51 668.013 1072.23 661.186 c 1
857.201 517.831 m 1
 892.308 507.592 l 2
 901.085 504.666 910.349 498.328 920.102 488.575 c 1
 940.58 457.856 l 1
 946.432 416.898 l 1
 946.432 387.642 936.192 364.237 915.713 346.684 c 128
 895.233 329.13 870.366 320.354 841.11 320.354 c 2
 519.294 315.965 l 2
 447.13 315.965 395.443 324.741 364.237 342.295 c 0
 336.931 360.824 323.279 392.03 323.279 435.914 c 0
 323.279 465.17 340.832 489.551 375.939 509.055 c 0
 414.948 524.658 454.931 532.459 495.89 532.459 c 2
 810.392 532.459 l 1
 940.58 573.418 l 1
 1067.84 615.839 l 1
 1049.31 624.615 1033.71 630.467 1021.03 633.393 c 2
 972.762 639.243 l 1
 934.729 639.243 l 1
 898.159 639.243 l 1
 865.978 639.243 l 1
 838.185 639.243 l 1
 814.779 639.243 l 1
 795.764 639.243 l 1
 750.416 639.243 l 1
 719.697 640.706 l 1
 719.697 683.615 728.719 725.062 746.76 765.045 c 128
 764.8 805.027 797.471 837.697 844.767 863.052 c 128
 892.063 888.406 940.094 901.085 988.853 901.085 c 0
 1034.69 901.085 1075.16 891.332 1110.27 871.829 c 128
 1145.37 852.325 1171.7 822.581 1189.26 782.598 c 1
 1200.96 740.177 l 1
 1205.35 707.995 l 2
 1205.35 688.492 1200.47 672.156 1190.72 658.991 c 128
 1180.97 645.826 1162.44 632.417 1135.13 618.765 c 1
 1161.46 602.187 1187.31 567.079 1212.66 513.442 c 0
 1230.21 472.484 1238.99 434.451 1238.99 399.345 c 0
 1238.99 296.948 1206.32 213.082 1140.98 147.743 c 0
 1089.3 98.0078 1010.79 59 905.474 30.7188 c 2
 833.796 17.5537 l 1
 773.821 10.2393 l 2
 725.062 6.33887 690.441 4.14453 669.963 3.65723 c 128
 649.483 3.16895 632.905 2.92578 620.228 2.92578 c 0
 456.394 2.92578 328.154 32.6689 235.511 92.1562 c 0
 130.189 159.445 77.5283 261.354 77.5283 397.882 c 0
 77.5283 484.674 114.586 557.327 188.701 615.839 c 0
 255.015 664.599 337.907 688.979 437.377 688.979 c 2
 577.806 687.516 l 1
 577.806 726.524 566.591 757.486 544.162 780.404 c 128
 521.732 803.321 483.699 814.779 430.063 814.779 c 0
 404.709 814.779 376.427 806.003 345.221 788.449 c 0
 293.536 756.268 259.402 736.275 242.825 728.475 c 1
 228.197 728.475 212.593 734.325 196.016 746.028 c 1
 184.312 757.73 178.462 773.821 178.462 794.301 c 0
 178.462 809.904 182.363 823.069 190.164 833.796 c 0
 207.718 861.103 231.122 879.143 260.379 887.92 c 2
 308.65 896.696 l 1
 373.014 899.622 l 2
 443.229 899.622 502.959 880.85 552.207 843.305 c 128
 601.455 805.759 626.078 753.342 626.078 686.053 c 2
 626.078 668.5 l 1
 623.152 643.632 l 1
 478.336 643.632 l 2
 383.74 643.632 309.627 629.491 255.99 601.211 c 0
 184.8 564.153 149.206 503.203 149.206 418.36 c 0
 149.206 351.072 176.023 299.387 229.659 263.304 c 0
 266.717 240.875 329.617 222.833 418.36 209.181 c 2
 526.608 204.792 l 1
 639.243 201.866 l 1
 680.202 201.866 l 1
 713.847 201.866 l 1
 741.64 201.866 l 1
 763.582 201.866 l 1
 782.598 201.866 l 1
 827.945 201.866 l 1
 857.201 201.866 l 1
 877.68 207.718 l 1
 971.299 216.494 1041.03 234.535 1086.86 261.841 c 0
 1146.35 297.924 1176.09 351.56 1176.09 422.749 c 0
 1176.09 496.865 1148.79 555.377 1094.17 598.285 c 1
 993.241 566.104 l 1
 857.201 517.831 l 1
EndSplineSet
EndChar
StartChar: uni0DC3
Encoding: 3523 3523 37
Width: 1296
VWidth: 2047
Flags: HW
Fore
694.83 640.706 m 1
 694.83 683.615 703.852 725.062 721.892 765.045 c 128
 739.933 805.027 772.603 837.697 819.899 863.052 c 128
 867.196 888.406 915.226 901.085 963.985 901.085 c 0
 1009.82 901.085 1050.29 891.332 1085.4 871.829 c 128
 1120.5 852.325 1146.83 822.581 1164.39 782.598 c 1
 1174.14 746.516 1179.02 722.136 1179.02 709.458 c 0
 1179.02 688.003 1173.65 669.963 1162.93 655.334 c 0
 1154.15 640.706 1135.62 627.054 1107.34 614.376 c 1
 1115.14 614.376 1136.11 586.583 1170.24 530.996 c 0
 1203.4 462.732 1219.98 405.683 1219.98 359.849 c 0
 1219.98 266.229 1192.18 184.312 1136.6 114.099 c 0
 1075.16 38.0332 995.191 0 896.696 0 c 0
 839.16 0 790.888 11.459 751.879 34.376 c 128
 712.871 57.293 681.665 97.0322 658.26 153.594 c 2
 650.946 175.536 l 1
 646.558 204.792 l 1
 634.855 155.057 l 2
 617.302 106.297 587.07 68.2637 544.162 40.958 c 0
 522.707 27.3057 499.059 17.0664 473.216 10.2393 c 128
 447.372 3.41309 420.311 0 392.03 0 c 0
 293.536 0 214.056 37.5449 153.594 112.636 c 0
 97.0322 183.826 68.752 269.155 68.752 368.626 c 0
 68.752 433.965 77.2842 486.625 94.3506 526.608 c 128
 111.417 566.591 145.305 603.161 196.016 636.318 c 1
 89.2305 636.318 l 1
 81.917 640.706 l 2
 77.041 644.607 73.1396 651.922 70.2148 662.648 c 1
 74.6025 677.276 l 1
 81.917 684.591 l 1
 89.2305 687.516 l 1
 552.938 687.516 l 1
 552.938 726.524 541.723 757.486 519.294 780.404 c 128
 496.865 803.321 458.832 814.779 405.195 814.779 c 0
 379.841 814.779 351.56 806.003 320.354 788.449 c 0
 268.668 756.268 234.535 736.275 217.957 728.475 c 1
 203.329 728.475 187.726 734.325 171.147 746.028 c 1
 159.445 757.73 153.594 773.821 153.594 794.301 c 0
 153.594 809.904 157.495 823.069 165.297 833.796 c 0
 182.85 861.103 206.255 879.143 235.511 887.92 c 2
 283.783 896.696 l 1
 348.146 899.622 l 2
 418.36 899.622 478.58 879.387 528.802 838.916 c 128
 579.024 798.444 604.137 748.467 604.137 688.979 c 2
 604.137 662.648 l 1
 598.285 643.632 l 1
 314.502 643.632 l 2
 277.445 643.632 238.924 625.592 198.94 589.509 c 0
 149.206 545.624 124.338 490.525 124.338 424.212 c 0
 124.338 374.477 149.45 328.154 199.672 285.246 c 128
 249.895 242.338 316.94 220.883 400.808 220.883 c 2
 441.766 220.883 l 2
 460.295 220.883 476.386 221.37 490.038 222.346 c 128
 503.69 223.321 514.418 225.271 522.22 228.197 c 1
 540.749 231.122 561.229 242.338 583.657 261.841 c 128
 606.086 281.345 622.177 302.556 631.93 325.473 c 128
 641.682 348.391 646.558 380.328 646.558 421.286 c 1
 646.558 402.27 l 1
 650.946 371.551 l 2
 653.871 355.947 658.504 341.563 664.843 328.398 c 128
 671.181 315.233 684.591 297.436 705.069 275.007 c 128
 725.549 252.577 750.903 235.511 781.135 223.809 c 0
 814.293 216.007 850.862 212.106 890.846 212.106 c 0
 964.961 212.106 1024.94 227.71 1070.77 258.916 c 0
 1124.41 294.998 1151.22 349.609 1151.22 422.749 c 0
 1151.22 481.261 1133.67 530.996 1098.56 571.955 c 0
 1059.55 616.814 1009.33 639.243 947.895 639.243 c 2
 909.861 639.243 l 1
 873.292 639.243 l 1
 841.11 639.243 l 1
 813.316 639.243 l 1
 789.912 639.243 l 1
 770.896 639.243 l 1
 725.549 639.243 l 1
 694.83 640.706 l 1
1047.37 661.186 m 1
 1069.79 664.111 1085.64 668.986 1094.91 675.813 c 128
 1104.17 682.641 1112.7 696.293 1120.5 716.772 c 1
 1121.97 732.863 l 2
 1121.97 761.144 1105.63 785.523 1072.96 806.003 c 128
 1040.29 826.482 999.093 836.722 949.357 836.722 c 0
 896.696 836.722 850.131 820.875 809.66 789.181 c 128
 769.188 757.486 748.953 723.11 748.953 686.053 c 1
 779.673 686.053 l 1
 826.482 687.516 l 1
 912.787 687.516 l 1
 959.597 681.665 l 2
 978.126 681.665 994.704 679.958 1009.33 676.545 c 128
 1023.96 673.132 1036.64 668.013 1047.37 661.186 c 1
EndSplineSet
EndChar
StartChar: uni0DC4
Encoding: 3524 3524 38
Width: 1423
VWidth: 2047
Flags: HW
Fore
481.261 727.012 m 0
 468.583 753.342 451.519 775.528 430.063 793.569 c 128
 408.608 811.609 383.254 820.631 353.998 820.631 c 2
 340.832 820.631 l 2
 321.329 820.631 304.75 810.878 291.098 791.375 c 0
 252.089 737.738 230.636 709.945 226.734 707.995 c 2
 197.478 693.367 l 1
 195.528 691.417 187.726 690.929 174.073 691.904 c 0
 159.445 694.83 147.743 702.145 138.966 713.847 c 128
 130.189 725.549 125.801 739.201 125.801 754.805 c 0
 125.801 783.085 146.28 811.854 187.238 841.11 c 128
 228.197 870.366 273.544 884.994 323.279 884.994 c 0
 418.848 884.994 486.625 836.722 526.608 740.177 c 2
 545.624 700.682 l 1
 550.013 674.351 l 1
 547.087 648.021 l 2
 547.087 640.22 542.699 626.565 533.922 607.062 c 1
 492.964 618.765 l 2
 469.559 624.615 445.179 627.541 419.823 627.541 c 2
 403.732 627.541 l 1
 384.717 624.615 l 2
 308.65 615.839 250.139 595.847 209.181 564.641 c 0
 155.544 527.584 128.727 479.312 128.727 419.823 c 0
 128.727 359.361 150.424 308.406 193.821 266.961 c 128
 237.218 225.516 294.51 200.891 365.7 193.09 c 2
 381.791 191.627 l 1
 399.345 191.627 l 2
 461.758 191.627 521.244 205.523 577.806 233.316 c 128
 634.368 261.109 662.648 291.584 662.648 324.741 c 0
 662.648 353.021 657.772 375.452 648.021 392.03 c 0
 642.169 405.683 626.078 418.36 599.748 430.063 c 1
 586.583 432.989 l 1
 577.806 432.989 l 1
 548.55 431.526 l 1
 547.087 456.394 l 1
 547.087 487.112 l 1
 547.087 520.757 l 1
 550.013 557.327 l 2
 552.938 571.955 560.252 592.434 571.955 618.765 c 0
 583.657 656.797 621.203 701.657 684.591 753.342 c 0
 757.73 811.854 828.921 845.498 898.159 854.275 c 2
 928.878 855.738 l 1
 949.357 857.201 l 2
 1037.12 857.201 1111.73 827.945 1173.17 769.433 c 0
 1228.75 714.822 1268.25 636.805 1291.65 535.385 c 0
 1300.43 494.427 1304.82 456.394 1304.82 421.286 c 2
 1304.82 368.626 l 1
 1297.5 321.816 l 2
 1296.53 306.212 1287.75 275.493 1271.17 229.659 c 0
 1247.77 153.594 1207.3 97.0322 1149.76 59.9746 c 0
 1102.95 30.7188 1037.12 10.2393 952.283 -1.46289 c 0
 929.854 -1.46289 905.229 4.14453 878.411 15.3594 c 128
 851.594 26.5742 823.069 45.834 792.838 73.1396 c 1
 791.375 78.9912 l 1
 794.301 81.917 799.664 81.4297 807.466 77.5283 c 0
 828.921 65.8262 851.35 55.5859 874.754 46.8096 c 1
 911.324 39.4951 l 1
 942.043 36.5703 l 2
 960.572 36.5703 975.688 38.5205 987.39 42.4209 c 0
 1032.25 51.1982 1070.53 74.1152 1102.22 111.173 c 128
 1133.91 148.229 1157.08 199.916 1171.7 266.229 c 1
 1171.7 356.923 1148.3 443.229 1101.49 525.146 c 0
 1047.85 616.814 979.101 662.648 895.233 662.648 c 2
 857.201 661.186 l 2
 844.522 661.186 831.846 659.235 819.168 655.334 c 2
 775.284 648.021 l 1
 722.623 634.855 l 2
 685.566 626.078 654.358 611.45 629.004 590.971 c 0
 601.698 566.591 588.046 534.409 588.046 494.427 c 2
 589.509 466.633 l 1
 621.69 462.245 l 2
 631.442 460.295 643.632 454.931 658.26 446.154 c 0
 682.641 432.502 703.606 413.485 721.16 389.104 c 0
 729.938 373.501 741.152 343.271 754.805 298.411 c 1
 759.193 254.527 l 2
 759.193 186.263 722.136 125.313 648.021 71.6768 c 0
 578.781 24.8672 500.765 1.46289 413.973 1.46289 c 0
 330.105 1.46289 256.722 21.9424 193.821 62.9004 c 128
 130.921 103.858 85.8174 165.783 58.5117 248.676 c 2
 46.8096 299.874 l 1
 42.4209 348.146 l 2
 42.4209 368.626 45.3467 390.567 51.1982 413.973 c 2
 61.4375 447.617 l 1
 76.0654 488.575 l 2
 93.6191 533.435 132.627 575.856 193.09 615.839 c 128
 253.552 655.821 317.428 675.813 384.717 675.813 c 2
 437.377 671.425 l 1
 495.89 658.26 l 1
 491.501 691.904 l 2
 489.551 704.582 486.137 716.285 481.261 727.012 c 0
EndSplineSet
EndChar
StartChar: uni0DC5
Encoding: 3525 3525 39
Width: 1214
VWidth: 2047
Flags: HW
Fore
261.841 269.155 m 2
 261.841 134.577 306.457 17.0664 395.688 -83.3799 c 128
 484.918 -183.826 594.384 -234.048 724.086 -234.048 c 0
 824.532 -234.048 909.375 -204.305 978.613 -144.817 c 0
 1063.46 -72.6523 1105.88 29.2559 1105.88 160.908 c 0
 1105.88 183.337 1101.98 200.891 1094.17 213.568 c 2
 1088.32 235.023 1078.57 252.577 1064.92 266.229 c 0
 1061.99 269.155 1061.99 274.52 1064.92 282.32 c 1
 1078.08 298.411 l 2
 1081.01 301.337 1087.84 298.411 1098.56 289.635 c 1
 1114.65 258.916 l 2
 1140.98 212.106 1154.15 165.783 1154.15 119.949 c 2
 1154.15 102.396 l 1
 1151.22 77.5283 l 2
 1151.22 65.8262 1150.25 58.0244 1148.3 54.124 c 2
 1139.52 30.7188 l 2
 1101.49 -103.858 1034.2 -196.016 937.655 -245.75 c 0
 898.646 -265.254 852.812 -279.882 800.151 -289.635 c 128
 747.491 -299.387 684.591 -304.263 611.45 -304.263 c 0
 457.369 -304.263 323.279 -252.089 209.181 -147.743 c 128
 95.082 -43.3965 38.0332 83.3799 38.0332 232.585 c 0
 38.0332 341.809 62.6562 432.989 111.904 506.129 c 128
 161.152 579.269 235.998 628.028 336.444 652.409 c 1
 349.609 693.367 l 1
 365.7 727.012 l 2
 376.427 748.467 393.006 770.408 415.436 792.838 c 0
 448.593 828.921 484.918 855.494 524.414 872.561 c 128
 563.909 889.627 609.5 898.159 661.186 898.159 c 0
 748.953 898.159 817.218 888.896 865.978 870.366 c 0
 932.291 845.012 976.175 800.639 997.63 737.251 c 2
 1007.87 688.979 l 1
 1010.79 630.467 l 1
 798.688 633.393 l 1
 645.095 637.781 l 2
 599.261 637.781 555.377 634.368 513.442 627.541 c 2
 393.493 612.913 l 1
 393.493 516.368 418.36 440.303 468.096 384.717 c 128
 517.831 329.13 587.07 295.485 675.813 283.783 c 2
 697.756 280.857 l 1
 727.012 280.857 l 2
 795.276 280.857 854.763 295.485 905.474 324.741 c 128
 956.184 353.998 988.365 398.857 1002.02 459.319 c 1
 1003.48 482.724 l 1
 996.167 529.533 l 1
 996.167 535.385 1001.53 539.773 1012.26 542.699 c 0
 1025.91 544.648 1033.22 539.773 1034.2 528.07 c 2
 1040.05 491.501 l 1
 1042.98 460.782 l 1
 1041.51 441.766 l 2
 1041.51 364.725 1006.16 302.556 935.461 255.259 c 128
 864.759 207.962 786.011 184.312 699.219 184.312 c 2
 664.111 185.775 l 2
 623.152 185.775 582.682 194.553 542.699 212.106 c 0
 504.666 230.636 471.021 256.478 441.766 289.635 c 0
 389.104 347.171 354.484 425.188 337.907 523.683 c 2
 336.444 541.236 l 1
 336.444 551.476 l 1
 336.444 577.806 l 1
 334.981 596.822 l 1
 299.874 585.12 277.445 527.584 267.692 424.212 c 2
 261.841 269.155 l 2
691.904 688.979 m 1
 825.02 687.516 l 1
 887.92 687.516 l 2
 908.398 687.516 908.398 687.516 928.878 687.516 c 1
 943.506 684.591 954.722 682.641 962.522 681.665 c 1
 962.522 694.343 960.084 707.02 955.208 719.697 c 0
 952.283 731.4 944.969 744.565 933.267 759.193 c 128
 921.564 773.821 905.718 784.061 885.726 789.912 c 128
 865.733 795.764 840.623 798.688 810.392 798.688 c 0
 793.813 798.688 769.433 789.912 737.251 772.358 c 0
 708.971 754.805 684.104 746.028 662.648 746.028 c 2
 617.302 750.416 l 2
 604.623 753.342 592.921 763.095 582.194 779.673 c 1
 574.881 803.077 l 1
 579.269 835.259 l 1
 539.286 829.407 503.69 813.316 472.484 786.986 c 128
 441.278 760.656 415.922 718.722 396.419 661.186 c 1
 485.649 674.351 l 1
 586.583 684.591 l 1
 691.904 688.979 l 1
EndSplineSet
EndChar
StartChar: uni0DC6
Encoding: 3526 3526 40
Width: 1423
VWidth: 2047
Flags: HW
Fore
721.16 386.18 m 1
 697.756 386.18 l 1
 697.756 405.683 695.806 421.773 691.904 434.451 c 0
 688.979 450.056 681.178 469.071 668.5 491.501 c 0
 645.095 541.236 614.863 578.781 577.806 604.137 c 0
 531.972 633.393 484.187 648.021 434.451 648.021 c 0
 364.237 648.021 299.387 621.203 239.899 567.566 c 0
 208.693 542.212 185.044 510.518 168.953 472.484 c 128
 152.862 434.451 144.817 393.006 144.817 348.146 c 0
 144.817 268.18 173.586 200.891 231.122 146.28 c 0
 280.857 96.5449 350.585 60.9502 440.303 39.4951 c 2
 478.336 32.1816 l 1
 516.368 30.7188 l 1
 570.492 33.6445 l 1
 634.855 40.958 l 1
 629.004 8.77637 l 1
 570.492 4.38867 l 1
 506.129 2.92578 l 2
 469.071 2.92578 435.67 5.85156 405.927 11.7021 c 128
 376.184 17.5537 341.809 29.2559 302.8 46.8096 c 0
 225.758 82.8916 165.783 134.09 122.875 200.403 c 128
 79.9668 266.717 58.5117 342.295 58.5117 427.138 c 0
 58.5117 544.162 91.1816 645.582 156.52 731.4 c 0
 227.71 823.069 316.452 868.903 422.749 868.903 c 0
 550.5 868.903 645.095 808.929 706.532 688.979 c 1
 732.863 744.565 769.92 787.718 817.705 818.437 c 128
 865.49 849.155 921.077 864.515 984.465 864.515 c 0
 1062.48 864.515 1131.72 830.87 1192.18 763.582 c 0
 1238.02 710.921 1271.17 634.855 1291.65 535.385 c 2
 1300.43 472.484 l 1
 1303.35 406.658 l 1
 1301.89 356.923 l 2
 1301.89 340.346 1299.94 324.741 1296.04 310.113 c 2
 1285.8 269.155 l 1
 1271.17 229.659 l 2
 1233.14 151.645 1179.99 92.1562 1111.73 51.1982 c 0
 1049.31 17.0664 971.299 0 877.68 0 c 2
 841.11 0 l 1
 817.705 0 l 1
 781.135 1.46289 l 1
 759.193 1.46289 l 1
 732.863 7.31445 l 1
 732.863 42.4209 l 1
 806.003 29.2559 l 1
 874.754 24.8672 l 2
 904.011 24.8672 942.53 31.4502 990.315 44.6152 c 128
 1038.1 57.7803 1079.06 83.3799 1113.19 121.412 c 0
 1138.55 155.544 1158.05 203.816 1171.7 266.229 c 2
 1174.63 291.098 l 1
 1174.63 311.576 l 2
 1174.63 384.717 1152.44 452.249 1108.07 514.174 c 128
 1063.7 576.099 1011.28 607.062 950.82 607.062 c 2
 909.861 602.674 l 2
 883.531 596.822 860.126 587.559 839.647 574.881 c 128
 819.168 562.202 798.201 544.162 776.747 520.757 c 0
 739.689 477.849 721.16 432.989 721.16 386.18 c 1
EndSplineSet
EndChar
StartChar: uni0DCA
Encoding: 3530 3530 41
Width: 0
VWidth: 2047
Flags: HW
Fore
-229.659 1221.44 m 2
 -229.659 1241.92 -232.585 1256.54 -238.437 1265.32 c 128
 -244.287 1274.1 -256.966 1280.44 -276.469 1284.34 c 0
 -285.246 1286.29 -296.948 1283.36 -311.576 1275.56 c 1
 -340.832 1265.32 l 1
 -352.535 1268.25 l 1
 -364.237 1287.26 l 1
 -367.163 1295.07 -364.725 1301.65 -356.923 1307.01 c 128
 -349.122 1312.38 -335.957 1317.98 -317.428 1323.83 c 2
 -292.56 1328.22 l 1
 -283.783 1328.22 -274.03 1326.27 -263.304 1322.37 c 2
 -239.899 1315.06 l 2
 -223.321 1309.21 -209.668 1301.41 -198.94 1291.65 c 1
 -194.065 1298.48 -183.826 1306.77 -168.222 1316.52 c 0
 -156.52 1322.37 -139.453 1327.74 -117.024 1332.61 c 1
 -87.7676 1332.61 -60.4619 1320.42 -35.1074 1296.04 c 0
 -26.3301 1286.29 -18.5293 1273.61 -11.7021 1258.01 c 128
 -4.87598 1242.4 -1.46289 1226.8 -1.46289 1211.2 c 0
 -1.46289 1179.99 -13.6523 1152.2 -38.0332 1127.82 c 128
 -62.4131 1103.44 -89.2305 1091.25 -118.486 1091.25 c 0
 -134.09 1091.25 -146.036 1092.96 -154.325 1096.37 c 128
 -162.615 1099.78 -174.073 1107.83 -188.701 1120.5 c 1
 -190.164 808.929 l 1
 -231.122 855.738 l 1
 -229.659 1221.44 l 2
-190.164 1168.78 m 1
 -187.238 1159.02 -176.999 1150.25 -159.445 1142.45 c 0
 -138.966 1135.62 -123.362 1132.21 -112.636 1132.21 c 0
 -103.858 1132.21 -93.6191 1140.98 -81.917 1158.54 c 1
 -75.0908 1174.14 -70.2148 1191.7 -67.2891 1211.2 c 1
 -67.2891 1229.73 -73.1396 1247.77 -84.8428 1265.32 c 128
 -96.5449 1282.88 -113.611 1291.65 -136.04 1291.65 c 0
 -147.743 1291.65 -157.982 1288.73 -166.759 1282.88 c 1
 -174.561 1279.95 -181.874 1269.71 -188.701 1252.16 c 1
 -190.164 1168.78 l 1
EndSplineSet
EndChar
StartChar: uni0DCF
Encoding: 3535 3535 42
Width: 631
VWidth: 2047
Flags: HW
Fore
4.38867 697.756 m 1
 4.38867 746.516 22.917 789.912 59.9746 827.945 c 128
 97.0322 865.978 141.892 884.994 194.553 884.994 c 2
 231.122 883.531 l 2
 239.899 883.531 253.064 880.605 270.618 874.754 c 0
 325.229 860.126 369.112 835.503 402.27 800.883 c 128
 435.428 766.263 457.856 720.673 469.559 664.111 c 2
 481.261 579.269 l 1
 487.112 497.352 l 1
 491.501 332.056 l 2
 491.501 285.246 489.062 254.527 484.187 239.899 c 2
 484.187 230.146 481.748 218.933 476.873 206.255 c 128
 471.997 193.577 468.583 185.044 466.633 180.656 c 128
 464.684 176.268 460.782 169.197 454.931 159.445 c 2
 424.212 106.784 l 1
 384.717 65.8262 l 2
 347.659 35.5947 302.312 16.0908 248.676 7.31445 c 2
 219.42 4.38867 l 1
 182.85 5.85156 l 1
 140.429 14.6279 l 2
 125.801 19.5039 110.686 27.3057 95.082 38.0332 c 1
 54.124 80.4541 l 2
 45.3467 89.2305 37.5449 101.908 30.7188 118.486 c 1
 23.4053 157.982 l 1
 23.4053 190.164 l 1
 45.3467 190.164 l 1
 45.3467 173.586 49.248 158.958 57.0488 146.28 c 2
 84.8428 108.247 l 1
 102.396 93.6191 l 1
 128.727 74.6025 l 1
 153.594 67.2891 l 1
 182.85 64.3633 l 2
 204.305 64.3633 228.197 71.6768 254.527 86.3057 c 1
 268.18 97.0322 280.37 111.173 291.098 128.727 c 128
 301.824 146.28 307.675 161.396 308.65 174.073 c 2
 311.576 235.511 l 1
 315.965 397.882 l 1
 321.816 517.831 l 2
 321.816 555.864 320.354 586.583 317.428 609.987 c 0
 317.428 629.491 311.576 663.867 299.874 713.115 c 128
 288.172 762.363 255.015 796.25 200.403 814.779 c 0
 182.85 820.631 167.246 823.557 153.594 823.557 c 0
 136.04 823.557 118.975 819.168 102.396 810.392 c 128
 85.8174 801.614 72.6523 790.888 62.9004 778.21 c 128
 53.1484 765.531 42.4209 738.227 30.7188 696.293 c 1
 4.38867 697.756 l 1
EndSplineSet
EndChar
StartChar: uni0DD0
Encoding: 3536 3536 43
Width: 555
VWidth: 2047
Flags: HW
Fore
24.8672 599.748 m 1
 450.542 599.748 l 1
 405.683 554.889 364.969 499.79 328.398 434.451 c 128
 291.828 369.112 267.205 290.121 254.527 197.478 c 2
 247.213 133.115 l 1
 244.287 76.0654 l 2
 244.287 32.1816 249.163 -4.38867 258.916 -33.6445 c 0
 267.692 -66.8008 287.196 -101.908 317.428 -138.966 c 0
 373.014 -211.13 441.766 -247.213 523.683 -247.213 c 2
 554.401 -245.75 l 1
 557.327 -251.602 l 1
 558.79 -257.453 l 1
 550.013 -271.105 518.318 -291.098 463.708 -317.428 c 0
 424.699 -334.006 387.155 -342.295 351.072 -342.295 c 2
 307.188 -337.907 l 2
 263.304 -332.056 219.907 -314.015 176.999 -283.783 c 0
 121.412 -245.75 84.3545 -192.114 65.8262 -122.875 c 0
 57.0488 -87.7676 52.6611 -54.6113 52.6611 -23.4053 c 0
 52.6611 42.9092 72.6523 111.66 112.636 182.85 c 2
 188.701 311.576 l 1
 239.899 394.956 l 2
 264.279 429.088 305.726 482.237 364.237 554.401 c 1
 23.4053 554.401 l 1
 13.165 558.79 l 1
 7.31445 564.641 4.38867 571.468 4.38867 579.269 c 0
 4.38867 589.021 11.2148 595.847 24.8672 599.748 c 1
EndSplineSet
EndChar
StartChar: uni0DD1
Encoding: 3537 3537 44
Width: 614
VWidth: 2047
Flags: HW
Fore
21.9424 564.641 m 1
 21.9424 571.468 25.3555 578.293 32.1816 585.12 c 1
 61.4375 593.896 l 1
 307.188 592.434 l 1
 169.685 422.749 l 1
 460.782 424.212 l 1
 418.36 393.493 l 1
 386.18 364.237 l 2
 343.271 325.229 307.919 281.345 280.126 232.585 c 128
 252.333 183.826 238.437 132.627 238.437 78.9912 c 2
 238.437 51.1982 l 1
 244.287 14.6279 l 2
 255.015 -46.8096 271.594 -95.5693 294.022 -131.652 c 0
 320.354 -172.61 359.361 -205.279 411.047 -229.659 c 0
 444.204 -243.312 477.36 -250.139 510.518 -250.139 c 2
 542.699 -248.676 l 2
 555.377 -248.676 567.566 -246.727 579.269 -242.825 c 1
 639.243 -232.585 l 2
 649.971 -229.659 659.723 -234.535 668.5 -247.213 c 1
 671.425 -258.916 666.062 -268.668 652.409 -276.469 c 2
 551.476 -324.741 l 2
 516.368 -339.369 479.799 -346.684 441.766 -346.684 c 0
 377.402 -346.684 329.374 -342.782 297.68 -334.981 c 128
 265.985 -327.18 231.122 -310.113 193.09 -283.783 c 0
 137.503 -248.676 96.5449 -213.568 70.2148 -178.462 c 0
 38.0332 -135.553 21.9424 -86.3057 21.9424 -30.7188 c 0
 21.9424 11.2148 30.7188 52.1729 48.2725 92.1562 c 128
 65.8262 132.14 110.686 188.701 182.85 261.841 c 2
 219.42 296.948 l 1
 261.841 330.593 l 1
 327.667 374.477 l 1
 58.5117 374.477 l 1
 58.5117 387.642 l 1
 193.09 539.773 l 1
 58.5117 541.236 l 1
 33.6445 545.624 l 1
 30.7188 547.574 26.8184 553.914 21.9424 564.641 c 1
EndSplineSet
EndChar
StartChar: uni0DD2
Encoding: 3538 3538 45
Width: 0
VWidth: 2047
Flags: HW
Fore
-469.559 1380.88 m 0
 -441.278 1369.18 -419.579 1349.92 -404.464 1323.1 c 128
 -389.349 1296.29 -381.791 1263.86 -381.791 1225.83 c 0
 -381.791 1191.7 -396.175 1158.78 -424.943 1127.09 c 128
 -453.712 1095.39 -489.551 1077.6 -532.459 1073.7 c 1
 -552.938 1075.16 l 1
 -554.401 1105.88 l 1
 -528.07 1107.34 l 2
 -498.814 1107.34 -475.166 1117.09 -457.125 1136.6 c 128
 -439.084 1156.1 -430.063 1182.43 -430.063 1215.59 c 0
 -430.063 1234.12 -434.938 1251.91 -444.691 1268.98 c 128
 -454.443 1286.05 -468.583 1297.99 -487.112 1304.82 c 2
 -535.385 1319.45 l 2
 -551.963 1322.37 -572.931 1323.83 -598.285 1323.83 c 2
 -779.673 1328.22 l 2
 -838.185 1328.22 -890.358 1325.05 -936.192 1318.71 c 128
 -982.026 1312.38 -1016.16 1304.82 -1038.59 1296.04 c 0
 -1058.09 1290.19 -1072.23 1278.73 -1081.01 1261.67 c 128
 -1089.79 1244.6 -1096.61 1226.31 -1101.49 1206.81 c 1
 -1101.49 1183.41 -1091.74 1162.44 -1072.23 1143.91 c 1
 -1007.87 1098.56 l 1
 -972.762 1076.62 l 1
 -990.315 1060.53 l 1
 -1000.07 1060.53 -1007.38 1062.97 -1012.26 1067.84 c 1
 -1091.25 1117.58 l 2
 -1131.23 1146.83 -1151.22 1182.43 -1151.22 1224.36 c 0
 -1151.22 1235.09 -1148.3 1253.13 -1142.45 1278.49 c 0
 -1127.82 1323.35 -1102.95 1356.02 -1067.84 1376.5 c 0
 -981.052 1415.5 -884.507 1435.01 -778.21 1435.01 c 0
 -701.168 1435.01 -645.095 1431.11 -609.987 1423.3 c 0
 -558.303 1417.45 -511.493 1403.31 -469.559 1380.88 c 0
EndSplineSet
EndChar
StartChar: uni0DD3
Encoding: 3539 3539 46
Width: 0
VWidth: 2047
Flags: HW
Fore
-479.799 1120.5 m 0
 -460.295 1120.5 -440.303 1129.28 -419.823 1146.83 c 0
 -403.246 1165.36 -394.956 1186.33 -394.956 1209.74 c 0
 -394.956 1229.24 -402.27 1248.26 -416.898 1266.79 c 128
 -431.526 1285.31 -450.542 1294.58 -473.947 1294.58 c 0
 -495.402 1294.58 -516.124 1286.05 -536.116 1268.98 c 128
 -556.108 1251.91 -566.104 1230.7 -566.104 1205.35 c 0
 -566.104 1181.94 -557.813 1161.95 -541.236 1145.37 c 128
 -524.658 1128.79 -504.179 1120.5 -479.799 1120.5 c 0
-804.54 1443.78 m 2
 -677.276 1442.32 l 1
 -634.855 1442.32 l 2
 -621.69 1442.32 -621.69 1442.32 -608.524 1442.32 c 1
 -597.798 1439.4 -589.995 1437.45 -585.12 1436.47 c 1
 -540.261 1436.47 -500.277 1423.79 -465.17 1398.44 c 0
 -432.013 1376.98 -403.732 1349.19 -380.328 1315.06 c 0
 -361.799 1280.93 -352.535 1244.84 -352.535 1206.81 c 0
 -352.535 1174.63 -365.7 1145.86 -392.03 1120.5 c 0
 -402.757 1111.73 -416.167 1103.93 -432.258 1097.1 c 128
 -448.349 1090.27 -466.146 1086.86 -485.649 1086.86 c 0
 -516.855 1086.86 -545.138 1098.56 -570.492 1121.97 c 128
 -595.847 1145.37 -608.524 1173.65 -608.524 1206.81 c 0
 -608.524 1252.64 -591.458 1289.21 -557.327 1316.52 c 1
 -576.83 1325.3 -602.187 1331.15 -633.393 1334.07 c 2
 -738.714 1339.92 l 1
 -811.854 1339.92 l 2
 -879.143 1339.92 -935.705 1325.05 -981.539 1295.31 c 128
 -1027.37 1265.57 -1050.29 1236.07 -1050.29 1206.81 c 0
 -1050.29 1183.41 -1040.54 1162.44 -1021.03 1143.91 c 1
 -956.671 1098.56 l 1
 -921.564 1076.62 l 1
 -939.117 1060.53 l 1
 -948.87 1060.53 -956.184 1062.97 -961.06 1067.84 c 1
 -1040.05 1117.58 l 2
 -1080.03 1146.83 -1100.03 1182.43 -1100.03 1224.36 c 0
 -1100.03 1300.43 -1071.75 1357.48 -1015.18 1395.51 c 0
 -965.448 1427.69 -895.233 1443.78 -804.54 1443.78 c 2
EndSplineSet
EndChar
StartChar: uni0DD4
Encoding: 3540 3540 47
Width: 0
VWidth: 2047
Flags: HW
Fore
-898.159 -333.519 m 2
 -856.226 -333.519 -795.276 -313.526 -715.31 -273.544 c 0
 -676.301 -254.04 -639.73 -244.287 -605.6 -244.287 c 0
 -579.269 -244.287 -532.946 -262.328 -466.633 -298.411 c 0
 -434.451 -315.965 -405.683 -324.741 -380.328 -324.741 c 2
 -193.09 -324.741 l 1
 -193.09 327.667 l 1
 -143.354 432.989 l 1
 -143.354 -383.254 l 1
 -990.315 -383.254 l 2
 -1033.22 -383.254 -1070.77 -363.993 -1102.95 -325.473 c 128
 -1135.13 -286.953 -1151.22 -241.362 -1151.22 -188.701 c 0
 -1151.22 -137.016 -1132.69 -95.5693 -1095.64 -64.3633 c 128
 -1058.58 -33.1572 -1014.21 -17.5537 -962.522 -17.5537 c 2
 -921.564 -19.0166 l 1
 -901.085 -26.3301 l 1
 -876.217 -39.4951 l 1
 -877.68 -93.6191 l 1
 -911.324 -76.0654 l 1
 -946.432 -71.6768 l 2
 -984.465 -71.6768 -1017.62 -82.6484 -1045.9 -104.59 c 128
 -1074.18 -126.532 -1088.32 -156.032 -1088.32 -193.09 c 0
 -1088.32 -224.296 -1078.57 -251.114 -1059.07 -273.544 c 0
 -1044.44 -291.098 -1020.55 -307.675 -987.39 -323.279 c 1
 -968.86 -328.154 -950.82 -331.568 -933.267 -333.519 c 2
 -898.159 -333.519 l 2
EndSplineSet
EndChar
StartChar: uni0DD6
Encoding: 3542 3542 48
Width: 0
VWidth: 2047
Flags: HW
Fore
-150.668 419.823 m 1
 -150.668 -349.609 l 1
 -197.478 -364.237 l 1
 -205.279 -359.361 -251.114 -344.977 -334.981 -321.085 c 128
 -418.848 -297.192 -479.799 -285.246 -517.831 -285.246 c 0
 -565.616 -285.246 -617.302 -293.047 -672.888 -308.65 c 0
 -811.367 -344.733 -899.622 -362.774 -937.655 -362.774 c 0
 -996.167 -362.774 -1048.83 -345.221 -1095.64 -310.113 c 128
 -1142.45 -275.007 -1165.85 -229.173 -1165.85 -172.61 c 0
 -1165.85 -140.429 -1143.67 -109.466 -1099.29 -79.7227 c 128
 -1054.92 -49.9795 -1006.41 -35.1074 -953.746 -35.1074 c 0
 -930.341 -35.1074 -911.324 -38.0332 -896.696 -43.8838 c 2
 -855.738 -64.3633 l 1
 -871.829 -100.934 l 1
 -895.233 -89.2305 -921.564 -83.3799 -950.82 -83.3799 c 0
 -982.026 -83.3799 -1015.67 -92.1562 -1051.75 -109.71 c 128
 -1087.84 -127.264 -1105.88 -147.743 -1105.88 -171.147 c 0
 -1105.88 -211.13 -1090.27 -243.557 -1059.07 -268.424 c 128
 -1027.86 -293.291 -989.828 -305.726 -944.969 -305.726 c 0
 -882.556 -305.726 -812.099 -287.928 -733.594 -252.333 c 128
 -655.09 -216.738 -584.633 -198.94 -522.22 -198.94 c 0
 -490.038 -198.94 -457.856 -201.866 -425.675 -207.718 c 2
 -378.865 -217.957 l 1
 -326.204 -232.585 l 1
 -298.411 -242.825 l 1
 -272.081 -261.841 l 2
 -254.527 -275.493 -233.561 -285.733 -209.181 -292.56 c 1
 -207.718 323.279 l 1
 -150.668 419.823 l 1
EndSplineSet
EndChar
StartChar: uni0DD8
Encoding: 3544 3544 49
Width: 732
VWidth: 2047
Flags: HW
Fore
174.073 865.978 m 1
 210.156 875.73 239.412 880.605 261.841 880.605 c 0
 301.824 880.605 342.295 871.829 383.254 854.275 c 0
 419.337 839.647 447.372 812.83 467.364 773.821 c 128
 487.356 734.812 503.935 691.173 517.1 642.9 c 128
 530.265 594.628 536.848 537.335 536.848 471.021 c 0
 536.848 440.79 530.996 368.626 519.294 254.527 c 0
 510.518 209.668 495.89 160.421 475.41 106.784 c 2
 427.138 -2.92578 l 1
 367.163 29.2559 l 1
 337.907 43.8838 l 2
 313.526 54.6113 289.635 59.9746 266.229 59.9746 c 0
 255.503 59.9746 238.437 57.0488 215.031 51.1982 c 2
 179.925 40.958 l 2
 160.421 33.1572 140.916 20.4795 121.412 2.92578 c 1
 113.611 5.85156 105.81 11.2148 98.0078 19.0166 c 2
 77.5283 40.958 l 2
 59.9746 63.3877 45.3467 88.7432 33.6445 117.024 c 1
 23.8926 156.032 19.0166 188.214 19.0166 213.568 c 0
 19.0166 263.304 30.7188 312.552 54.124 361.312 c 0
 82.4043 413.973 125.313 453.468 182.85 479.799 c 0
 201.379 487.6 221.858 491.501 244.287 491.501 c 0
 263.791 491.501 287.685 488.575 315.965 482.724 c 2
 358.386 469.559 l 2
 374.964 464.684 394.956 456.881 418.36 446.154 c 1
 425.675 509.055 l 1
 430.063 576.343 l 2
 430.063 599.748 427.138 624.615 421.286 650.946 c 0
 418.36 674.351 409.097 698.731 393.493 724.086 c 0
 356.437 787.474 304.75 819.168 238.437 819.168 c 0
 217.957 819.168 201.379 816.729 188.701 811.854 c 2
 133.115 789.912 l 1
 90.6934 766.507 l 1
 49.7354 734.325 l 1
 35.1074 760.656 l 1
 43.8838 775.284 53.1484 787.474 62.9004 797.226 c 0
 86.3057 820.631 123.362 843.549 174.073 865.978 c 1
416.898 236.974 m 1
 419.823 304.263 l 1
 421.286 370.089 l 1
 384.717 390.567 l 1
 349.609 408.121 l 1
 325.229 414.948 304.75 418.36 288.172 418.36 c 2
 245.75 413.973 l 2
 233.072 412.022 218.444 407.146 201.866 399.345 c 0
 170.66 384.717 145.305 358.386 125.801 320.354 c 0
 112.148 284.271 105.321 241.849 105.321 193.09 c 0
 105.321 153.106 117.024 115.562 140.429 80.4541 c 1
 155.057 95.082 l 1
 181.387 111.173 l 1
 195.039 117.024 209.668 121.412 225.271 124.338 c 2
 266.229 130.189 l 1
 298.411 130.189 326.204 123.362 349.609 109.71 c 2
 362.774 103.858 l 1
 394.956 81.917 l 1
 408.121 160.908 l 1
 416.898 236.974 l 1
EndSplineSet
EndChar
StartChar: uni0DD9
Encoding: 3545 3545 50
Width: 953
VWidth: 2047
Flags: HW
Fore
902.548 349.609 m 0
 902.548 247.213 859.64 162.371 773.821 95.082 c 0
 692.88 31.6943 596.335 0 484.187 0 c 0
 367.163 0 264.767 42.4209 176.999 127.264 c 0
 135.065 170.172 103.127 217.226 81.1855 268.424 c 128
 59.2432 319.622 48.2725 375.939 48.2725 437.377 c 0
 48.2725 565.128 95.082 675.813 188.701 769.433 c 128
 282.32 863.052 395.932 909.861 529.533 909.861 c 0
 585.12 909.861 632.174 904.011 670.693 892.308 c 128
 709.214 880.605 749.93 859.64 792.838 829.407 c 1
 763.582 811.854 l 1
 716.772 830.87 l 1
 667.037 849.887 l 2
 647.533 854.763 624.615 859.15 598.285 863.052 c 128
 571.955 866.953 550.013 868.903 532.459 868.903 c 0
 422.262 868.903 326.936 828.921 246.481 748.953 c 128
 166.027 668.986 125.801 576.343 125.801 471.021 c 0
 125.801 390.08 163.834 320.84 239.899 263.304 c 0
 309.138 214.545 392.03 190.164 488.575 190.164 c 0
 571.468 190.164 642.169 210.156 700.682 250.139 c 0
 766.021 294.998 798.688 352.048 798.688 421.286 c 0
 798.688 472.972 794.301 514.418 785.523 545.624 c 0
 773.821 583.657 749.44 613.4 712.384 634.855 c 0
 682.152 651.434 648.996 659.723 612.913 659.723 c 1
 630.467 648.021 647.045 627.054 662.648 596.822 c 0
 670.449 581.219 676.301 566.591 680.202 552.938 c 128
 684.104 539.286 686.053 524.17 686.053 507.592 c 2
 683.128 478.336 l 2
 677.276 436.401 655.821 400.32 618.765 370.089 c 0
 581.707 341.809 540.261 327.667 494.427 327.667 c 2
 453.468 332.056 l 2
 407.634 340.832 370.575 360.824 342.295 392.03 c 0
 314.989 425.188 301.337 463.708 301.337 507.592 c 0
 301.337 566.104 324.986 614.62 372.282 653.141 c 128
 419.579 691.66 474.923 710.921 538.311 710.921 c 0
 660.21 710.921 754.317 675.813 820.631 605.6 c 0
 875.241 543.186 902.548 457.856 902.548 349.609 c 0
353.998 517.831 m 0
 353.998 479.799 368.626 447.617 397.882 421.286 c 128
 427.138 394.956 461.27 381.791 500.277 381.791 c 0
 535.385 381.791 565.128 396.419 589.509 425.675 c 128
 613.889 454.931 626.078 487.6 626.078 523.683 c 0
 626.078 557.813 611.694 588.046 582.926 614.376 c 128
 554.157 640.706 519.781 653.871 479.799 653.871 c 0
 444.691 653.871 414.948 640.22 390.567 612.913 c 128
 366.188 585.607 353.998 553.914 353.998 517.831 c 0
EndSplineSet
EndChar
StartChar: uni0DDF
Encoding: 3551 3551 51
Width: 947
VWidth: 2047
Flags: HW
Fore
642.169 488.575 m 0
 642.169 579.269 629.979 653.385 605.6 710.921 c 0
 574.394 785.036 527.095 822.094 463.708 822.094 c 0
 445.179 822.094 426.162 815.023 406.658 800.883 c 128
 387.155 786.742 377.402 768.457 377.402 746.028 c 1
 400.808 740.177 416.898 725.549 425.675 702.145 c 128
 434.451 678.739 438.84 649.483 438.84 614.376 c 0
 438.84 572.442 423.236 537.335 392.03 509.055 c 0
 362.774 479.799 325.718 465.17 280.857 465.17 c 0
 220.396 465.17 168.709 486.625 125.801 529.533 c 128
 82.8916 572.442 61.4375 624.129 61.4375 684.591 c 0
 61.4375 735.301 77.041 779.428 108.247 816.974 c 128
 139.453 854.52 178.462 873.292 225.271 873.292 c 2
 255.99 874.754 l 2
 270.618 874.754 281.345 869.147 288.172 857.933 c 128
 294.998 846.717 297.436 837.209 295.485 829.407 c 1
 286.709 820.631 275.982 816.242 263.304 816.242 c 2
 236.974 817.705 l 2
 227.221 817.705 218.444 815.755 210.644 811.854 c 0
 187.238 800.151 169.685 782.598 157.982 759.193 c 1
 148.229 729.938 143.354 703.12 143.354 678.739 c 0
 143.354 633.88 156.032 594.384 181.387 560.252 c 128
 206.742 526.121 239.899 509.055 280.857 509.055 c 0
 316.94 509.055 346.928 518.807 370.819 538.311 c 128
 394.712 557.813 406.658 583.17 406.658 614.376 c 0
 406.658 644.607 403.001 666.793 395.688 680.934 c 128
 388.373 695.074 364.725 709.458 324.741 724.086 c 1
 324.741 750.416 327.18 772.603 332.056 790.644 c 128
 336.931 808.685 345.708 825.02 358.386 839.647 c 0
 380.815 865.978 412.022 879.143 452.005 879.143 c 0
 542.699 879.143 630.954 839.16 716.772 759.193 c 128
 802.59 679.227 845.498 586.096 845.498 479.799 c 0
 845.498 349.122 813.072 235.998 748.223 140.429 c 128
 683.372 44.8594 606.575 -2.92578 517.831 -2.92578 c 0
 451.519 -2.92578 396.419 26.3301 352.535 84.8428 c 2
 329.13 117.024 l 1
 321.816 141.892 l 1
 317.428 169.685 l 1
 334.981 172.61 l 1
 334.981 154.081 340.346 139.453 351.072 128.727 c 0
 354.974 123.851 369.112 112.636 393.493 95.082 c 1
 441.766 80.4541 l 1
 506.129 76.0654 l 2
 550.013 76.0654 583.657 111.173 607.062 181.387 c 128
 630.467 251.602 642.169 353.998 642.169 488.575 c 0
EndSplineSet
EndChar
StartChar: uni0DE0
Encoding: 3552 3552 52
Width: 0
VWidth: 2047
Flags: HW
Fore
-719.697 1038.59 m 0
 -719.697 1021.03 -713.359 1005.92 -700.682 993.241 c 128
 -688.003 980.563 -671.912 974.225 -652.409 974.225 c 0
 -634.855 974.225 -619.496 980.563 -606.331 993.241 c 128
 -593.165 1005.92 -586.583 1022.01 -586.583 1041.51 c 0
 -586.583 1059.07 -593.165 1074.67 -606.331 1088.32 c 128
 -619.496 1101.98 -635.343 1108.8 -653.871 1108.8 c 0
 -669.476 1108.8 -684.346 1101.73 -698.487 1087.59 c 128
 -712.628 1073.45 -719.697 1057.12 -719.697 1038.59 c 0
-434.451 901.085 m 1
 -434.451 917.176 l 1
 -428.601 949.357 l 1
 -418.36 1003.48 l 1
 -413.973 1059.07 l 2
 -413.973 1094.17 -424.212 1129.28 -444.691 1164.39 c 0
 -456.394 1184.87 -483.942 1201.45 -527.34 1214.12 c 128
 -570.736 1226.8 -620.228 1233.14 -675.813 1233.14 c 0
 -737.251 1233.14 -786.499 1223.88 -823.557 1205.35 c 0
 -870.366 1181.94 -893.771 1145.86 -893.771 1097.1 c 0
 -893.771 1051.27 -876.217 1014.21 -841.11 985.928 c 0
 -811.854 965.448 -773.334 955.208 -725.549 955.208 c 1
 -740.177 963.985 -752.123 976.175 -761.388 991.778 c 128
 -770.651 1007.38 -775.284 1022.98 -775.284 1038.59 c 0
 -778.21 1070.77 -766.021 1099.29 -738.714 1124.16 c 128
 -711.408 1149.03 -680.689 1161.46 -646.558 1161.46 c 0
 -617.302 1161.46 -591.458 1150.98 -569.029 1130.01 c 128
 -546.6 1109.05 -535.385 1083.45 -535.385 1053.22 c 0
 -535.385 1007.38 -557.327 968.86 -601.211 937.655 c 0
 -638.268 915.226 -685.566 904.011 -743.103 904.011 c 0
 -799.664 904.011 -847.937 920.102 -887.92 952.283 c 128
 -927.902 984.465 -947.895 1032.25 -947.895 1095.64 c 0
 -947.895 1154.15 -920.588 1201.69 -865.978 1238.26 c 128
 -811.367 1274.83 -746.028 1293.12 -669.963 1293.12 c 0
 -622.177 1293.12 -584.145 1290.92 -555.864 1286.53 c 128
 -527.584 1282.14 -502.716 1274.59 -481.261 1263.86 c 0
 -431.526 1240.45 -393.006 1196.08 -365.7 1130.74 c 0
 -355.947 1098.56 -351.072 1073.7 -351.072 1056.14 c 2
 -355.46 1009.33 l 1
 -365.7 952.283 l 2
 -368.626 934.729 -376.184 921.809 -388.373 913.519 c 128
 -400.562 905.229 -415.922 901.085 -434.451 901.085 c 1
EndSplineSet
EndChar
StartChar: uni0DE1
Encoding: 3553 3553 53
Width: 0
VWidth: 2047
Flags: HW
Fore
-204.792 250.139 m 1
 -175.536 229.659 -153.106 197.965 -137.503 155.057 c 1
 -122.875 81.917 l 1
 -117.024 0 l 2
 -117.024 -144.33 -173.098 -255.015 -285.246 -332.056 c 0
 -382.767 -396.419 -511.004 -428.601 -669.963 -428.601 c 0
 -802.59 -428.601 -919.126 -381.791 -1019.57 -288.172 c 0
 -1110.27 -206.255 -1155.61 -125.801 -1155.61 -46.8096 c 1
 -1121.48 -114.099 -1059.07 -174.073 -968.374 -226.734 c 128
 -877.68 -279.395 -777.234 -305.726 -667.037 -305.726 c 0
 -532.459 -305.726 -415.436 -287.196 -315.965 -250.139 c 0
 -207.718 -204.305 -153.594 -120.925 -153.594 0 c 2
 -155.057 61.4375 l 1
 -168.222 137.503 l 2
 -175.049 165.783 -197.478 201.379 -235.511 244.287 c 1
 -204.792 250.139 l 1
EndSplineSet
EndChar
StartChar: uni0DE2
Encoding: 3554 3554 54
Width: 860
VWidth: 2047
Flags: HW
Fore
706.532 751.879 m 0
 706.532 719.697 696.049 691.66 675.082 667.769 c 128
 654.116 643.876 628.028 631.93 596.822 631.93 c 0
 576.343 631.93 554.889 638.268 532.459 650.946 c 0
 527.584 652.896 523.683 658.747 520.757 668.5 c 1
 520.757 673.375 526.608 677.276 538.311 680.202 c 1
 571.955 672.888 l 1
 599.748 674.351 l 1
 614.376 677.276 626.078 686.053 634.855 700.682 c 1
 643.632 722.623 l 1
 646.558 747.491 l 2
 646.558 765.045 637.294 780.891 618.765 795.032 c 128
 600.235 809.173 580.244 816.242 558.79 816.242 c 0
 533.435 816.242 509.055 802.59 485.649 775.284 c 0
 468.096 748.953 459.319 717.748 459.319 681.665 c 0
 459.319 643.632 475.41 612.913 507.592 589.509 c 2
 678.739 473.947 l 2
 731.4 430.063 762.119 375.452 770.896 310.113 c 2
 772.358 288.172 l 1
 773.821 269.155 l 2
 773.821 194.065 745.541 130.433 688.979 78.2598 c 128
 632.417 26.0869 563.178 0 481.261 0 c 0
 435.428 0 377.646 21.6982 307.919 65.0947 c 128
 238.192 108.491 192.114 130.189 169.685 130.189 c 0
 158.958 130.189 149.206 127.264 140.429 121.412 c 1
 133.603 114.586 126.288 103.858 118.486 89.2305 c 1
 115.562 70.2148 l 1
 117.024 38.0332 l 2
 117.024 26.3301 112.148 20.4795 102.396 20.4795 c 1
 71.1895 28.2803 55.5859 48.7598 55.5859 81.917 c 0
 55.5859 108.247 64.8506 132.627 83.3799 155.057 c 2
 122.875 197.478 l 1
 155.057 231.122 l 2
 197.965 286.709 230.391 339.614 252.333 389.836 c 128
 274.275 440.059 285.246 491.988 285.246 545.624 c 0
 285.246 583.657 279.395 625.592 267.692 671.425 c 0
 258.916 712.384 243.801 743.59 222.346 765.045 c 0
 202.842 787.474 177.486 798.688 146.28 798.688 c 2
 131.652 797.226 l 2
 105.321 794.301 85.8174 783.085 73.1396 763.582 c 128
 60.4619 744.078 54.124 719.697 54.124 690.441 c 0
 54.124 673.863 57.5371 657.284 64.3633 640.706 c 2
 73.1396 618.765 l 1
 62.9004 617.302 l 1
 45.3467 620.228 31.2061 629.979 20.4795 646.558 c 0
 11.7021 663.136 7.31445 683.615 7.31445 707.995 c 2
 8.77637 728.475 l 2
 8.77637 759.681 20.2354 786.742 43.1523 809.66 c 128
 66.0703 832.577 89.2305 845.498 112.636 848.424 c 2
 156.52 854.275 l 2
 195.528 854.275 231.122 836.722 263.304 801.614 c 0
 283.783 777.234 302.312 734.812 318.891 674.351 c 0
 327.667 631.442 332.056 590.484 332.056 551.476 c 0
 332.056 474.435 318.403 404.709 291.098 342.295 c 128
 263.791 279.882 221.858 221.858 165.297 168.222 c 1
 422.749 125.801 l 1
 479.312 125.801 524.901 142.867 559.521 176.999 c 128
 594.141 211.13 611.45 256.478 611.45 313.039 c 0
 611.45 350.097 606.086 379.841 595.359 402.27 c 0
 586.583 426.65 567.079 454.443 536.848 485.649 c 2
 452.005 560.252 l 2
 416.898 595.359 399.345 630.954 399.345 667.037 c 0
 399.345 728.475 413.241 777.723 441.034 814.779 c 128
 468.827 851.837 510.03 870.366 564.641 870.366 c 0
 602.674 870.366 635.831 859.15 664.111 836.722 c 0
 692.392 816.242 706.532 787.962 706.532 751.879 c 0
EndSplineSet
EndChar
StartChar: uni0DE3
Encoding: 3555 3555 55
Width: 0
VWidth: 2047
Flags: HW
Fore
71.6768 121.412 m 1
 -42.4209 209.181 -99.4707 317.915 -99.4707 447.617 c 0
 -99.4707 552.938 -70.2148 647.533 -11.7021 731.4 c 0
 52.6611 818.192 134.09 861.589 232.585 861.589 c 0
 256.966 861.589 269.155 853.788 269.155 838.185 c 0
 269.155 828.432 262.086 815.511 247.944 799.42 c 128
 233.804 783.329 222.833 773.821 215.031 770.896 c 1
 193.577 770.896 177.486 774.309 166.759 781.135 c 1
 155.057 776.747 l 1
 151.155 776.747 147.012 775.771 142.623 773.821 c 128
 138.234 771.871 131.652 767.482 122.875 760.656 c 1
 108.247 765.045 l 1
 74.1152 750.416 43.8838 722.867 17.5537 682.396 c 128
 -8.77637 641.925 -27.793 593.896 -39.4951 538.311 c 2
 -43.8838 485.649 l 2
 -43.8838 452.492 -40.4707 422.262 -33.6445 394.956 c 2
 -33.6445 386.18 -16.0908 339.369 19.0166 254.527 c 2
 71.6768 121.412 l 1
EndSplineSet
EndChar
StartChar: uni0DE4
Encoding: 3556 3556 56
Width: 0
VWidth: 2047
Flags: HW
Fore
-1070.77 1135.13 m 1
 -1098.56 1167.31 l 1
 -1127.82 1203.88 l 1
 -1139.52 1225.83 l 1
 -1151.22 1255.08 l 1
 -1151.22 1262.88 -1152.2 1267.76 -1154.15 1269.71 c 1
 -1157.08 1282.88 l 1
 -1157.08 1316.03 -1138.06 1344.31 -1100.03 1367.72 c 2
 -1059.07 1392.59 l 2
 -1047.37 1401.36 -1031.76 1409.65 -1012.26 1417.45 c 2
 -965.448 1429.16 l 1
 -923.026 1440.86 l 1
 -870.366 1449.63 l 1
 -820.631 1455.49 l 1
 -769.433 1455.49 l 1
 -743.103 1455.49 l 1
 -712.384 1451.1 l 1
 -686.053 1451.1 -669.476 1450.12 -662.648 1448.17 c 2
 -651.922 1448.17 -634.855 1444.76 -611.45 1437.93 c 2
 -582.194 1435.01 -551.963 1426.72 -520.757 1413.06 c 2
 -473.947 1392.59 l 1
 -444.691 1377.96 l 1
 -422.749 1364.79 l 2
 -392.518 1345.29 -364.237 1324.08 -337.907 1301.16 c 128
 -311.576 1278.24 -288.172 1253.62 -267.692 1227.29 c 2
 -215.031 1143.91 l 1
 -168.222 1040.05 l 1
 -146.28 977.15 l 1
 -130.189 920.102 l 1
 -118.486 845.498 l 1
 -112.636 763.582 l 2
 -112.636 706.045 -114.83 659.235 -119.218 623.152 c 128
 -123.606 587.07 -128.239 560.497 -133.115 543.431 c 128
 -137.991 526.363 -145.305 507.104 -155.057 485.649 c 1
 -167.735 488.575 -174.073 502.716 -174.073 528.07 c 2
 -174.073 557.327 l 1
 -176.023 568.054 -180.411 575.367 -187.238 579.269 c 1
 -176.999 640.706 l 1
 -174.073 715.31 l 1
 -174.073 785.523 l 1
 -176.999 848.424 l 1
 -176.999 883.531 l 1
 -182.85 909.861 l 1
 -182.85 919.614 -183.826 925.465 -185.775 927.415 c 1
 -193.09 950.82 l 1
 -209.181 1000.56 l 2
 -219.907 1029.81 -233.072 1058.58 -248.676 1086.86 c 0
 -266.229 1116.12 -266.229 1116.12 -272.081 1125.62 c 128
 -275.982 1131.96 -284.759 1143.91 -298.411 1161.46 c 2
 -321.816 1187.79 l 1
 -346.684 1214.12 l 1
 -370.089 1236.07 l 1
 -393.493 1255.08 l 1
 -437.377 1288.73 l 1
 -487.112 1317.98 l 1
 -495.89 1320.91 l 1
 -501.74 1323.83 l 1
 -547.087 1344.31 l 1
 -588.046 1358.94 l 1
 -648.021 1373.57 l 1
 -713.847 1383.81 l 1
 -765.045 1389.66 l 1
 -811.854 1391.12 l 1
 -855.738 1389.66 l 2
 -867.44 1389.66 -882.068 1386.73 -899.622 1380.88 c 2
 -943.506 1370.64 l 1
 -988.853 1358.94 l 2
 -1000.56 1356.02 -1010.79 1350.16 -1019.57 1341.39 c 1
 -1045.9 1322.37 l 1
 -1075.16 1308.72 -1089.79 1291.17 -1089.79 1269.71 c 2
 -1088.32 1255.08 l 1
 -1078.08 1240.45 l 1
 -1044.44 1190.72 l 1
 -1018.11 1158.54 l 1
 -1042.98 1146.83 l 1
 -1070.77 1135.13 l 1
EndSplineSet
EndChar
StartChar: uni0DE5
Encoding: 3557 3557 57
Width: 939
VWidth: 2047
Flags: HW
Fore
178.462 247.213 m 1
 196.016 247.213 226.734 239.899 270.618 225.271 c 2
 292.56 219.42 l 1
 326.204 213.568 l 1
 341.809 213.568 351.072 214.545 353.998 216.494 c 1
 378.378 222.346 405.683 232.585 435.914 247.213 c 0
 452.492 257.939 470.534 278.419 490.038 308.65 c 2
 509.055 345.221 l 1
 511.98 353.998 513.442 366.188 513.442 381.791 c 1
 517.831 349.609 l 1
 541.236 308.65 l 2
 557.813 281.345 577.806 259.402 601.211 242.825 c 0
 626.565 227.221 654.848 219.42 686.053 219.42 c 0
 733.839 219.42 775.284 233.561 810.392 261.841 c 128
 845.498 290.121 863.052 326.204 863.052 370.089 c 0
 863.052 422.749 845.498 471.997 810.392 517.831 c 0
 784.061 550.013 738.227 582.682 672.888 615.839 c 0
 621.203 642.169 575.367 655.334 535.385 655.334 c 0
 508.079 655.334 477.849 650.459 444.691 640.706 c 1
 387.155 594.872 333.031 541.236 282.32 479.799 c 0
 218.933 402.757 164.32 320.354 118.486 232.585 c 1
 138.966 239.899 l 1
 178.462 247.213 l 1
901.085 890.846 m 0
 1017.13 890.846 1101.98 885.481 1155.61 874.754 c 0
 1215.1 865.978 1285.31 834.771 1366.25 781.135 c 1
 1296.04 781.135 l 1
 1253.13 795.764 1193.64 812.83 1117.58 832.333 c 2
 1025.42 842.573 l 1
 914.25 846.961 l 2
 826.482 846.961 758.706 837.209 710.921 817.705 c 0
 666.062 804.053 596.335 760.169 501.74 686.053 c 1
 552.938 684.591 l 2
 568.542 684.591 582.682 682.641 595.359 678.739 c 2
 618.765 675.813 647.533 666.55 681.665 650.946 c 0
 761.632 614.863 821.606 571.468 861.589 520.757 c 0
 905.474 466.146 927.415 400.808 927.415 324.741 c 0
 927.415 282.808 921.077 239.899 908.398 196.016 c 0
 896.696 149.206 876.704 109.71 848.424 77.5283 c 0
 827.945 48.2725 807.953 28.0371 788.449 16.8223 c 128
 768.945 5.60742 739.201 0 699.219 0 c 0
 678.739 0 645.095 14.6279 598.285 43.8838 c 0
 542.699 78.9912 514.905 114.099 514.905 149.206 c 1
 514.905 114.099 498.328 79.4785 465.17 45.3467 c 0
 432.013 15.1152 393.98 0 351.072 0 c 0
 328.643 0 303.287 12.1904 275.007 36.5703 c 0
 245.75 63.876 217.957 98.4951 191.627 140.429 c 0
 184.8 154.081 176.268 166.272 166.027 176.999 c 128
 155.788 187.726 143.842 193.577 130.189 194.553 c 1
 105.321 185.775 l 1
 99.4707 185.775 93.6191 181.387 87.7676 172.61 c 1
 76.0654 140.429 l 1
 36.5703 149.206 l 1
 57.0488 204.792 76.5527 252.577 95.082 292.56 c 128
 113.611 332.543 134.577 370.089 157.982 405.195 c 0
 223.321 506.616 318.891 605.6 444.691 702.145 c 1
 452.492 714.822 456.394 730.424 456.394 748.953 c 2
 456.394 766.507 l 2
 456.394 772.358 455.418 778.21 453.468 784.061 c 1
 453.468 794.787 445.179 806.979 428.601 820.631 c 128
 412.022 834.283 393.006 841.11 371.551 841.11 c 0
 343.271 841.11 323.766 831.357 313.039 811.854 c 0
 303.287 787.474 298.411 762.605 298.411 737.251 c 2
 298.411 709.458 l 2
 298.411 694.83 299.387 685.566 301.337 681.665 c 1
 301.337 652.409 292.315 627.297 274.275 606.331 c 128
 256.234 585.364 233.561 574.881 206.255 574.881 c 0
 186.751 574.881 165.783 585.12 143.354 605.6 c 1
 126.776 627.054 118.486 651.434 118.486 678.739 c 0
 118.486 743.103 137.747 797.471 176.268 841.842 c 128
 214.787 886.213 267.692 908.398 334.981 908.398 c 0
 370.089 908.398 404.709 898.159 438.84 877.68 c 0
 466.146 857.201 485.649 829.407 497.352 794.301 c 0
 500.277 782.598 501.74 765.045 501.74 741.64 c 1
 547.574 782.598 605.844 817.705 676.545 846.961 c 128
 747.246 876.217 822.094 890.846 901.085 890.846 c 0
EndSplineSet
EndChar
StartChar: uni0DE6
Encoding: 3558 3558 58
Width: 939
VWidth: 2047
Flags: HW
Fore
210.644 207.718 m 1
 232.098 196.991 263.791 187.238 305.726 178.462 c 1
 459.319 172.61 l 2
 547.087 172.61 624.129 184.312 690.441 207.718 c 0
 774.309 239.899 816.242 289.635 816.242 356.923 c 0
 816.242 398.857 792.838 443.229 746.028 490.038 c 0
 707.995 525.146 669.963 548.55 631.93 560.252 c 2
 530.996 589.509 l 1
 435.914 602.674 l 1
 393.98 563.665 352.048 509.542 310.113 440.303 c 0
 297.436 416.898 282.808 386.18 266.229 348.146 c 2
 210.644 207.718 l 1
980.076 905.474 m 2
 1056.14 904.011 l 2
 1072.23 904.011 1072.23 904.011 1083.93 904.011 c 128
 1091.74 904.011 1105.39 902.061 1124.89 898.159 c 2
 1184.87 889.383 l 2
 1193.64 888.406 1202.91 886.701 1212.66 884.263 c 128
 1222.41 881.824 1233.14 878.167 1244.84 873.292 c 0
 1295.55 859.64 1355.04 831.846 1423.3 789.912 c 1
 1388.2 760.656 l 1
 1300.43 798.688 l 1
 1208.27 832.333 l 2
 1127.33 854.763 1054.19 865.978 988.853 865.978 c 0
 905.96 865.978 821.362 846.475 735.057 807.466 c 128
 648.752 768.457 563.178 713.359 478.336 642.169 c 1
 532.459 631.93 l 1
 561.715 626.078 l 1
 601.211 615.839 l 2
 670.449 598.285 735.301 569.029 795.764 528.07 c 0
 872.805 473.46 911.324 411.534 911.324 342.295 c 0
 911.324 240.875 865.002 157.495 772.358 92.1562 c 0
 685.566 30.7188 584.145 0 468.096 0 c 0
 377.402 0 283.783 36.5703 187.238 109.71 c 0
 102.396 174.073 52.6611 235.023 38.0332 292.56 c 1
 81.917 269.155 l 1
 156.52 223.809 l 1
 193.577 329.13 225.758 406.658 253.064 456.394 c 0
 285.246 513.93 334.981 575.367 402.27 640.706 c 1
 408.121 648.508 411.047 662.161 411.047 681.665 c 2
 411.047 699.219 l 2
 411.047 705.069 410.071 710.921 408.121 716.772 c 1
 408.121 727.499 399.832 739.689 383.254 753.342 c 128
 366.676 766.994 347.659 773.821 326.204 773.821 c 0
 297.924 773.821 278.419 764.068 267.692 744.565 c 0
 257.939 720.185 253.064 695.317 253.064 669.963 c 2
 253.064 642.169 l 2
 253.064 627.541 254.04 618.277 255.99 614.376 c 1
 255.99 585.12 246.969 560.008 228.928 539.042 c 128
 210.888 518.075 188.214 507.592 160.908 507.592 c 0
 141.404 507.592 120.438 517.831 98.0078 538.311 c 1
 81.4297 559.766 73.1396 584.145 73.1396 611.45 c 0
 73.1396 675.813 92.4004 730.182 130.921 774.553 c 128
 169.44 818.924 222.346 841.11 289.635 841.11 c 0
 324.741 841.11 359.361 830.87 393.493 810.392 c 0
 420.799 789.912 440.303 762.119 452.005 727.012 c 1
 454.931 699.219 l 1
 456.394 677.276 l 1
 535.385 749.44 609.5 802.59 678.739 836.722 c 0
 720.673 857.201 767.482 873.778 819.168 886.457 c 128
 870.854 899.135 924.489 905.474 980.076 905.474 c 2
EndSplineSet
EndChar
StartChar: uni0DE7
Encoding: 3559 3559 59
Width: 939
VWidth: 2047
Flags: HW
Fore
206.255 643.632 m 1
 206.255 614.376 197.233 589.264 179.193 568.298 c 128
 161.152 547.331 138.479 536.848 111.173 536.848 c 0
 91.6689 536.848 70.7021 547.087 48.2725 567.566 c 1
 31.6943 589.021 23.4053 613.4 23.4053 640.706 c 0
 23.4053 705.069 42.665 759.438 81.1855 803.809 c 128
 119.706 848.18 172.61 870.366 239.899 870.366 c 0
 275.007 870.366 309.627 860.126 343.758 839.647 c 0
 371.064 819.168 390.567 791.375 402.27 756.268 c 1
 405.195 728.475 l 1
 406.658 706.532 l 1
 434.938 726.036 468.096 745.541 506.129 765.045 c 0
 583.17 805.027 655.821 834.527 724.086 853.544 c 128
 792.351 872.561 863.052 882.068 936.192 882.068 c 0
 961.06 882.068 961.06 882.068 980.076 882.068 c 128
 992.754 882.068 1008.36 880.605 1026.89 877.68 c 128
 1045.42 874.754 1061.26 871.829 1074.43 868.903 c 128
 1087.59 865.978 1104.9 860.613 1126.36 852.812 c 0
 1183.89 837.209 1249.72 810.392 1323.83 772.358 c 1
 1271.17 754.805 l 1
 1114.65 800.151 l 1
 1004.94 820.631 l 1
 912.787 827.945 l 2
 824.044 827.945 742.127 814.293 667.037 786.986 c 0
 622.177 771.383 550.988 734.812 453.468 677.276 c 1
 514.905 677.276 l 2
 529.533 677.276 529.533 677.276 538.311 677.276 c 128
 544.162 677.276 559.766 675.326 585.12 671.425 c 2
 634.855 667.037 l 1
 694.83 649.483 l 2
 765.045 629.004 819.655 594.384 858.664 545.624 c 0
 878.167 520.27 892.795 492.477 902.548 462.245 c 128
 912.3 432.013 917.176 400.808 917.176 368.626 c 0
 917.176 269.155 877.436 182.605 797.957 108.979 c 128
 718.479 35.3506 624.129 -1.46289 514.905 -1.46289 c 0
 465.17 -1.46289 414.46 15.1152 362.774 48.2725 c 2
 150.668 181.387 l 1
 137.991 183.337 125.801 181.143 114.099 174.805 c 128
 102.396 168.466 91.1816 158.47 80.4541 144.817 c 1
 65.8262 143.354 l 1
 42.4209 149.206 l 1
 81.917 264.767 l 2
 86.793 278.419 92.8877 293.536 100.202 310.113 c 128
 107.516 326.691 115.562 341.809 124.338 355.46 c 0
 176.999 454.931 252.089 557.813 349.609 664.111 c 1
 357.41 676.789 361.312 692.392 361.312 710.921 c 2
 361.312 728.475 l 2
 361.312 734.325 360.336 740.177 358.386 746.028 c 1
 358.386 756.755 350.097 768.945 333.519 782.598 c 128
 316.94 796.25 297.924 803.077 276.469 803.077 c 0
 248.188 803.077 228.684 793.325 217.957 773.821 c 0
 208.205 749.44 203.329 724.573 203.329 699.219 c 2
 203.329 671.425 l 2
 203.329 656.797 204.305 647.533 206.255 643.632 c 1
206.255 220.883 m 1
 359.849 188.701 l 2
 409.584 179.925 458.832 175.536 507.592 175.536 c 0
 587.559 175.536 662.648 192.114 732.863 225.271 c 0
 817.705 263.304 860.126 313.039 860.126 374.477 c 0
 860.126 431.039 843.06 479.067 808.929 518.562 c 128
 774.797 558.059 725.549 588.046 661.186 608.524 c 0
 568.542 630.954 482.237 642.169 402.27 642.169 c 1
 366.188 609.987 321.329 558.303 267.692 487.112 c 0
 206.255 402.27 153.106 309.138 108.247 207.718 c 1
 134.577 222.346 l 1
 162.371 228.197 l 1
 175.049 228.197 182.363 227.221 184.312 225.271 c 1
 206.255 220.883 l 1
EndSplineSet
EndChar
StartChar: uni0DE8
Encoding: 3560 3560 60
Width: 963
VWidth: 2047
Flags: HW
Fore
602.674 615.839 m 2
 493.451 599.261 422.262 579.756 389.104 557.327 c 1
 367.65 547.574 337.42 511.98 298.411 450.542 c 1
 286.709 418.36 l 1
 277.932 387.642 l 1
 270.618 336.444 l 1
 272.081 286.709 l 1
 288.172 223.809 l 2
 296.948 192.603 328.643 161.884 383.254 131.652 c 2
 469.559 92.1562 l 1
 585.12 59.9746 l 1
 629.004 55.5859 l 1
 656.797 57.0488 l 1
 705.069 62.9004 l 1
 756.268 73.1396 l 1
 807.466 90.6934 l 1
 820.631 62.9004 l 1
 707.995 29.2559 l 1
 612.913 10.2393 l 1
 513.442 1.46289 l 2
 432.502 1.46289 340.346 28.7686 236.974 83.3799 c 0
 106.297 152.618 40.958 234.048 40.958 327.667 c 0
 40.958 430.063 73.1396 511.493 137.503 571.955 c 0
 220.396 640.22 362.774 674.351 564.641 674.351 c 2
 599.748 674.351 l 1
 636.318 675.813 l 1
 667.037 675.813 l 1
 716.772 669.963 l 2
 743.103 669.963 757.243 668.5 759.193 665.574 c 1
 817.705 650.946 l 1
 814.779 669.963 l 1
 808.929 696.293 l 2
 800.151 726.524 780.159 750.903 748.953 769.433 c 1
 684.591 788.449 l 1
 618.765 797.226 l 1
 574.881 798.688 l 2
 555.377 798.688 524.658 784.548 482.724 756.268 c 0
 444.691 726.036 417.385 710.921 400.808 710.921 c 0
 389.104 710.921 377.89 716.285 367.163 727.012 c 2
 343.758 753.342 l 1
 329.13 804.54 l 1
 343.758 820.631 l 1
 390.567 864.515 l 1
 452.005 882.068 l 1
 526.608 889.383 l 2
 589.995 889.383 646.558 878.411 696.293 856.47 c 128
 746.028 834.527 779.673 814.779 797.226 797.226 c 0
 830.383 768.945 850.862 732.376 858.664 687.516 c 2
 861.589 661.186 l 1
 858.664 599.748 l 1
 797.226 609.987 l 1
 722.623 618.765 l 1
 664.111 623.152 l 1
 602.674 615.839 l 2
EndSplineSet
EndChar
StartChar: uni0DF5
Encoding: 3573 3573 61
Width: 965
VWidth: 2047
Flags: HW
Fore
601.211 617.302 m 2
 494.913 599.748 423.48 579.024 386.91 555.133 c 128
 350.341 531.24 320.84 496.376 298.411 450.542 c 0
 289.635 428.113 282.808 407.39 277.932 388.373 c 128
 273.057 369.357 270.618 351.56 270.618 334.981 c 0
 270.618 307.675 276.469 273.788 288.172 233.316 c 128
 299.874 192.846 332.056 157.982 384.717 128.727 c 128
 437.377 99.4707 504.179 76.5527 585.12 59.9746 c 2
 629.004 55.5859 l 1
 658.26 57.0488 l 2
 671.912 57.0488 687.516 59.4873 705.069 64.3633 c 2
 756.268 74.6025 l 1
 807.466 90.6934 l 1
 822.094 64.3633 l 1
 709.458 29.2559 l 2
 650.946 11.7021 586.096 2.92578 514.905 2.92578 c 0
 432.989 2.92578 340.832 30.2314 238.437 84.8428 c 0
 106.784 152.131 40.958 233.072 40.958 327.667 c 0
 40.958 433.965 73.1396 514.905 137.503 570.492 c 0
 220.396 639.73 362.774 674.351 564.641 674.351 c 2
 599.748 674.351 l 1
 636.318 675.813 l 1
 668.5 675.813 l 1
 716.772 669.963 l 2
 749.93 667.037 783.573 660.698 817.705 650.946 c 1
 814.779 669.963 l 1
 808.929 696.293 l 2
 800.151 726.524 780.159 750.903 748.953 769.433 c 0
 730.424 778.21 707.02 785.279 678.739 790.644 c 128
 650.459 796.008 616.326 798.688 576.343 798.688 c 0
 553.914 798.688 523.195 784.061 484.187 754.805 c 128
 445.179 725.549 417.385 710.921 400.808 710.921 c 0
 388.129 710.921 376.427 716.285 365.7 727.012 c 2
 343.758 753.342 l 2
 334.006 767.97 329.13 785.036 329.13 804.54 c 0
 332.056 826.969 353.021 846.961 392.03 864.515 c 1
 453.468 882.068 l 1
 526.608 887.92 l 2
 588.046 887.92 643.388 877.193 692.636 855.738 c 128
 741.884 834.283 776.747 814.293 797.226 795.764 c 0
 829.407 769.433 849.887 733.839 858.664 688.979 c 2
 861.589 661.186 l 1
 857.201 599.748 l 1
 795.764 609.987 l 2
 768.457 613.889 744.321 616.814 723.354 618.765 c 128
 702.389 620.715 682.641 621.69 664.111 621.69 c 2
 601.211 617.302 l 2
49.7354 -193.09 m 0
 49.7354 -152.131 68.9951 -112.636 107.516 -74.6025 c 128
 146.036 -36.5703 190.164 -17.5537 239.899 -17.5537 c 2
 280.857 -19.0166 l 1
 291.584 -20.9668 306.701 -27.793 326.204 -39.4951 c 1
 326.204 -93.6191 l 1
 305.726 -78.9912 282.32 -71.6768 255.99 -71.6768 c 0
 221.858 -71.6768 190.651 -78.9912 162.371 -93.6191 c 0
 126.288 -115.073 108.247 -147.256 108.247 -190.164 c 0
 108.247 -223.321 116.049 -250.626 131.652 -272.081 c 0
 154.081 -299.387 188.214 -313.039 234.048 -313.039 c 2
 260.379 -313.039 l 1
 282.32 -313.039 l 2
 294.022 -313.039 303.287 -312.063 310.113 -310.113 c 2
 320.84 -310.113 332.543 -306.212 345.221 -298.411 c 2
 361.799 -291.584 386.666 -276.469 419.823 -253.064 c 0
 435.428 -242.338 455.906 -236.974 481.261 -236.974 c 0
 500.765 -236.974 521.732 -246.727 544.162 -266.229 c 2
 571.955 -295.485 l 1
 600.235 -312.063 635.343 -320.354 677.276 -320.354 c 2
 727.012 -320.354 l 2
 745.541 -320.354 759.193 -321.329 767.97 -323.279 c 1
 767.97 71.6768 l 1
 786.986 73.1396 l 1
 825.02 68.752 l 1
 823.557 -383.254 l 1
 213.568 -383.254 l 1
 157.982 -374.477 117.512 -355.947 92.1562 -327.667 c 0
 63.876 -296.461 49.7354 -251.602 49.7354 -193.09 c 0
EndSplineSet
EndChar
